{
.appVersion = "1246";
DisplayStrings = (

glyphs = (
{
color = 3;
glyphname = A;
lastChange = "2019-10-08 10:52:32 +0000";
layers = (
{
anchors = (
{
name = bottom;
position = "{337, 0}";
},
{
name = ogonek;
position = "{645, 0}";
},
{
name = top;
position = "{434, 705}";
}
);
background = {
anchors = (
{
name = bottom;
position = "{320, 0}";
},
{
name = ogonek;
position = "{643, 0}";
},
{
name = top;
position = "{432, 705}";
}
);
paths = (
{
closed = 1;
nodes = (
"451 705 LINE",
"411 705 LINE",
"-4 0 LINE",
"41 0 LINE",
"161 204 LINE",
"131 195 LINE",
"567 195 LINE",
"542 204 LINE",
"597 0 LINE",
"642 0 LINE"
);
},
{
closed = 1;
nodes = (
"556 234 LINE",
"154 234 LINE",
"175 228 LINE",
"440 680 LINE",
"414 680 LINE",
"535 228 LINE"
);
}
);
};
layerId = "F1F93986-3ED8-4AAE-84C4-CA3EEECDDFA0";
paths = (
{
closed = 1;
nodes = (
"46 0 LINE",
"166 204 LINE",
"134 195 LINE",
"570 195 LINE",
"546 204 LINE",
"601 0 LINE",
"643 0 LINE",
"452 705 LINE",
"412 705 LINE",
"-3 0 LINE"
);
},
{
closed = 1;
nodes = (
"445 680 LINE",
"418 680 LINE",
"539 228 LINE",
"559 234 LINE",
"157 234 LINE",
"180 228 LINE"
);
}
);
width = 716;
},
{
anchors = (
{
name = bottom;
position = "{368, 0}";
},
{
name = ogonek;
position = "{683, 0}";
},
{
name = top;
position = "{456, 705}";
}
);
background = {
anchors = (
{
name = bottom;
position = "{348, 0}";
},
{
name = ogonek;
position = "{683, 0}";
},
{
name = top;
position = "{458, 705}";
}
);
paths = (
{
closed = 1;
nodes = (
"543 705 LINE",
"374 705 LINE",
"-72 0 LINE",
"142 0 LINE",
"254 191 LINE",
"165 131 LINE",
"572 131 LINE",
"501 191 LINE",
"553 0 LINE",
"767 0 LINE"
);
},
{
closed = 1;
nodes = (
"527 295 LINE",
"260 295 LINE",
"281 238 LINE",
"450 530 LINE",
"413 530 LINE",
"488 238 LINE"
);
}
);
};
layerId = "4121B50C-FD42-45C5-8FBE-41E76D98F91E";
paths = (
{
closed = 1;
nodes = (
"150 0 LINE",
"250 170 LINE",
"182 131 LINE",
"573 131 LINE",
"517 175 LINE",
"562 0 LINE",
"767 0 LINE",
"545 705 LINE",
"375 705 LINE",
"-72 0 LINE"
);
},
{
closed = 1;
nodes = (
"458 524 LINE",
"427 524 LINE",
"497 251 LINE",
"531 295 LINE",
"278 295 LINE",
"300 256 LINE"
);
}
);
width = 773;
}
);
leftKerningGroup = A;
rightKerningGroup = A;
unicode = 0041;
userData = {
anchors = (
);
b = {
};
com.typemytype.robofont.layerData = {
b = {
anchors = (
);
components = (
);
contours = (
{
points = (
{
segmentType = line;
smooth = 0;
x = 403;
y = 502;
},
{
segmentType = line;
smooth = 0;
x = 703;
y = 1275;
},
{
segmentType = line;
smooth = 0;
x = 705;
y = 1275;
},
{
segmentType = line;
smooth = 0;
x = 1004;
y = 502;
}
);
},
{
points = (
{
segmentType = curve;
smooth = 1;
x = 150;
y = 0;
},
{
smooth = 0;
x = 181;
y = 0;
},
{
smooth = 0;
x = 214;
y = 15;
},
{
segmentType = curve;
smooth = 1;
x = 229;
y = 53;
},
{
segmentType = line;
smooth = 0;
x = 356;
y = 373;
},
{
segmentType = line;
smooth = 0;
x = 1051;
y = 373;
},
{
segmentType = line;
smooth = 1;
x = 1179;
y = 53;
},
{
smooth = 0;
x = 1193;
y = 17;
},
{
smooth = 0;
x = 1228;
y = 0;
},
{
segmentType = curve;
smooth = 1;
x = 1260;
y = 0;
},
{
smooth = 0;
x = 1306;
y = 0;
},
{
smooth = 0;
x = 1354;
y = 31;
},
{
segmentType = curve;
smooth = 1;
x = 1354;
y = 80;
},
{
smooth = 0;
x = 1354;
y = 87;
},
{
smooth = 0;
x = 1352;
y = 97;
},
{
segmentType = curve;
smooth = 0;
x = 1349;
y = 108;
},
{
segmentType = line;
smooth = 1;
x = 871;
y = 1288;
},
{
smooth = 0;
x = 817;
y = 1420;
},
{
smooth = 0;
x = 777;
y = 1430;
},
{
segmentType = curve;
smooth = 1;
x = 710;
y = 1430;
},
{
smooth = 0;
x = 644;
y = 1430;
},
{
smooth = 0;
x = 596;
y = 1413;
},
{
segmentType = curve;
smooth = 1;
x = 542;
y = 1280;
},
{
segmentType = line;
smooth = 1;
x = 66;
y = 108;
},
{
smooth = 0;
x = 62;
y = 97;
},
{
smooth = 0;
x = 60;
y = 87;
},
{
segmentType = curve;
smooth = 1;
x = 60;
y = 78;
},
{
smooth = 0;
x = 60;
y = 32;
},
{
smooth = 0;
x = 106;
y = 0;
}
);
}
);
lib = {
};
name = A;
unicodes = (
);
width = 1414;
};
};
components = (
);
contours = {
};
lib = {
};
name = A;
points = {
};
segmentType = line;
unicodes = (
);
width = 1445;
x = 718;
y = 1232;
};
},
{
glyphname = AE;
lastChange = "2019-10-08 13:10:51 +0000";
layers = (
{
anchors = (
{
name = bottom;
position = "{448, 0}";
},
{
name = top;
position = "{544, 705}";
}
);
background = {
anchors = (
{
name = bottom;
position = "{448, 0}";
},
{
name = top;
position = "{559, 705}";
}
);
paths = (
{
closed = 1;
nodes = (
"10 0 LINE",
"166 207 LINE",
"145 195 LINE",
"540 195 LINE",
"522 207 LINE",
"532 0 LINE",
"882 0 LINE",
"889 39 LINE",
"554 39 LINE",
"572 20 LINE",
"554 348 LINE",
"540 338 LINE",
"916 338 LINE",
"922 377 LINE",
"538 377 LINE",
"553 366 LINE",
"537 690 LINE",
"526 666 LINE",
"988 666 LINE",
"994 705 LINE",
"495 705 LINE",
"-37 0 LINE"
);
},
{
closed = 1;
nodes = (
"179 224 LINE",
"518 676 LINE",
"497 676 LINE",
"521 225 LINE",
"528 234 LINE",
"171 234 LINE"
);
}
);
};
guideLines = (
{
angle = 101.863;
position = "{583, 338}";
},
{
angle = 239.3238;
position = "{334, 338}";
}
);
layerId = "F1F93986-3ED8-4AAE-84C4-CA3EEECDDFA0";
paths = (
{
closed = 1;
nodes = (
"12 0 LINE",
"168 207 LINE",
"147 195 LINE",
"542 195 LINE",
"524 207 LINE",
"534 0 LINE",
"883 0 LINE",
"890 39 LINE",
"554 39 LINE",
"572 20 LINE",
"554 348 LINE",
"540 338 LINE",
"917 338 LINE",
"923 377 LINE",
"538 377 LINE",
"553 366 LINE",
"537 690 LINE",
"526 666 LINE",
"989 666 LINE",
"995 705 LINE",
"495 705 LINE",
"-37 0 LINE"
);
},
{
closed = 1;
nodes = (
"181 224 LINE",
"520 676 LINE",
"499 676 LINE",
"523 225 LINE",
"530 234 LINE",
"173 234 LINE"
);
}
);
width = 971;
},
{
anchors = (
{
name = bottom;
position = "{450, 0}";
},
{
name = top;
position = "{552, 705}";
}
);
background = {
paths = (
{
closed = 1;
nodes = (
"111 0 LINE",
"251 186 LINE",
"166 131 LINE",
"544 131 LINE",
"489 194 LINE",
"502 0 LINE",
"922 0 LINE",
"948 164 LINE",
"623 164 LINE",
"684 109 LINE",
"669 335 LINE",
"617 276 LINE",
"942 276 LINE",
"968 440 LINE",
"606 440 LINE",
"666 381 LINE",
"653 584 LINE",
"592 541 LINE",
"1007 541 LINE",
"1033 705 LINE",
"454 705 LINE",
"-113 0 LINE"
);
},
{
closed = 1;
nodes = (
"293 243 LINE",
"505 523 LINE",
"468 523 LINE",
"487 235 LINE",
"538 295 LINE",
"292 295 LINE"
);
}
);
};
guideLines = (
{
angle = 93.734;
position = "{669, 347}";
},
{
angle = 93.734;
position = "{479, 347}";
}
);
layerId = "4121B50C-FD42-45C5-8FBE-41E76D98F91E";
paths = (
{
closed = 1;
nodes = (
"119 0 LINE",
"259 186 LINE",
"174 131 LINE",
"552 131 LINE",
"497 194 LINE",
"510 0 LINE",
"922 0 LINE",
"948 164 LINE",
"623 164 LINE",
"684 109 LINE",
"669 335 LINE",
"617 276 LINE",
"942 276 LINE",
"968 440 LINE",
"606 440 LINE",
"666 381 LINE",
"653 584 LINE",
"592 541 LINE",
"1007 541 LINE",
"1033 705 LINE",
"454 705 LINE",
"-113 0 LINE"
);
},
{
closed = 1;
nodes = (
"301 243 LINE",
"513 523 LINE",
"476 523 LINE",
"495 235 LINE",
"546 295 LINE",
"300 295 LINE"
);
}
);
width = 1014;
}
);
leftKerningGroup = A;
rightKerningGroup = E;
rightMetricsKey = E;
unicode = 00C6;
userData = {
com.typemytype.robofont.layerData = {
b = {
anchors = (
);
components = (
);
contours = (
);
lib = {
};
name = AE;
unicodes = (
);
width = 1976;
};
};
};
},
{
color = 3;
glyphname = B;
lastChange = "2019-09-12 08:06:30 +0000";
layers = (
{
anchors = (
{
name = bottom;
position = "{300, 0}";
},
{
name = top;
position = "{411, 705}";
}
);
background = {
paths = (
{
closed = 1;
nodes = (
"346 0 LINE SMOOTH",
"503 0 OFFCURVE",
"588 70 OFFCURVE",
"588 207 CURVE SMOOTH",
"588 288 OFFCURVE",
"534 347 OFFCURVE",
"448 361 CURVE",
"448 349 LINE",
"556 365 OFFCURVE",
"625 436 OFFCURVE",
"625 541 CURVE SMOOTH",
"625 643 OFFCURVE",
"555 705 OFFCURVE",
"417 705 CURVE SMOOTH",
"170 705 LINE",
"58 0 LINE"
);
},
{
closed = 1;
nodes = (
"206 666 LINE",
"414 666 LINE SMOOTH",
"527 666 OFFCURVE",
"581 622 OFFCURVE",
"581 540 CURVE SMOOTH",
"581 435 OFFCURVE",
"505 376 OFFCURVE",
"387 376 CURVE SMOOTH",
"150 376 LINE",
"144 337 LINE",
"379 337 LINE SMOOTH",
"485 337 OFFCURVE",
"544 292 OFFCURVE",
"544 206 CURVE SMOOTH",
"544 96 OFFCURVE",
"479 39 OFFCURVE",
"350 39 CURVE SMOOTH",
"106 39 LINE"
);
}
);
};
guideLines = (
{
position = "{324, 220}";
showMeasurement = 1;
}
);
layerId = "F1F93986-3ED8-4AAE-84C4-CA3EEECDDFA0";
paths = (
{
closed = 1;
nodes = (
"346 0 LINE SMOOTH",
"503 0 OFFCURVE",
"588 70 OFFCURVE",
"588 207 CURVE SMOOTH",
"588 290 OFFCURVE",
"532 349 OFFCURVE",
"443 363 CURVE",
"443 349 LINE",
"554 363 OFFCURVE",
"625 434 OFFCURVE",
"625 541 CURVE SMOOTH",
"625 643 OFFCURVE",
"555 705 OFFCURVE",
"417 705 CURVE SMOOTH",
"170 705 LINE",
"58 0 LINE"
);
},
{
closed = 1;
nodes = (
"154 337 LINE",
"379 337 LINE SMOOTH",
"485 337 OFFCURVE",
"544 292 OFFCURVE",
"544 206 CURVE SMOOTH",
"544 96 OFFCURVE",
"479 39 OFFCURVE",
"350 39 CURVE SMOOTH",
"107 39 LINE"
);
},
{
closed = 1;
nodes = (
"206 666 LINE",
"414 666 LINE SMOOTH",
"527 666 OFFCURVE",
"581 622 OFFCURVE",
"581 540 CURVE SMOOTH",
"581 435 OFFCURVE",
"505 376 OFFCURVE",
"387 376 CURVE SMOOTH",
"160 376 LINE"
);
}
);
width = 666;
},
{
anchors = (
{
name = bottom;
position = "{315, 0}";
},
{
name = top;
position = "{426, 705}";
}
);
background = {
paths = (
{
closed = 1;
nodes = (
"397 0 LINE SMOOTH",
"561 0 OFFCURVE",
"668 76 OFFCURVE",
"668 212 CURVE SMOOTH",
"668 288 OFFCURVE",
"624 348 OFFCURVE",
"545 369 CURVE",
"542 357 LINE",
"635 377 OFFCURVE",
"699 440 OFFCURVE",
"699 534 CURVE SMOOTH",
"699 628 OFFCURVE",
"636 705 OFFCURVE",
"463 705 CURVE SMOOTH",
"130 705 LINE",
"18 0 LINE"
);
},
{
closed = 1;
nodes = (
"310 549 LINE",
"426 549 LINE SMOOTH",
"475 549 OFFCURVE",
"495 533 OFFCURVE",
"495 505 CURVE SMOOTH",
"495 458 OFFCURVE",
"467 436 OFFCURVE",
"406 436 CURVE SMOOTH",
"276 436 LINE",
"252 280 LINE",
"393 280 LINE SMOOTH",
"440 280 OFFCURVE",
"465 263 OFFCURVE",
"465 227 CURVE SMOOTH",
"465 183 OFFCURVE",
"439 156 OFFCURVE",
"383 156 CURVE SMOOTH",
"248 156 LINE"
);
}
);
};
guideLines = (
{
position = "{298, 541}";
showMeasurement = 1;
}
);
layerId = "4121B50C-FD42-45C5-8FBE-41E76D98F91E";
paths = (
{
closed = 1;
nodes = (
"397 0 LINE SMOOTH",
"561 0 OFFCURVE",
"668 76 OFFCURVE",
"668 212 CURVE SMOOTH",
"668 293 OFFCURVE",
"619 355 OFFCURVE",
"532 372 CURVE",
"532 355 LINE",
"630 373 OFFCURVE",
"699 437 OFFCURVE",
"699 534 CURVE SMOOTH",
"699 628 OFFCURVE",
"636 705 OFFCURVE",
"463 705 CURVE SMOOTH",
"130 705 LINE",
"18 0 LINE"
);
},
{
closed = 1;
nodes = (
"268 280 LINE",
"393 280 LINE SMOOTH",
"440 280 OFFCURVE",
"465 263 OFFCURVE",
"465 227 CURVE SMOOTH",
"465 183 OFFCURVE",
"439 156 OFFCURVE",
"383 156 CURVE SMOOTH",
"248 156 LINE"
);
},
{
closed = 1;
nodes = (
"310 549 LINE",
"426 549 LINE SMOOTH",
"475 549 OFFCURVE",
"495 533 OFFCURVE",
"495 505 CURVE SMOOTH",
"495 458 OFFCURVE",
"467 436 OFFCURVE",
"406 436 CURVE SMOOTH",
"292 436 LINE"
);
}
);
width = 710;
}
);
leftKerningGroup = H;
leftMetricsKey = H;
rightKerningGroup = B;
unicode = 0042;
userData = {
anchors = (
);
b = {
};
com.typemytype.robofont.layerData = {
b = {
anchors = (
);
components = (
);
contours = (
{
points = (
{
segmentType = curve;
smooth = 1;
x = 266;
y = 0;
},
{
segmentType = line;
smooth = 1;
x = 1035;
y = 0;
},
{
smooth = 0;
x = 1084;
y = 0;
},
{
smooth = 0;
x = 1108;
y = 36;
},
{
segmentType = curve;
smooth = 1;
x = 1108;
y = 73;
},
{
smooth = 0;
x = 1108;
y = 109;
},
{
smooth = 0;
x = 1084;
y = 145;
},
{
segmentType = curve;
smooth = 1;
x = 1035;
y = 145;
},
{
segmentType = line;
smooth = 0;
x = 353;
y = 145;
},
{
segmentType = line;
smooth = 0;
x = 353;
y = 662;
},
{
segmentType = line;
smooth = 1;
x = 975;
y = 662;
},
{
smooth = 0;
x = 1024;
y = 662;
},
{
smooth = 0;
x = 1049;
y = 698;
},
{
segmentType = curve;
smooth = 1;
x = 1049;
y = 734;
},
{
smooth = 0;
x = 1049;
y = 770;
},
{
smooth = 0;
x = 1026;
y = 806;
},
{
segmentType = curve;
smooth = 1;
x = 975;
y = 806;
},
{
segmentType = line;
smooth = 0;
x = 353;
y = 806;
},
{
segmentType = line;
smooth = 0;
x = 353;
y = 1281;
},
{
segmentType = line;
smooth = 1;
x = 1007;
y = 1281;
},
{
smooth = 0;
x = 1056;
y = 1281;
},
{
smooth = 0;
x = 1080;
y = 1317;
},
{
segmentType = curve;
smooth = 1;
x = 1080;
y = 1354;
},
{
smooth = 0;
x = 1080;
y = 1390;
},
{
smooth = 0;
x = 1056;
y = 1426;
},
{
segmentType = curve;
smooth = 1;
x = 1007;
y = 1426;
},
{
segmentType = line;
smooth = 1;
x = 261;
y = 1426;
},
{
smooth = 0;
x = 213;
y = 1426;
},
{
smooth = 0;
x = 178;
y = 1383;
},
{
segmentType = curve;
smooth = 1;
x = 178;
y = 1340;
},
{
segmentType = line;
smooth = 1;
x = 178;
y = 86;
},
{
smooth = 0;
x = 178;
y = 41;
},
{
smooth = 0;
x = 222;
y = 0;
}
);
}
);
lib = {
};
name = B;
unicodes = (
);
width = 1292;
};
};
components = (
);
contours = {
};
lib = {
};
name = B;
points = {
};
segmentType = curve;
unicodes = (
);
width = 1395;
x = 676;
y = 1260;
};
},
{
color = 3;
glyphname = C;
lastChange = "2019-10-08 13:03:23 +0000";
layers = (
{
anchors = (
{
name = bottom;
position = "{342, 0}";
},
{
name = top;
position = "{441, 705}";
}
);
background = {
paths = (
{
closed = 1;
nodes = (
"439 -8 OFFCURVE",
"526 24 OFFCURVE",
"594 87 CURVE",
"578 122 LINE",
"505 59 OFFCURVE",
"435 33 OFFCURVE",
"347 33 CURVE SMOOTH",
"175 33 OFFCURVE",
"97 150 OFFCURVE",
"129 353 CURVE SMOOTH",
"161 555 OFFCURVE",
"276 672 OFFCURVE",
"448 672 CURVE SMOOTH",
"536 672 OFFCURVE",
"598 646 OFFCURVE",
"651 583 CURVE",
"678 618 LINE",
"630 681 OFFCURVE",
"553 713 OFFCURVE",
"455 713 CURVE SMOOTH",
"257 713 OFFCURVE",
"120 576 OFFCURVE",
"84 353 CURVE SMOOTH",
"49 129 OFFCURVE",
"143 -8 OFFCURVE",
"341 -8 CURVE SMOOTH"
);
}
);
};
guideLines = (
{
angle = 81;
position = "{622, 398}";
}
);
layerId = "F1F93986-3ED8-4AAE-84C4-CA3EEECDDFA0";
paths = (
{
closed = 1;
nodes = (
"466 -8 OFFCURVE",
"537 21 OFFCURVE",
"603 87 CURVE",
"579 121 LINE",
"513 56 OFFCURVE",
"455 33 OFFCURVE",
"376 33 CURVE SMOOTH",
"225 33 OFFCURVE",
"127 116 OFFCURVE",
"127 289 CURVE SMOOTH",
"127 525 OFFCURVE",
"244 672 OFFCURVE",
"430 672 CURVE SMOOTH",
"519 672 OFFCURVE",
"582 644 OFFCURVE",
"637 583 CURVE",
"662 618 LINE",
"610 678 OFFCURVE",
"531 713 OFFCURVE",
"433 713 CURVE SMOOTH",
"218 713 OFFCURVE",
"82 545 OFFCURVE",
"82 289 CURVE SMOOTH",
"82 96 OFFCURVE",
"200 -8 OFFCURVE",
"373 -8 CURVE SMOOTH"
);
}
);
width = 667;
},
{
anchors = (
{
name = bottom;
position = "{373, 0}";
},
{
name = top;
position = "{451, 705}";
}
);
background = {
anchors = (
{
name = Qtail;
position = "{374, -12}";
},
{
name = bottom;
position = "{376, 0}";
},
{
name = center;
position = "{432, 353}";
},
{
name = ogonek;
position = "{440, 0}";
},
{
name = top;
position = "{486, 705}";
},
{
name = topleft;
position = "{104, 705}";
},
{
name = topright;
position = "{551, 705}";
}
);
paths = (
{
closed = 1;
nodes = (
"635 -12 OFFCURVE",
"796 151 OFFCURVE",
"796 397 CURVE SMOOTH",
"796 597 OFFCURVE",
"658 717 OFFCURVE",
"449 717 CURVE SMOOTH",
"219 717 OFFCURVE",
"58 554 OFFCURVE",
"58 308 CURVE SMOOTH",
"58 108 OFFCURVE",
"196 -12 OFFCURVE",
"404 -12 CURVE SMOOTH"
);
},
{
closed = 1;
nodes = (
"329 167 OFFCURVE",
"281 214 OFFCURVE",
"281 312 CURVE SMOOTH",
"281 448 OFFCURVE",
"343 538 OFFCURVE",
"446 538 CURVE SMOOTH",
"524 538 OFFCURVE",
"573 491 OFFCURVE",
"573 393 CURVE SMOOTH",
"573 257 OFFCURVE",
"510 167 OFFCURVE",
"407 167 CURVE SMOOTH"
);
}
);
};
guideLines = (
{
angle = 81;
position = "{619, 387}";
},
{
angle = 81;
position = "{699, 387}";
},
{
angle = 244.946;
position = "{668, 560}";
}
);
layerId = "4121B50C-FD42-45C5-8FBE-41E76D98F91E";
paths = (
{
closed = 1;
nodes = (
"493 -12 OFFCURVE",
"596 14 OFFCURVE",
"650 54 CURVE",
"599 223 LINE",
"540 189 OFFCURVE",
"484 175 OFFCURVE",
"439 175 CURVE SMOOTH",
"328 175 OFFCURVE",
"286 223 OFFCURVE",
"286 324 CURVE SMOOTH",
"286 437 OFFCURVE",
"341 530 OFFCURVE",
"464 530 CURVE SMOOTH",
"517 530 OFFCURVE",
"576 510 OFFCURVE",
"628 475 CURVE",
"707 644 LINE",
"658 685 OFFCURVE",
"564 717 OFFCURVE",
"468 717 CURVE SMOOTH",
"200 717 OFFCURVE",
"59 539 OFFCURVE",
"59 315 CURVE SMOOTH",
"59 102 OFFCURVE",
"211 -12 OFFCURVE",
"412 -12 CURVE SMOOTH"
);
}
);
width = 692;
}
);
leftKerningGroup = O;
leftMetricsKey = O;
rightKerningGroup = C;
unicode = 0043;
userData = {
anchors = (
);
b = {
};
com.typemytype.robofont.layerData = {
b = {
anchors = (
);
components = (
);
contours = (
);
lib = {
};
name = C;
unicodes = (
);
width = 1353.89001;
};
};
components = (
);
contours = (
);
lib = {
};
name = C;
unicodes = (
);
width = 1354;
};
},
{
color = 3;
glyphname = D;
lastChange = "2019-10-08 12:54:04 +0000";
layers = (
{
anchors = (
{
name = bottom;
position = "{325, 0}";
},
{
name = center;
position = "{192, 358}";
},
{
name = top;
position = "{426, 705}";
}
);
background = {
paths = (
{
closed = 1;
nodes = (
"1203 0 LINE SMOOTH",
"1462 0 OFFCURVE",
"1578 190 OFFCURVE",
"1578 417 CURVE SMOOTH",
"1578 600 OFFCURVE",
"1463 705 OFFCURVE",
"1263 705 CURVE SMOOTH",
"1070 705 LINE",
"958 0 LINE"
);
},
{
closed = 1;
nodes = (
"1105 666 LINE",
"1258 666 LINE SMOOTH",
"1440 666 OFFCURVE",
"1533 578 OFFCURVE",
"1533 418 CURVE SMOOTH",
"1533 215 OFFCURVE",
"1440 39 OFFCURVE",
"1205 39 CURVE SMOOTH",
"1006 39 LINE"
);
},
{
closed = 1;
nodes = (
"559 -8 OFFCURVE",
"678 179 OFFCURVE",
"678 416 CURVE SMOOTH",
"678 609 OFFCURVE",
"571 713 OFFCURVE",
"403 713 CURVE SMOOTH",
"175 713 OFFCURVE",
"56 526 OFFCURVE",
"56 289 CURVE SMOOTH",
"56 96 OFFCURVE",
"163 -8 OFFCURVE",
"331 -8 CURVE SMOOTH"
);
},
{
closed = 1;
nodes = (
"188 33 OFFCURVE",
"101 116 OFFCURVE",
"101 289 CURVE SMOOTH",
"101 507 OFFCURVE",
"206 672 OFFCURVE",
"400 672 CURVE SMOOTH",
"546 672 OFFCURVE",
"633 589 OFFCURVE",
"633 416 CURVE SMOOTH",
"633 199 OFFCURVE",
"528 33 OFFCURVE",
"333 33 CURVE SMOOTH"
);
}
);
};
layerId = "F1F93986-3ED8-4AAE-84C4-CA3EEECDDFA0";
paths = (
{
closed = 1;
nodes = (
"283 0 LINE SMOOTH",
"562 0 OFFCURVE",
"678 190 OFFCURVE",
"678 416 CURVE SMOOTH",
"678 600 OFFCURVE",
"563 705 OFFCURVE",
"359 705 CURVE SMOOTH",
"170 705 LINE",
"58 0 LINE"
);
},
{
closed = 1;
nodes = (
"205 666 LINE",
"358 666 LINE SMOOTH",
"541 666 OFFCURVE",
"633 578 OFFCURVE",
"633 416 CURVE SMOOTH",
"633 215 OFFCURVE",
"540 39 OFFCURVE",
"285 39 CURVE SMOOTH",
"106 39 LINE"
);
}
);
width = 725;
},
{
anchors = (
{
name = bottom;
position = "{365, 0}";
},
{
name = center;
position = "{230, 358}";
},
{
name = top;
position = "{459, 705}";
}
);
background = {
anchors = (
{
name = Qtail;
position = "{367, -12}";
},
{
name = bottom;
position = "{355, 0}";
},
{
name = center;
position = "{411, 353}";
},
{
name = ogonek;
position = "{419, 0}";
},
{
name = top;
position = "{465, 705}";
},
{
name = topleft;
position = "{83, 705}";
},
{
name = topright;
position = "{530, 705}";
}
);
paths = (
{
closed = 1;
nodes = (
"614 -12 OFFCURVE",
"775 151 OFFCURVE",
"775 397 CURVE SMOOTH",
"775 597 OFFCURVE",
"637 717 OFFCURVE",
"428 717 CURVE SMOOTH",
"198 717 OFFCURVE",
"37 554 OFFCURVE",
"37 308 CURVE SMOOTH",
"37 108 OFFCURVE",
"175 -12 OFFCURVE",
"383 -12 CURVE SMOOTH"
);
},
{
closed = 1;
nodes = (
"308 167 OFFCURVE",
"260 214 OFFCURVE",
"260 312 CURVE SMOOTH",
"260 448 OFFCURVE",
"322 538 OFFCURVE",
"425 538 CURVE SMOOTH",
"503 538 OFFCURVE",
"552 491 OFFCURVE",
"552 393 CURVE SMOOTH",
"552 257 OFFCURVE",
"489 167 OFFCURVE",
"386 167 CURVE SMOOTH"
);
}
);
};
layerId = "4121B50C-FD42-45C5-8FBE-41E76D98F91E";
paths = (
{
closed = 1;
nodes = (
"363 0 LINE SMOOTH",
"626 0 OFFCURVE",
"776 164 OFFCURVE",
"775 392 CURVE SMOOTH",
"774 587 OFFCURVE",
"637 705 OFFCURVE",
"393 705 CURVE SMOOTH",
"130 705 LINE",
"18 0 LINE"
);
},
{
closed = 1;
nodes = (
"318 531 LINE",
"393 531 LINE SMOOTH",
"498 531 OFFCURVE",
"552 481 OFFCURVE",
"552 388 CURVE SMOOTH",
"552 250 OFFCURVE",
"483 174 OFFCURVE",
"365 174 CURVE SMOOTH",
"260 174 LINE"
);
}
);
width = 800;
}
);
leftKerningGroup = H;
leftMetricsKey = H;
rightKerningGroup = O;
unicode = 0044;
userData = {
anchors = (
);
b = {
};
com.typemytype.robofont.layerData = {
b = {
anchors = (
);
components = (
);
contours = (
{
points = (
{
segmentType = curve;
smooth = 1;
x = 266;
y = 0;
},
{
segmentType = line;
smooth = 1;
x = 1035;
y = 0;
},
{
smooth = 0;
x = 1084;
y = 0;
},
{
smooth = 0;
x = 1108;
y = 34;
},
{
segmentType = curve;
smooth = 1;
x = 1108;
y = 71;
},
{
smooth = 0;
x = 1108;
y = 107;
},
{
smooth = 0;
x = 1084;
y = 141;
},
{
segmentType = curve;
smooth = 1;
x = 1035;
y = 141;
},
{
segmentType = line;
smooth = 0;
x = 356;
y = 141;
},
{
segmentType = line;
smooth = 0;
x = 356;
y = 665;
},
{
segmentType = line;
smooth = 1;
x = 975;
y = 665;
},
{
smooth = 0;
x = 1024;
y = 665;
},
{
smooth = 0;
x = 1049;
y = 698;
},
{
segmentType = curve;
smooth = 1;
x = 1049;
y = 734;
},
{
smooth = 0;
x = 1049;
y = 770;
},
{
smooth = 0;
x = 1026;
y = 803;
},
{
segmentType = curve;
smooth = 1;
x = 975;
y = 803;
},
{
segmentType = line;
smooth = 0;
x = 356;
y = 803;
},
{
segmentType = line;
smooth = 0;
x = 356;
y = 1285;
},
{
segmentType = line;
smooth = 1;
x = 1007;
y = 1285;
},
{
smooth = 0;
x = 1056;
y = 1285;
},
{
smooth = 0;
x = 1080;
y = 1319;
},
{
segmentType = curve;
smooth = 1;
x = 1080;
y = 1356;
},
{
smooth = 0;
x = 1080;
y = 1392;
},
{
smooth = 0;
x = 1056;
y = 1426;
},
{
segmentType = curve;
smooth = 1;
x = 1007;
y = 1426;
},
{
segmentType = line;
smooth = 1;
x = 261;
y = 1426;
},
{
smooth = 0;
x = 213;
y = 1426;
},
{
smooth = 0;
x = 178;
y = 1383;
},
{
segmentType = curve;
smooth = 1;
x = 178;
y = 1340;
},
{
segmentType = line;
smooth = 1;
x = 178;
y = 86;
},
{
smooth = 0;
x = 178;
y = 41;
},
{
smooth = 0;
x = 222;
y = 0;
}
);
}
);
lib = {
};
name = D;
unicodes = (
);
width = 1499;
};
};
components = (
);
contours = (
);
lib = {
};
name = D;
unicodes = (
);
width = 1535;
};
},
{
color = 3;
glyphname = E;
lastChange = "2019-10-08 11:40:42 +0000";
layers = (
{
anchors = (
{
name = bottom;
position = "{289, 0}";
},
{
name = ogonek;
position = "{452, 0}";
},
{
name = top;
position = "{390, 705}";
},
{
name = topleft;
position = "{101, 705}";
}
);
background = {
anchors = (
{
name = bottom;
position = "{281, 0}";
},
{
name = ogonek;
position = "{451, 0}";
},
{
name = top;
position = "{393, 705}";
},
{
name = topleft;
position = "{100, 705}";
}
);
paths = (
{
closed = 1;
nodes = (
"593 705 LINE",
"169 705 LINE",
"57 0 LINE",
"481 0 LINE",
"488 39 LINE",
"106 39 LINE",
"153 338 LINE",
"515 338 LINE",
"521 377 LINE",
"159 377 LINE",
"205 666 LINE",
"587 666 LINE"
);
}
);
};
layerId = "F1F93986-3ED8-4AAE-84C4-CA3EEECDDFA0";
paths = (
{
closed = 1;
nodes = (
"482 0 LINE",
"488 39 LINE",
"106 39 LINE",
"153 338 LINE",
"516 338 LINE",
"522 377 LINE",
"160 377 LINE",
"206 666 LINE",
"588 666 LINE",
"594 705 LINE",
"170 705 LINE",
"58 0 LINE"
);
}
);
width = 570;
},
{
anchors = (
{
name = bottom;
position = "{300, 0}";
},
{
name = ogonek;
position = "{502, 0}";
},
{
name = top;
position = "{405, 705}";
},
{
name = topleft;
position = "{90, 705}";
}
);
background = {
anchors = (
{
name = bottom;
position = "{297, 0}";
},
{
name = ogonek;
position = "{502, 0}";
},
{
name = top;
position = "{408, 705}";
},
{
name = topleft;
position = "{90, 705}";
}
);
paths = (
{
closed = 1;
nodes = (
"643 705 LINE",
"129 705 LINE",
"18 0 LINE",
"532 0 LINE",
"558 164 LINE",
"249 164 LINE",
"266 276 LINE",
"552 276 LINE",
"578 440 LINE",
"292 440 LINE",
"308 541 LINE",
"617 541 LINE"
);
}
);
};
guideLines = (
{
position = "{276, 0}";
}
);
layerId = "4121B50C-FD42-45C5-8FBE-41E76D98F91E";
paths = (
{
closed = 1;
nodes = (
"532 0 LINE",
"558 164 LINE",
"249 164 LINE",
"267 276 LINE",
"553 276 LINE",
"579 440 LINE",
"293 440 LINE",
"309 541 LINE",
"618 541 LINE",
"644 705 LINE",
"130 705 LINE",
"19 0 LINE"
);
}
);
width = 624;
}
);
leftKerningGroup = H;
leftMetricsKey = H;
rightKerningGroup = E;
unicode = 0045;
userData = {
anchors = (
);
b = {
};
com.typemytype.robofont.layerData = {
b = {
anchors = (
);
components = (
);
contours = (
);
lib = {
};
name = E;
unicodes = (
);
width = 1234;
};
};
components = (
);
contours = (
);
lib = {
};
name = E;
unicodes = (
);
width = 1258;
};
},
{
color = 3;
glyphname = F;
lastChange = "2019-09-12 08:06:30 +0000";
layers = (
{
anchors = (
{
name = bottom;
position = "{255, 0}";
},
{
name = top;
position = "{367, 705}";
}
);
background = {
anchors = (
{
name = bottom;
position = "{254, 0}";
},
{
name = top;
position = "{366, 705}";
}
);
paths = (
{
closed = 1;
nodes = (
"583 705 LINE",
"169 705 LINE",
"57 0 LINE",
"99 0 LINE",
"153 338 LINE",
"505 338 LINE",
"511 377 LINE",
"159 377 LINE",
"205 666 LINE",
"577 666 LINE"
);
}
);
};
layerId = "F1F93986-3ED8-4AAE-84C4-CA3EEECDDFA0";
paths = (
{
closed = 1;
nodes = (
"100 0 LINE",
"154 338 LINE",
"506 338 LINE",
"512 377 LINE",
"160 377 LINE",
"206 666 LINE",
"578 666 LINE",
"584 705 LINE",
"170 705 LINE",
"58 0 LINE"
);
}
);
width = 536;
},
{
anchors = (
{
name = bottom;
position = "{266, 0}";
},
{
name = top;
position = "{383, 705}";
}
);
background = {
anchors = (
{
name = bottom;
position = "{267, 0}";
},
{
name = top;
position = "{384, 705}";
}
);
paths = (
{
closed = 1;
nodes = (
"638 705 LINE",
"129 705 LINE",
"18 0 LINE",
"233 0 LINE",
"275 267 LINE",
"546 267 LINE",
"572 431 LINE",
"301 431 LINE",
"318 541 LINE",
"612 541 LINE"
);
}
);
};
layerId = "4121B50C-FD42-45C5-8FBE-41E76D98F91E";
paths = (
{
closed = 1;
nodes = (
"234 0 LINE",
"276 267 LINE",
"547 267 LINE",
"573 431 LINE",
"302 431 LINE",
"319 541 LINE",
"613 541 LINE",
"639 705 LINE",
"130 705 LINE",
"19 0 LINE"
);
}
);
width = 588;
}
);
leftKerningGroup = H;
leftMetricsKey = H;
rightKerningGroup = F;
unicode = 0046;
userData = {
anchors = (
);
b = {
};
com.typemytype.robofont.layerData = {
b = {
anchors = (
);
components = (
);
contours = (
{
points = (
{
segmentType = curve;
smooth = 1;
x = 266;
y = 0;
},
{
segmentType = line;
smooth = 1;
x = 1035;
y = 0;
},
{
smooth = 0;
x = 1084;
y = 0;
},
{
smooth = 0;
x = 1108;
y = 34;
},
{
segmentType = curve;
smooth = 1;
x = 1108;
y = 71;
},
{
smooth = 0;
x = 1108;
y = 107;
},
{
smooth = 0;
x = 1084;
y = 141;
},
{
segmentType = curve;
smooth = 1;
x = 1035;
y = 141;
},
{
segmentType = line;
smooth = 0;
x = 353;
y = 141;
},
{
segmentType = line;
smooth = 0;
x = 353;
y = 665;
},
{
segmentType = line;
smooth = 1;
x = 975;
y = 665;
},
{
smooth = 0;
x = 1024;
y = 665;
},
{
smooth = 0;
x = 1049;
y = 698;
},
{
segmentType = curve;
smooth = 1;
x = 1049;
y = 734;
},
{
smooth = 0;
x = 1049;
y = 770;
},
{
smooth = 0;
x = 1026;
y = 803;
},
{
segmentType = curve;
smooth = 1;
x = 975;
y = 803;
},
{
segmentType = line;
smooth = 0;
x = 353;
y = 803;
},
{
segmentType = line;
smooth = 0;
x = 353;
y = 1285;
},
{
segmentType = line;
smooth = 1;
x = 1007;
y = 1285;
},
{
smooth = 0;
x = 1056;
y = 1285;
},
{
smooth = 0;
x = 1080;
y = 1319;
},
{
segmentType = curve;
smooth = 1;
x = 1080;
y = 1356;
},
{
smooth = 0;
x = 1080;
y = 1392;
},
{
smooth = 0;
x = 1056;
y = 1426;
},
{
segmentType = curve;
smooth = 1;
x = 1007;
y = 1426;
},
{
segmentType = line;
smooth = 1;
x = 261;
y = 1426;
},
{
smooth = 0;
x = 213;
y = 1426;
},
{
smooth = 0;
x = 178;
y = 1383;
},
{
segmentType = curve;
smooth = 1;
x = 178;
y = 1340;
},
{
segmentType = line;
smooth = 1;
x = 178;
y = 86;
},
{
smooth = 0;
x = 178;
y = 41;
},
{
smooth = 0;
x = 222;
y = 0;
}
);
}
);
lib = {
};
name = F;
unicodes = (
);
width = 1142;
};
};
components = (
);
contours = (
);
lib = {
};
name = F;
unicodes = (
);
width = 1175;
};
},
{
color = 3;
glyphname = G;
lastChange = "2019-10-08 13:03:37 +0000";
layers = (
{
anchors = (
{
name = bottom;
position = "{354, 0}";
},
{
name = top;
position = "{434, 705}";
}
);
background = {
anchors = (
{
name = bottom;
position = "{351, 0}";
},
{
name = top;
position = "{456, 705}";
}
);
paths = (
{
closed = 1;
nodes = (
"466 -8 OFFCURVE",
"537 21 OFFCURVE",
"603 87 CURVE",
"579 121 LINE",
"513 56 OFFCURVE",
"455 33 OFFCURVE",
"376 33 CURVE SMOOTH",
"225 33 OFFCURVE",
"127 116 OFFCURVE",
"127 289 CURVE SMOOTH",
"127 525 OFFCURVE",
"244 672 OFFCURVE",
"430 672 CURVE SMOOTH",
"519 672 OFFCURVE",
"582 644 OFFCURVE",
"637 583 CURVE",
"662 618 LINE",
"610 678 OFFCURVE",
"531 713 OFFCURVE",
"433 713 CURVE SMOOTH",
"218 713 OFFCURVE",
"82 545 OFFCURVE",
"82 289 CURVE SMOOTH",
"82 96 OFFCURVE",
"200 -8 OFFCURVE",
"373 -8 CURVE SMOOTH"
);
}
);
};
layerId = "F1F93986-3ED8-4AAE-84C4-CA3EEECDDFA0";
paths = (
{
closed = 1;
nodes = (
"463 -8 OFFCURVE",
"547 10 OFFCURVE",
"595 32 CURVE",
"646 355 LINE",
"412 355 LINE",
"406 316 LINE",
"600 316 LINE",
"555 35 LINE",
"573 68 LINE",
"520 48 OFFCURVE",
"462 33 OFFCURVE",
"386 33 CURVE SMOOTH",
"215 33 OFFCURVE",
"127 116 OFFCURVE",
"127 289 CURVE SMOOTH",
"127 525 OFFCURVE",
"244 672 OFFCURVE",
"430 672 CURVE SMOOTH",
"521 672 OFFCURVE",
"585 644 OFFCURVE",
"642 583 CURVE",
"667 618 LINE",
"613 678 OFFCURVE",
"533 713 OFFCURVE",
"433 713 CURVE SMOOTH",
"218 713 OFFCURVE",
"82 545 OFFCURVE",
"82 289 CURVE SMOOTH",
"82 96 OFFCURVE",
"190 -8 OFFCURVE",
"384 -8 CURVE SMOOTH"
);
}
);
width = 718;
},
{
anchors = (
{
name = bottom;
position = "{407, 0}";
},
{
name = top;
position = "{460, 705}";
}
);
background = {
components = (
{
name = C;
}
);
};
layerId = "4121B50C-FD42-45C5-8FBE-41E76D98F91E";
paths = (
{
closed = 1;
nodes = (
"495 -12 OFFCURVE",
"592 1 OFFCURVE",
"672 39 CURVE",
"730 406 LINE",
"426 406 LINE",
"403 258 LINE",
"533 258 LINE",
"509 110 LINE",
"556 185 LINE",
"515 173 OFFCURVE",
"476 167 OFFCURVE",
"445 167 CURVE SMOOTH",
"345 167 OFFCURVE",
"281 216 OFFCURVE",
"281 326 CURVE SMOOTH",
"281 429 OFFCURVE",
"345 534 OFFCURVE",
"476 534 CURVE SMOOTH",
"537 534 OFFCURVE",
"598 516 OFFCURVE",
"652 483 CURVE",
"730 650 LINE",
"688 685 OFFCURVE",
"596 717 OFFCURVE",
"486 717 CURVE SMOOTH",
"207 717 OFFCURVE",
"59 539 OFFCURVE",
"59 317 CURVE SMOOTH",
"59 103 OFFCURVE",
"213 -12 OFFCURVE",
"412 -12 CURVE SMOOTH"
);
}
);
width = 754;
}
);
leftKerningGroup = O;
leftMetricsKey = O;
rightKerningGroup = G;
unicode = 0047;
userData = {
anchors = (
);
b = {
};
com.typemytype.robofont.layerData = {
b = {
anchors = (
);
components = (
);
contours = (
{
points = (
{
segmentType = curve;
smooth = 1;
x = 783;
y = "-22";
},
{
smooth = 0;
x = 965;
y = "-22";
},
{
smooth = 0;
x = 1086;
y = 34;
},
{
segmentType = curve;
smooth = 1;
x = 1166;
y = 86;
},
{
smooth = 0;
x = 1270;
y = 154;
},
{
smooth = 0;
x = 1186;
y = 258;
},
{
segmentType = curve;
smooth = 1;
x = 1112;
y = 214;
},
{
smooth = 0;
x = 1024;
y = 162;
},
{
smooth = 0;
x = 939;
y = 120;
},
{
segmentType = curve;
smooth = 1;
x = 806;
y = 120;
},
{
smooth = 0;
x = 446;
y = 120;
},
{
smooth = 0;
x = 316;
y = 406;
},
{
segmentType = curve;
smooth = 1;
x = 316;
y = 706;
},
{
smooth = 0;
x = 316;
y = 1005;
},
{
smooth = 0;
x = 450;
y = 1296;
},
{
segmentType = curve;
smooth = 1;
x = 801;
y = 1296;
},
{
smooth = 0;
x = 980;
y = 1296;
},
{
smooth = 0;
x = 1053;
y = 1246;
},
{
segmentType = curve;
smooth = 1;
x = 1094;
y = 1225;
},
{
smooth = 0;
x = 1174;
y = 1184;
},
{
smooth = 0;
x = 1231;
y = 1300;
},
{
segmentType = curve;
smooth = 1;
x = 1156;
y = 1343;
},
{
smooth = 0;
x = 1106;
y = 1372;
},
{
smooth = 0;
x = 995;
y = 1438;
},
{
segmentType = curve;
smooth = 1;
x = 797;
y = 1438;
},
{
smooth = 0;
x = 359;
y = 1438;
},
{
smooth = 0;
x = 128;
y = 1093;
},
{
segmentType = curve;
smooth = 1;
x = 128;
y = 704;
},
{
smooth = 0;
x = 128;
y = 307;
},
{
smooth = 0;
x = 350;
y = "-22";
}
);
}
);
lib = {
};
name = G;
unicodes = (
);
width = 1448;
};
};
components = (
);
contours = (
);
lib = {
};
name = G;
unicodes = (
);
width = 1538;
};
},
{
color = 3;
glyphname = H;
lastChange = "2019-10-08 10:30:40 +0000";
layers = (
{
anchors = (
{
name = bottom;
position = "{342, 0}";
},
{
name = center;
position = "{424, 546}";
},
{
name = top;
position = "{448, 705}";
},
{
name = topleft;
position = "{100, 705}";
}
);
background = {
anchors = (
{
name = bottom;
position = "{337, 0}";
},
{
name = center;
position = "{424, 546}";
},
{
name = top;
position = "{448, 705}";
},
{
name = topleft;
position = "{100, 705}";
}
);
paths = (
{
closed = 1;
nodes = (
"634 377 LINE",
"159 377 LINE",
"211 705 LINE",
"169 705 LINE",
"57 0 LINE",
"99 0 LINE",
"153 338 LINE",
"628 338 LINE",
"574 0 LINE",
"616 0 LINE",
"728 705 LINE",
"686 705 LINE"
);
}
);
};
layerId = "F1F93986-3ED8-4AAE-84C4-CA3EEECDDFA0";
paths = (
{
closed = 1;
nodes = (
"574 0 LINE",
"616 0 LINE",
"728 705 LINE",
"686 705 LINE"
);
},
{
closed = 1;
nodes = (
"212 705 LINE",
"170 705 LINE",
"58 0 LINE",
"100 0 LINE"
);
},
{
closed = 1;
nodes = (
"645 377 LINE",
"150 377 LINE",
"143 338 LINE",
"638 338 LINE"
);
}
);
width = 751;
},
{
anchors = (
{
name = bottom;
position = "{365, 0}";
},
{
name = center;
position = "{450, 575}";
},
{
name = top;
position = "{468, 705}";
},
{
name = topleft;
position = "{91, 705}";
}
);
background = {
anchors = (
{
name = bottom;
position = "{358, 0}";
},
{
name = center;
position = "{449, 575}";
},
{
name = top;
position = "{469, 705}";
},
{
name = topleft;
position = "{90, 705}";
}
);
paths = (
{
closed = 1;
nodes = (
"553 445 LINE",
"303 445 LINE",
"344 705 LINE",
"129 705 LINE",
"18 0 LINE",
"233 0 LINE",
"275 269 LINE",
"525 269 LINE",
"483 0 LINE",
"698 0 LINE",
"809 705 LINE",
"594 705 LINE"
);
}
);
};
guideLines = (
{
position = "{470, 705}";
}
);
layerId = "4121B50C-FD42-45C5-8FBE-41E76D98F91E";
paths = (
{
closed = 1;
nodes = (
"483 0 LINE",
"698 0 LINE",
"810 705 LINE",
"595 705 LINE"
);
},
{
closed = 1;
nodes = (
"345 705 LINE",
"130 705 LINE",
"18 0 LINE",
"233 0 LINE"
);
},
{
closed = 1;
nodes = (
"568 445 LINE",
"287 445 LINE",
"260 269 LINE",
"540 269 LINE"
);
}
);
width = 794;
}
);
leftKerningGroup = H;
rightKerningGroup = H;
unicode = 0048;
userData = {
anchors = (
);
b = {
};
com.typemytype.robofont.layerData = {
b = {
anchors = (
);
components = (
);
contours = (
);
lib = {
};
name = H;
unicodes = (
);
width = 1464;
};
};
components = (
);
contours = (
);
lib = {
};
name = H;
unicodes = (
);
width = 1524;
};
},
{
color = 1;
glyphname = Hbar;
lastChange = "2019-09-12 08:10:06 +0000";
layers = (
{
background = {
paths = (
{
closed = 1;
nodes = (
"114 0 LINE",
"168 338 LINE",
"643 338 LINE",
"589 0 LINE",
"631 0 LINE",
"715 527 LINE",
"811 527 LINE",
"817 565 LINE",
"721 565 LINE",
"743 705 LINE",
"701 705 LINE",
"679 565 LINE",
"204 565 LINE",
"226 705 LINE",
"184 705 LINE",
"162 565 LINE",
"66 565 LINE",
"60 527 LINE",
"156 527 LINE",
"72 0 LINE"
);
},
{
closed = 1;
nodes = (
"198 527 LINE",
"673 527 LINE",
"649 377 LINE",
"174 377 LINE"
);
}
);
};
layerId = "F1F93986-3ED8-4AAE-84C4-CA3EEECDDFA0";
paths = (
{
closed = 1;
nodes = (
"114 0 LINE",
"168 338 LINE",
"643 338 LINE",
"589 0 LINE",
"631 0 LINE",
"715 527 LINE",
"811 527 LINE",
"817 565 LINE",
"721 565 LINE",
"743 705 LINE",
"701 705 LINE",
"679 565 LINE",
"204 565 LINE",
"226 705 LINE",
"184 705 LINE",
"162 565 LINE",
"66 565 LINE",
"60 527 LINE",
"156 527 LINE",
"72 0 LINE"
);
},
{
closed = 1;
nodes = (
"198 527 LINE",
"673 527 LINE",
"649 377 LINE",
"174 377 LINE"
);
}
);
width = 781;
},
{
background = {
paths = (
{
closed = 1;
nodes = (
"552 445 LINE",
"302 445 LINE",
"302 705 LINE",
"87 705 LINE",
"87 0 LINE",
"302 0 LINE",
"302 269 LINE",
"552 269 LINE",
"552 0 LINE",
"767 0 LINE",
"767 705 LINE",
"552 705 LINE"
);
},
{
closed = 1;
nodes = (
"841 500 LINE",
"841 650 LINE",
"13 650 LINE",
"13 500 LINE"
);
}
);
};
layerId = "4121B50C-FD42-45C5-8FBE-41E76D98F91E";
paths = (
{
closed = 1;
nodes = (
"263 0 LINE",
"305 269 LINE",
"555 269 LINE",
"513 0 LINE",
"728 0 LINE",
"807 500 LINE",
"881 500 LINE",
"905 650 LINE",
"831 650 LINE",
"839 705 LINE",
"624 705 LINE",
"616 650 LINE",
"366 650 LINE",
"374 705 LINE",
"159 705 LINE",
"151 650 LINE",
"77 650 LINE",
"53 500 LINE",
"127 500 LINE",
"48 0 LINE"
);
},
{
closed = 1;
nodes = (
"342 500 LINE",
"592 500 LINE",
"583 445 LINE",
"333 445 LINE"
);
}
);
width = 854;
}
);
leftKerningGroup = H;
rightKerningGroup = H;
unicode = 0126;
userData = {
com.typemytype.robofont.layerData = {
b = {
anchors = (
);
components = (
);
contours = (
);
lib = {
};
name = Hbar;
unicodes = (
);
width = 1464;
};
};
};
},
{
color = 3;
glyphname = I;
lastChange = "2019-09-12 08:06:30 +0000";
layers = (
{
anchors = (
{
name = bottom;
position = "{79, 0}";
},
{
name = ogonek;
position = "{100, 0}";
},
{
name = top;
position = "{191, 705}";
},
{
name = topleft;
position = "{102, 705}";
}
);
background = {
anchors = (
{
name = bottom;
position = "{78, 0}";
},
{
name = ogonek;
position = "{99, 0}";
},
{
name = top;
position = "{190, 705}";
},
{
name = topleft;
position = "{101, 705}";
}
);
paths = (
{
closed = 1;
nodes = (
"99 0 LINE",
"211 705 LINE",
"169 705 LINE",
"57 0 LINE"
);
}
);
};
layerId = "F1F93986-3ED8-4AAE-84C4-CA3EEECDDFA0";
paths = (
{
closed = 1;
nodes = (
"100 0 LINE",
"212 705 LINE",
"170 705 LINE",
"58 0 LINE"
);
}
);
width = 234;
},
{
anchors = (
{
name = bottom;
position = "{125, 0}";
},
{
name = ogonek;
position = "{176, 0}";
},
{
name = top;
position = "{236, 705}";
},
{
name = topleft;
position = "{89, 705}";
}
);
background = {
anchors = (
{
name = bottom;
position = "{125, 0}";
},
{
name = ogonek;
position = "{176, 0}";
},
{
name = top;
position = "{236, 705}";
},
{
name = topleft;
position = "{90, 705}";
}
);
paths = (
{
closed = 1;
nodes = (
"233 0 LINE",
"344 705 LINE",
"129 705 LINE",
"18 0 LINE"
);
}
);
};
layerId = "4121B50C-FD42-45C5-8FBE-41E76D98F91E";
paths = (
{
closed = 1;
nodes = (
"233 0 LINE",
"345 705 LINE",
"130 705 LINE",
"18 0 LINE"
);
}
);
width = 329;
}
);
leftKerningGroup = H;
leftMetricsKey = H;
rightKerningGroup = H;
unicode = 0049;
userData = {
anchors = (
);
b = {
};
com.typemytype.robofont.layerData = {
b = {
anchors = (
);
components = (
);
contours = (
);
lib = {
};
name = I;
unicodes = (
);
width = 592;
};
};
components = (
);
contours = (
);
lib = {
};
name = I;
unicodes = (
);
width = 637;
};
},
{
color = 3;
glyphname = J;
lastChange = "2019-10-07 14:24:31 +0000";
layers = (
{
anchors = (
{
name = bottom;
position = "{143, 0}";
},
{
name = top;
position = "{254, 705}";
}
);
background = {
anchors = (
{
name = bottom;
position = "{142, 0}";
},
{
name = top;
position = "{253, 705}";
}
);
paths = (
{
closed = 1;
nodes = (
"5 -2 LINE SMOOTH",
"107 5 OFFCURVE",
"173 70 OFFCURVE",
"190 177 CURVE SMOOTH",
"274 705 LINE",
"232 705 LINE",
"149 179 LINE SMOOTH",
"136 96 OFFCURVE",
"84 42 OFFCURVE",
"8 36 CURVE SMOOTH",
"-44 32 LINE",
"-46 -6 LINE"
);
}
);
};
layerId = "F1F93986-3ED8-4AAE-84C4-CA3EEECDDFA0";
paths = (
{
closed = 1;
nodes = (
"5 -3 LINE SMOOTH",
"112 4 OFFCURVE",
"173 68 OFFCURVE",
"190 177 CURVE SMOOTH",
"274 705 LINE",
"232 705 LINE",
"150 187 LINE SMOOTH",
"135 92 OFFCURVE",
"86 42 OFFCURVE",
"6 36 CURVE SMOOTH",
"-44 32 LINE",
"-43 -6 LINE"
);
}
);
width = 297;
},
{
anchors = (
{
name = bottom;
position = "{207, 0}";
},
{
name = top;
position = "{318, 705}";
}
);
background = {
anchors = (
{
name = bottom;
position = "{207, 0}";
},
{
name = top;
position = "{318, 705}";
}
);
paths = (
{
closed = 1;
nodes = (
"77 -7 LINE SMOOTH",
"238 2 OFFCURVE",
"327 76 OFFCURVE",
"350 221 CURVE SMOOTH",
"426 705 LINE",
"211 705 LINE",
"134 217 LINE SMOOTH",
"128 177 OFFCURVE",
"110 166 OFFCURVE",
"67 164 CURVE SMOOTH",
"-23 159 LINE",
"-37 -12 LINE"
);
}
);
};
layerId = "4121B50C-FD42-45C5-8FBE-41E76D98F91E";
paths = (
{
closed = 1;
nodes = (
"82 -6 LINE SMOOTH",
"265 4 OFFCURVE",
"327 74 OFFCURVE",
"349 215 CURVE SMOOTH",
"427 705 LINE",
"212 705 LINE",
"136 227 LINE SMOOTH",
"129 182 OFFCURVE",
"109 166 OFFCURVE",
"65 164 CURVE SMOOTH",
"-27 159 LINE",
"-33 -12 LINE"
);
}
);
width = 411;
}
);
leftKerningGroup = J;
rightKerningGroup = J;
rightMetricsKey = H;
unicode = 004A;
userData = {
anchors = (
);
b = {
};
com.typemytype.robofont.layerData = {
b = {
anchors = (
);
components = (
);
contours = (
);
lib = {
};
name = J;
unicodes = (
);
width = 1003;
};
};
components = (
);
contours = (
);
lib = {
};
name = J;
unicodes = (
);
width = 1126;
};
},
{
color = 3;
glyphname = K;
lastChange = "2019-10-08 12:56:21 +0000";
layers = (
{
anchors = (
{
name = bottom;
position = "{274, 0}";
},
{
name = top;
position = "{375, 705}";
},
{
name = topleft;
position = "{101, 705}";
}
);
background = {
anchors = (
{
name = bottom;
position = "{263, 0}";
},
{
name = top;
position = "{374, 705}";
},
{
name = topleft;
position = "{100, 705}";
}
);
paths = (
{
closed = 1;
nodes = (
"181 374 LINE",
"174 342 LINE",
"641 705 LINE",
"582 705 LINE",
"161 377 LINE",
"159 377 LINE",
"211 705 LINE",
"169 705 LINE",
"57 0 LINE",
"99 0 LINE",
"153 338 LINE",
"155 338 LINE",
"493 0 LINE",
"555 0 LINE"
);
}
);
};
layerId = "F1F93986-3ED8-4AAE-84C4-CA3EEECDDFA0";
paths = (
{
closed = 1;
nodes = (
"100 0 LINE",
"154 338 LINE",
"156 338 LINE",
"499 0 LINE",
"556 0 LINE",
"183 369 LINE",
"178 339 LINE",
"645 705 LINE",
"583 705 LINE",
"162 377 LINE",
"160 377 LINE",
"212 705 LINE",
"170 705 LINE",
"58 0 LINE"
);
}
);
width = 590;
},
{
anchors = (
{
name = bottom;
position = "{325, 0}";
},
{
name = top;
position = "{433, 705}";
},
{
name = topleft;
position = "{88, 705}";
}
);
background = {
anchors = (
{
name = bottom;
position = "{323, 0}";
},
{
name = top;
position = "{434, 705}";
},
{
name = topleft;
position = "{90, 705}";
}
);
paths = (
{
closed = 1;
nodes = (
"473 416 LINE",
"459 331 LINE",
"852 705 LINE",
"599 705 LINE",
"299 408 LINE",
"297 408 LINE",
"344 705 LINE",
"129 705 LINE",
"18 0 LINE",
"233 0 LINE",
"282 314 LINE",
"284 314 LINE",
"495 0 LINE",
"749 0 LINE"
);
}
);
};
guideLines = (
{
angle = -55.165;
position = "{588, 232}";
}
);
layerId = "4121B50C-FD42-45C5-8FBE-41E76D98F91E";
paths = (
{
closed = 1;
nodes = (
"233 0 LINE",
"284 319 LINE",
"286 319 LINE",
"510 0 LINE",
"749 0 LINE",
"460 416 LINE",
"474 329 LINE",
"850 705 LINE",
"587 705 LINE",
"300 409 LINE",
"298 409 LINE",
"345 705 LINE",
"130 705 LINE",
"18 0 LINE"
);
}
);
width = 739;
}
);
leftKerningGroup = H;
leftMetricsKey = H;
rightKerningGroup = K;
unicode = 004B;
userData = {
anchors = (
);
b = {
};
com.typemytype.robofont.layerData = {
b = {
anchors = (
);
components = (
);
contours = (
);
lib = {
};
name = K;
unicodes = (
);
width = 1210;
};
};
components = (
);
contours = (
);
lib = {
};
name = K;
unicodes = (
);
width = 1329;
};
},
{
color = 3;
glyphname = L;
lastChange = "2019-10-07 14:30:37 +0000";
layers = (
{
anchors = (
{
name = bottom;
position = "{267, 0}";
},
{
name = center;
position = "{185, 387}";
},
{
name = dot;
position = "{407, 386}";
},
{
name = top;
position = "{191, 705}";
},
{
name = topright;
position = "{333, 705}";
}
);
background = {
anchors = (
{
name = bottom;
position = "{266, 0}";
},
{
name = center;
position = "{184, 387}";
},
{
name = dot;
position = "{406, 386}";
},
{
name = top;
position = "{190, 705}";
},
{
name = topright;
position = "{333, 705}";
}
);
paths = (
{
closed = 1;
nodes = (
"475 0 LINE",
"482 39 LINE",
"106 39 LINE",
"211 705 LINE",
"169 705 LINE",
"57 0 LINE"
);
}
);
};
layerId = "F1F93986-3ED8-4AAE-84C4-CA3EEECDDFA0";
paths = (
{
closed = 1;
nodes = (
"476 0 LINE",
"482 39 LINE",
"107 39 LINE",
"212 705 LINE",
"170 705 LINE",
"58 0 LINE"
);
}
);
width = 527;
},
{
anchors = (
{
name = bottom;
position = "{281, 0}";
},
{
name = center;
position = "{233, 387}";
},
{
name = dot;
position = "{488, 402}";
},
{
name = top;
position = "{235, 705}";
},
{
name = topright;
position = "{433, 705}";
}
);
background = {
anchors = (
{
name = bottom;
position = "{276, 0}";
},
{
name = center;
position = "{234, 387}";
},
{
name = dot;
position = "{489, 402}";
},
{
name = top;
position = "{236, 705}";
},
{
name = topright;
position = "{434, 705}";
}
);
paths = (
{
closed = 1;
nodes = (
"533 0 LINE",
"561 178 LINE",
"261 178 LINE",
"344 705 LINE",
"129 705 LINE",
"18 0 LINE"
);
}
);
};
layerId = "4121B50C-FD42-45C5-8FBE-41E76D98F91E";
paths = (
{
closed = 1;
nodes = (
"533 0 LINE",
"561 178 LINE",
"262 178 LINE",
"345 705 LINE",
"130 705 LINE",
"18 0 LINE"
);
}
);
width = 598;
}
);
leftKerningGroup = H;
leftMetricsKey = H;
rightKerningGroup = L;
unicode = 004C;
userData = {
anchors = (
);
b = {
};
com.typemytype.robofont.layerData = {
b = {
anchors = (
);
components = (
);
contours = (
{
points = (
{
segmentType = curve;
smooth = 1;
x = 266;
y = 0;
},
{
segmentType = line;
smooth = 1;
x = 1035;
y = 0;
},
{
smooth = 0;
x = 1084;
y = 0;
},
{
smooth = 0;
x = 1108;
y = 34;
},
{
segmentType = curve;
smooth = 1;
x = 1108;
y = 71;
},
{
smooth = 0;
x = 1108;
y = 107;
},
{
smooth = 0;
x = 1084;
y = 141;
},
{
segmentType = curve;
smooth = 1;
x = 1035;
y = 141;
},
{
segmentType = line;
smooth = 0;
x = 356;
y = 141;
},
{
segmentType = line;
smooth = 0;
x = 356;
y = 665;
},
{
segmentType = line;
smooth = 1;
x = 975;
y = 665;
},
{
smooth = 0;
x = 1024;
y = 665;
},
{
smooth = 0;
x = 1049;
y = 698;
},
{
segmentType = curve;
smooth = 1;
x = 1049;
y = 734;
},
{
smooth = 0;
x = 1049;
y = 770;
},
{
smooth = 0;
x = 1026;
y = 803;
},
{
segmentType = curve;
smooth = 1;
x = 975;
y = 803;
},
{
segmentType = line;
smooth = 0;
x = 356;
y = 803;
},
{
segmentType = line;
smooth = 0;
x = 356;
y = 1285;
},
{
segmentType = line;
smooth = 1;
x = 1007;
y = 1285;
},
{
smooth = 0;
x = 1056;
y = 1285;
},
{
smooth = 0;
x = 1080;
y = 1319;
},
{
segmentType = curve;
smooth = 1;
x = 1080;
y = 1356;
},
{
smooth = 0;
x = 1080;
y = 1392;
},
{
smooth = 0;
x = 1056;
y = 1426;
},
{
segmentType = curve;
smooth = 1;
x = 1007;
y = 1426;
},
{
segmentType = line;
smooth = 1;
x = 261;
y = 1426;
},
{
smooth = 0;
x = 213;
y = 1426;
},
{
smooth = 0;
x = 178;
y = 1383;
},
{
segmentType = curve;
smooth = 1;
x = 178;
y = 1340;
},
{
segmentType = line;
smooth = 1;
x = 178;
y = 86;
},
{
smooth = 0;
x = 178;
y = 41;
},
{
smooth = 0;
x = 222;
y = 0;
}
);
}
);
lib = {
};
name = L;
unicodes = (
);
width = 1095;
};
};
components = (
);
contours = (
);
lib = {
};
name = L;
unicodes = (
);
width = 1169;
};
},
{
color = 3;
glyphname = M;
lastChange = "2019-10-08 11:57:31 +0000";
layers = (
{
anchors = (
{
name = bottom;
position = "{389, 0}";
},
{
name = top;
position = "{496, 705}";
}
);
background = {
anchors = (
{
name = bottom;
position = "{383, 0}";
},
{
name = top;
position = "{495, 705}";
}
);
paths = (
{
closed = 1;
nodes = (
"98 0 LINE",
"204 666 LINE",
"179 666 LINE",
"385 110 LINE",
"420 110 LINE",
"798 665 LINE",
"774 665 LINE",
"668 0 LINE",
"707 0 LINE",
"819 705 LINE",
"783 705 LINE",
"390 127 LINE",
"418 127 LINE",
"207 705 LINE",
"171 705 LINE",
"59 0 LINE"
);
}
);
};
guideLines = (
{
angle = -69.5796;
position = "{318, 396}";
}
);
layerId = "F1F93986-3ED8-4AAE-84C4-CA3EEECDDFA0";
paths = (
{
closed = 1;
nodes = (
"99 0 LINE",
"204 666 LINE",
"184 666 LINE",
"387 110 LINE",
"420 110 LINE",
"798 665 LINE",
"773 665 LINE",
"668 0 LINE",
"707 0 LINE",
"819 705 LINE",
"783 705 LINE",
"389 127 LINE",
"416 127 LINE",
"208 705 LINE",
"172 705 LINE",
"60 0 LINE"
);
}
);
width = 844;
},
{
anchors = (
{
name = bottom;
position = "{417, 0}";
},
{
name = top;
position = "{519, 705}";
}
);
background = {
anchors = (
{
name = bottom;
position = "{408, 0}";
},
{
name = top;
position = "{519, 705}";
}
);
paths = (
{
closed = 1;
nodes = (
"214 0 LINE",
"272 365 LINE",
"249 365 LINE",
"365 103 LINE",
"479 103 LINE",
"679 365 LINE",
"659 365 LINE",
"601 0 LINE",
"795 0 LINE",
"906 705 LINE",
"732 705 LINE",
"439 301 LINE",
"475 301 LINE",
"310 705 LINE",
"131 705 LINE",
"20 0 LINE"
);
}
);
};
layerId = "4121B50C-FD42-45C5-8FBE-41E76D98F91E";
paths = (
{
closed = 1;
nodes = (
"214 0 LINE",
"272 364 LINE",
"250 364 LINE",
"371 103 LINE",
"484 103 LINE",
"682 372 LINE",
"660 372 LINE",
"601 0 LINE",
"795 0 LINE",
"907 705 LINE",
"723 705 LINE",
"432 301 LINE",
"463 301 LINE",
"301 705 LINE",
"132 705 LINE",
"20 0 LINE"
);
}
);
width = 893;
}
);
leftKerningGroup = H;
leftMetricsKey = "=H+2";
rightKerningGroup = H;
rightMetricsKey = "=H+2";
unicode = 004D;
userData = {
anchors = (
);
b = {
};
com.typemytype.robofont.layerData = {
b = {
anchors = (
);
components = (
);
contours = (
);
lib = {
};
name = M;
unicodes = (
);
width = 1899;
};
};
components = (
);
contours = (
);
lib = {
};
name = M;
unicodes = (
);
width = 1984;
};
},
{
color = 3;
glyphname = N;
lastChange = "2019-10-08 12:57:41 +0000";
layers = (
{
anchors = (
{
name = bottom;
position = "{338, 0}";
},
{
name = top;
position = "{440, 705}";
}
);
background = {
anchors = (
{
name = bottom;
position = "{327, 0}";
},
{
name = top;
position = "{439, 705}";
}
);
paths = (
{
closed = 1;
nodes = (
"96 0 LINE",
"201 663 LINE",
"180 663 LINE",
"563 0 LINE",
"597 0 LINE",
"709 705 LINE",
"670 705 LINE",
"565 42 LINE",
"587 42 LINE",
"204 705 LINE",
"169 705 LINE",
"57 0 LINE"
);
}
);
};
layerId = "F1F93986-3ED8-4AAE-84C4-CA3EEECDDFA0";
paths = (
{
closed = 1;
nodes = (
"97 0 LINE",
"202 663 LINE",
"185 663 LINE",
"563 0 LINE",
"597 0 LINE",
"709 705 LINE",
"670 705 LINE",
"565 42 LINE",
"582 42 LINE",
"205 705 LINE",
"170 705 LINE",
"58 0 LINE"
);
}
);
width = 732;
},
{
anchors = (
{
name = bottom;
position = "{353, 0}";
},
{
name = top;
position = "{449, 705}";
}
);
background = {
paths = (
{
closed = 1;
nodes = (
"218 0 LINE",
"283 411 LINE",
"250 411 LINE",
"510 0 LINE",
"667 0 LINE",
"779 705 LINE",
"579 705 LINE",
"514 294 LINE",
"547 294 LINE",
"287 705 LINE",
"130 705 LINE",
"18 0 LINE"
);
}
);
};
layerId = "4121B50C-FD42-45C5-8FBE-41E76D98F91E";
paths = (
{
closed = 1;
nodes = (
"218 0 LINE",
"284 415 LINE",
"251 415 LINE",
"510 0 LINE",
"667 0 LINE",
"779 705 LINE",
"579 705 LINE",
"513 290 LINE",
"546 290 LINE",
"287 705 LINE",
"130 705 LINE",
"18 0 LINE"
);
}
);
width = 763;
}
);
leftKerningGroup = H;
leftMetricsKey = H;
rightKerningGroup = H;
rightMetricsKey = H;
unicode = 004E;
userData = {
anchors = (
);
b = {
};
com.typemytype.robofont.layerData = {
b = {
anchors = (
);
components = (
);
contours = (
);
lib = {
};
name = N;
unicodes = (
);
width = 1499;
};
};
components = (
);
contours = (
);
lib = {
};
name = N;
unicodes = (
);
width = 1557;
};
},
{
glyphname = Eng;
lastChange = "2019-09-17 14:37:46 +0000";
layers = (
{
anchors = (
{
name = bottom;
position = "{327, 0}";
},
{
name = top;
position = "{439, 705}";
}
);
background = {
paths = (
{
closed = 1;
nodes = (
"425 -190 LINE SMOOTH",
"516 -184 OFFCURVE",
"578 -124 OFFCURVE",
"594 -21 CURVE SMOOTH",
"709 705 LINE",
"670 705 LINE",
"565 42 LINE",
"587 42 LINE",
"204 705 LINE",
"169 705 LINE",
"57 0 LINE",
"96 0 LINE",
"201 663 LINE",
"180 663 LINE",
"563 0 LINE",
"562 25 LINE",
"555 -22 LINE SMOOTH",
"542 -102 OFFCURVE",
"497 -147 OFFCURVE",
"426 -152 CURVE SMOOTH",
"385 -155 LINE",
"382 -193 LINE"
);
}
);
};
layerId = "F1F93986-3ED8-4AAE-84C4-CA3EEECDDFA0";
paths = (
{
closed = 1;
nodes = (
"430 -190 LINE SMOOTH",
"517 -184 OFFCURVE",
"577 -129 OFFCURVE",
"593 -26 CURVE SMOOTH",
"709 705 LINE",
"670 705 LINE",
"565 42 LINE",
"582 42 LINE",
"205 705 LINE",
"170 705 LINE",
"58 0 LINE",
"97 0 LINE",
"202 663 LINE",
"185 663 LINE",
"563 0 LINE",
"562 22 LINE",
"555 -22 LINE",
"542 -102 OFFCURVE",
"499 -147 OFFCURVE",
"426 -152 CURVE SMOOTH",
"385 -155 LINE",
"387 -193 LINE"
);
}
);
width = 732;
},
{
anchors = (
{
name = bottom;
position = "{343, 0}";
},
{
name = top;
position = "{453, 705}";
}
);
background = {
paths = (
{
closed = 1;
nodes = (
"778 705 LINE",
"578 705 LINE",
"517 315 LINE",
"547 315 LINE",
"286 705 LINE",
"129 705 LINE",
"18 0 LINE",
"218 0 LINE",
"280 390 LINE",
"250 390 LINE",
"510 0 LINE",
"480 76 LINE",
"469 8 LINE SMOOTH",
"464 -24 OFFCURVE",
"445 -38 OFFCURVE",
"408 -42 CURVE SMOOTH",
"352 -48 LINE",
"343 -193 LINE",
"388 -190 LINE SMOOTH",
"580 -177 OFFCURVE",
"648 -120 OFFCURVE",
"673 39 CURVE SMOOTH"
);
}
);
};
layerId = "4121B50C-FD42-45C5-8FBE-41E76D98F91E";
paths = (
{
closed = 1;
nodes = (
"412 -190 LINE SMOOTH",
"594 -178 OFFCURVE",
"648 -120 OFFCURVE",
"673 39 CURVE SMOOTH",
"779 705 LINE",
"579 705 LINE",
"513 290 LINE",
"546 290 LINE",
"287 705 LINE",
"130 705 LINE",
"18 0 LINE",
"218 0 LINE",
"284 415 LINE",
"251 415 LINE",
"510 0 LINE",
"480 76 LINE",
"469 8 LINE SMOOTH",
"464 -24 OFFCURVE",
"451 -37 OFFCURVE",
"404 -42 CURVE SMOOTH",
"351 -48 LINE",
"365 -193 LINE"
);
}
);
width = 763;
}
);
leftKerningGroup = H;
leftMetricsKey = N;
widthMetricsKey = N;
rightKerningGroup = H;
unicode = 014A;
userData = {
com.typemytype.robofont.layerData = {
b = {
anchors = (
);
components = (
);
contours = (
);
lib = {
};
name = Eng;
unicodes = (
);
width = 1495;
};
};
};
},
{
color = 3;
glyphname = O;
lastChange = "2019-10-08 11:53:08 +0000";
layers = (
{
anchors = (
{
name = Qtail;
position = "{347, -8}";
},
{
name = bottom;
position = "{350, 0}";
},
{
name = center;
position = "{393, 353}";
},
{
name = ogonek;
position = "{401, 0}";
},
{
name = top;
position = "{440, 705}";
},
{
name = topleft;
position = "{99, 705}";
},
{
name = topright;
position = "{487, 705}";
}
);
background = {
paths = (
{
closed = 1;
nodes = (
"585 -8 OFFCURVE",
"704 179 OFFCURVE",
"704 416 CURVE SMOOTH",
"704 609 OFFCURVE",
"597 713 OFFCURVE",
"429 713 CURVE SMOOTH",
"201 713 OFFCURVE",
"82 526 OFFCURVE",
"82 289 CURVE SMOOTH",
"82 96 OFFCURVE",
"189 -8 OFFCURVE",
"357 -8 CURVE SMOOTH"
);
},
{
closed = 1;
nodes = (
"214 33 OFFCURVE",
"127 116 OFFCURVE",
"127 289 CURVE SMOOTH",
"127 507 OFFCURVE",
"232 672 OFFCURVE",
"426 672 CURVE SMOOTH",
"572 672 OFFCURVE",
"659 589 OFFCURVE",
"659 416 CURVE SMOOTH",
"659 199 OFFCURVE",
"554 33 OFFCURVE",
"359 33 CURVE SMOOTH"
);
}
);
};
layerId = "F1F93986-3ED8-4AAE-84C4-CA3EEECDDFA0";
paths = (
{
closed = 1;
nodes = (
"585 -8 OFFCURVE",
"704 179 OFFCURVE",
"704 416 CURVE SMOOTH",
"704 609 OFFCURVE",
"597 713 OFFCURVE",
"429 713 CURVE SMOOTH",
"201 713 OFFCURVE",
"82 526 OFFCURVE",
"82 289 CURVE SMOOTH",
"82 96 OFFCURVE",
"189 -8 OFFCURVE",
"357 -8 CURVE SMOOTH"
);
},
{
closed = 1;
nodes = (
"214 33 OFFCURVE",
"127 116 OFFCURVE",
"127 289 CURVE SMOOTH",
"127 507 OFFCURVE",
"232 672 OFFCURVE",
"426 672 CURVE SMOOTH",
"572 672 OFFCURVE",
"659 589 OFFCURVE",
"659 416 CURVE SMOOTH",
"659 199 OFFCURVE",
"554 33 OFFCURVE",
"359 33 CURVE SMOOTH"
);
}
);
width = 751;
},
{
anchors = (
{
name = Qtail;
position = "{387, -12}";
},
{
name = bottom;
position = "{375, 0}";
},
{
name = center;
position = "{426, 353}";
},
{
name = ogonek;
position = "{444, 0}";
},
{
name = top;
position = "{465, 705}";
},
{
name = topleft;
position = "{98, 705}";
},
{
name = topright;
position = "{530, 705}";
}
);
background = {
paths = (
{
closed = 1;
nodes = (
"1533 -12 OFFCURVE",
"1696 164 OFFCURVE",
"1696 397 CURVE SMOOTH",
"1696 586 OFFCURVE",
"1558 717 OFFCURVE",
"1354 717 CURVE SMOOTH",
"1121 717 OFFCURVE",
"958 541 OFFCURVE",
"958 308 CURVE SMOOTH",
"958 119 OFFCURVE",
"1096 -12 OFFCURVE",
"1300 -12 CURVE SMOOTH"
);
},
{
closed = 1;
nodes = (
"1227 167 OFFCURVE",
"1181 220 OFFCURVE",
"1181 312 CURVE SMOOTH",
"1181 429 OFFCURVE",
"1236 538 OFFCURVE",
"1347 538 CURVE SMOOTH",
"1427 538 OFFCURVE",
"1473 485 OFFCURVE",
"1473 393 CURVE SMOOTH",
"1473 276 OFFCURVE",
"1418 167 OFFCURVE",
"1307 167 CURVE SMOOTH"
);
},
{
closed = 1;
nodes = (
"219 717 OFFCURVE",
"58 554 OFFCURVE",
"58 308 CURVE SMOOTH",
"58 108 OFFCURVE",
"196 -12 OFFCURVE",
"405 -12 CURVE SMOOTH",
"635 -12 OFFCURVE",
"796 151 OFFCURVE",
"796 397 CURVE SMOOTH",
"796 597 OFFCURVE",
"658 717 OFFCURVE",
"450 717 CURVE SMOOTH"
);
},
{
closed = 1;
nodes = (
"525 538 OFFCURVE",
"573 491 OFFCURVE",
"573 393 CURVE SMOOTH",
"573 280 OFFCURVE",
"522 167 OFFCURVE",
"405 167 CURVE SMOOTH",
"329 167 OFFCURVE",
"281 214 OFFCURVE",
"281 312 CURVE SMOOTH",
"281 467 OFFCURVE",
"360 538 OFFCURVE",
"447 538 CURVE SMOOTH"
);
}
);
};
layerId = "4121B50C-FD42-45C5-8FBE-41E76D98F91E";
paths = (
{
closed = 1;
nodes = (
"635 -12 OFFCURVE",
"796 151 OFFCURVE",
"796 397 CURVE SMOOTH",
"796 597 OFFCURVE",
"658 717 OFFCURVE",
"449 717 CURVE SMOOTH",
"219 717 OFFCURVE",
"58 554 OFFCURVE",
"58 308 CURVE SMOOTH",
"58 108 OFFCURVE",
"196 -12 OFFCURVE",
"404 -12 CURVE SMOOTH"
);
},
{
closed = 1;
nodes = (
"329 167 OFFCURVE",
"281 214 OFFCURVE",
"281 312 CURVE SMOOTH",
"281 448 OFFCURVE",
"343 538 OFFCURVE",
"446 538 CURVE SMOOTH",
"524 538 OFFCURVE",
"573 491 OFFCURVE",
"573 393 CURVE SMOOTH",
"573 257 OFFCURVE",
"510 167 OFFCURVE",
"407 167 CURVE SMOOTH"
);
}
);
width = 820;
}
);
leftKerningGroup = O;
rightKerningGroup = O;
unicode = 004F;
userData = {
anchors = (
);
b = {
};
com.typemytype.robofont.guides = (
);
com.typemytype.robofont.layerData = {
b = {
anchors = (
);
components = (
);
contours = (
);
lib = {
};
name = O;
unicodes = (
);
width = 1597;
};
};
components = (
);
contours = (
);
lib = {
};
name = O;
unicodes = (
);
width = 1604;
};
},
{
color = 3;
glyphname = OE;
lastChange = "2019-09-12 08:06:30 +0000";
layers = (
{
anchors = (
{
name = bottom;
position = "{546, 0}";
},
{
name = top;
position = "{658, 705}";
}
);
background = {
paths = (
{
closed = 1;
nodes = (
"949 0 LINE",
"955 39 LINE",
"573 39 LINE",
"620 338 LINE",
"983 338 LINE",
"989 377 LINE",
"627 377 LINE",
"673 666 LINE",
"1055 666 LINE",
"1061 705 LINE",
"637 705 LINE",
"525 0 LINE"
);
}
);
};
layerId = "F1F93986-3ED8-4AAE-84C4-CA3EEECDDFA0";
paths = (
{
closed = 1;
nodes = (
"1061 705 LINE",
"476 705 LINE SMOOTH",
"197 705 OFFCURVE",
"81 515 OFFCURVE",
"81 289 CURVE SMOOTH",
"81 105 OFFCURVE",
"196 0 OFFCURVE",
"400 0 CURVE SMOOTH",
"951 0 LINE",
"957 39 LINE",
"575 39 LINE",
"622 338 LINE",
"985 338 LINE",
"991 377 LINE",
"629 377 LINE",
"675 666 LINE",
"1055 666 LINE"
);
},
{
closed = 1;
nodes = (
"401 39 LINE SMOOTH",
"218 39 OFFCURVE",
"126 127 OFFCURVE",
"126 289 CURVE SMOOTH",
"126 490 OFFCURVE",
"219 666 OFFCURVE",
"474 666 CURVE SMOOTH",
"633 666 LINE",
"533 39 LINE"
);
}
);
width = 1038;
},
{
anchors = (
{
name = bottom;
position = "{571, 0}";
},
{
name = top;
position = "{682, 705}";
}
);
background = {
anchors = (
{
name = bottom;
position = "{609, 0}";
},
{
name = top;
position = "{609, 705}";
}
);
paths = (
{
closed = 1;
nodes = (
"981 0 LINE",
"1007 164 LINE",
"698 164 LINE",
"716 276 LINE",
"1002 276 LINE",
"1028 440 LINE",
"742 440 LINE",
"758 541 LINE",
"1067 541 LINE",
"1093 705 LINE",
"579 705 LINE",
"468 0 LINE"
);
}
);
};
layerId = "4121B50C-FD42-45C5-8FBE-41E76D98F91E";
paths = (
{
closed = 1;
nodes = (
"1093 705 LINE",
"482 705 LINE SMOOTH",
"208 705 OFFCURVE",
"59 559 OFFCURVE",
"60 313 CURVE SMOOTH",
"61 118 OFFCURVE",
"198 0 OFFCURVE",
"442 0 CURVE SMOOTH",
"982 0 LINE",
"1007 164 LINE",
"698 164 LINE",
"716 276 LINE",
"1002 276 LINE",
"1028 440 LINE",
"742 440 LINE",
"758 541 LINE",
"1067 541 LINE"
);
},
{
closed = 1;
nodes = (
"442 174 LINE SMOOTH",
"337 174 OFFCURVE",
"283 224 OFFCURVE",
"283 317 CURVE SMOOTH",
"283 455 OFFCURVE",
"352 531 OFFCURVE",
"480 531 CURVE SMOOTH",
"552 531 LINE",
"495 174 LINE"
);
}
);
width = 1074;
}
);
leftKerningGroup = O;
leftMetricsKey = O;
rightKerningGroup = E;
rightMetricsKey = E;
unicode = 0152;
},
{
color = 3;
glyphname = P;
lastChange = "2019-09-12 08:06:30 +0000";
layers = (
{
anchors = (
{
name = bottom;
position = "{278, 0}";
},
{
name = top;
position = "{390, 705}";
}
);
background = {
paths = (
{
closed = 1;
nodes = (
"206 666 LINE",
"407 666 LINE SMOOTH",
"518 666 OFFCURVE",
"577 621 OFFCURVE",
"577 521 CURVE SMOOTH",
"577 405 OFFCURVE",
"506 336 OFFCURVE",
"372 336 CURVE SMOOTH",
"143 336 LINE",
"137 297 LINE",
"372 297 LINE SMOOTH",
"533 297 OFFCURVE",
"621 386 OFFCURVE",
"621 525 CURVE SMOOTH",
"621 652 OFFCURVE",
"540 705 OFFCURVE",
"407 705 CURVE SMOOTH",
"170 705 LINE",
"58 0 LINE",
"100 0 LINE"
);
}
);
};
layerId = "F1F93986-3ED8-4AAE-84C4-CA3EEECDDFA0";
paths = (
{
closed = 1;
nodes = (
"170 705 LINE",
"58 0 LINE",
"100 0 LINE",
"147 297 LINE",
"370 297 LINE SMOOTH",
"533 297 OFFCURVE",
"621 386 OFFCURVE",
"621 521 CURVE SMOOTH",
"621 645 OFFCURVE",
"540 705 OFFCURVE",
"407 705 CURVE SMOOTH"
);
},
{
closed = 1;
nodes = (
"154 336 LINE",
"206 666 LINE",
"407 666 LINE SMOOTH",
"518 666 OFFCURVE",
"577 621 OFFCURVE",
"577 520 CURVE SMOOTH",
"577 400 OFFCURVE",
"506 336 OFFCURVE",
"374 336 CURVE SMOOTH"
);
}
);
width = 616;
},
{
anchors = (
{
name = bottom;
position = "{307, 0}";
},
{
name = top;
position = "{418, 705}";
}
);
background = {
paths = (
{
closed = 1;
nodes = (
"319 541 LINE",
"411 541 LINE SMOOTH",
"474 541 OFFCURVE",
"501 521 OFFCURVE",
"501 477 CURVE SMOOTH",
"501 423 OFFCURVE",
"470 395 OFFCURVE",
"409 395 CURVE SMOOTH",
"279 395 LINE",
"253 231 LINE",
"421 231 LINE SMOOTH",
"599 231 OFFCURVE",
"705 324 OFFCURVE",
"705 497 CURVE SMOOTH",
"705 624 OFFCURVE",
"620 705 OFFCURVE",
"461 705 CURVE SMOOTH",
"130 705 LINE",
"18 0 LINE",
"233 0 LINE"
);
}
);
};
guideLines = (
{
angle = 261.0524;
position = "{286, 335}";
}
);
layerId = "4121B50C-FD42-45C5-8FBE-41E76D98F91E";
paths = (
{
closed = 1;
nodes = (
"130 705 LINE",
"18 0 LINE",
"233 0 LINE",
"270 231 LINE",
"401 231 LINE SMOOTH",
"599 231 OFFCURVE",
"705 324 OFFCURVE",
"705 497 CURVE SMOOTH",
"705 624 OFFCURVE",
"620 705 OFFCURVE",
"441 705 CURVE SMOOTH"
);
},
{
closed = 1;
nodes = (
"296 395 LINE",
"319 541 LINE",
"411 541 LINE SMOOTH",
"474 541 OFFCURVE",
"501 521 OFFCURVE",
"501 477 CURVE SMOOTH",
"501 423 OFFCURVE",
"470 395 OFFCURVE",
"409 395 CURVE SMOOTH"
);
}
);
width = 689;
}
);
leftKerningGroup = H;
leftMetricsKey = H;
rightKerningGroup = P;
unicode = 0050;
userData = {
anchors = (
);
b = {
};
com.typemytype.robofont.layerData = {
b = {
anchors = (
);
components = (
);
contours = (
{
points = (
{
segmentType = curve;
smooth = 1;
x = 266;
y = 0;
},
{
segmentType = line;
smooth = 1;
x = 1035;
y = 0;
},
{
smooth = 0;
x = 1084;
y = 0;
},
{
smooth = 0;
x = 1108;
y = 34;
},
{
segmentType = curve;
smooth = 1;
x = 1108;
y = 71;
},
{
smooth = 0;
x = 1108;
y = 107;
},
{
smooth = 0;
x = 1084;
y = 141;
},
{
segmentType = curve;
smooth = 1;
x = 1035;
y = 141;
},
{
segmentType = line;
smooth = 0;
x = 356;
y = 141;
},
{
segmentType = line;
smooth = 0;
x = 356;
y = 665;
},
{
segmentType = line;
smooth = 1;
x = 975;
y = 665;
},
{
smooth = 0;
x = 1024;
y = 665;
},
{
smooth = 0;
x = 1049;
y = 698;
},
{
segmentType = curve;
smooth = 1;
x = 1049;
y = 734;
},
{
smooth = 0;
x = 1049;
y = 770;
},
{
smooth = 0;
x = 1026;
y = 803;
},
{
segmentType = curve;
smooth = 1;
x = 975;
y = 803;
},
{
segmentType = line;
smooth = 0;
x = 356;
y = 803;
},
{
segmentType = line;
smooth = 0;
x = 356;
y = 1285;
},
{
segmentType = line;
smooth = 1;
x = 1007;
y = 1285;
},
{
smooth = 0;
x = 1056;
y = 1285;
},
{
smooth = 0;
x = 1080;
y = 1319;
},
{
segmentType = curve;
smooth = 1;
x = 1080;
y = 1356;
},
{
smooth = 0;
x = 1080;
y = 1392;
},
{
smooth = 0;
x = 1056;
y = 1426;
},
{
segmentType = curve;
smooth = 1;
x = 1007;
y = 1426;
},
{
segmentType = line;
smooth = 1;
x = 261;
y = 1426;
},
{
smooth = 0;
x = 213;
y = 1426;
},
{
smooth = 0;
x = 178;
y = 1383;
},
{
segmentType = curve;
smooth = 1;
x = 178;
y = 1340;
},
{
segmentType = line;
smooth = 1;
x = 178;
y = 86;
},
{
smooth = 0;
x = 178;
y = 41;
},
{
smooth = 0;
x = 222;
y = 0;
}
);
}
);
lib = {
};
name = P;
unicodes = (
);
width = 1201;
};
};
components = (
);
contours = (
);
lib = {
};
name = P;
unicodes = (
);
width = 1319;
};
},
{
glyphname = Thorn;
lastChange = "2019-10-04 08:55:11 +0000";
layers = (
{
anchors = (
{
name = bottom;
position = "{277, 0}";
},
{
name = top;
position = "{389, 705}";
}
);
background = {
anchors = (
{
name = bottom;
position = "{277, 0}";
},
{
name = top;
position = "{389, 705}";
}
);
components = (
{
name = P;
transform = "{1, 0, 0, 1, -22, -135}";
}
);
};
layerId = "F1F93986-3ED8-4AAE-84C4-CA3EEECDDFA0";
paths = (
{
closed = 1;
nodes = (
"100 0 LINE",
"126 162 LINE",
"348 162 LINE SMOOTH",
"511 162 OFFCURVE",
"599 251 OFFCURVE",
"599 386 CURVE SMOOTH",
"599 510 OFFCURVE",
"518 570 OFFCURVE",
"385 570 CURVE SMOOTH",
"191 570 LINE",
"212 705 LINE",
"170 705 LINE",
"58 0 LINE"
);
},
{
closed = 1;
nodes = (
"184 531 LINE",
"385 531 LINE SMOOTH",
"496 531 OFFCURVE",
"555 486 OFFCURVE",
"555 385 CURVE SMOOTH",
"555 265 OFFCURVE",
"484 201 OFFCURVE",
"352 201 CURVE SMOOTH",
"132 201 LINE"
);
}
);
width = 616;
},
{
anchors = (
{
name = bottom;
position = "{313, 0}";
},
{
name = top;
position = "{423, 705}";
}
);
background = {
paths = (
{
closed = 1;
nodes = (
"329 605 LINE",
"344 705 LINE",
"129 705 LINE",
"18 0 LINE",
"233 0 LINE",
"254 131 LINE",
"401 131 LINE SMOOTH",
"563 131 OFFCURVE",
"670 221 OFFCURVE",
"693 368 CURVE SMOOTH",
"716 515 OFFCURVE",
"638 605 OFFCURVE",
"476 605 CURVE SMOOTH"
);
},
{
closed = 1;
nodes = (
"279 295 LINE",
"303 441 LINE",
"410 441 LINE SMOOTH",
"468 441 OFFCURVE",
"497 418 OFFCURVE",
"489 368 CURVE SMOOTH",
"481 318 OFFCURVE",
"444 295 OFFCURVE",
"386 295 CURVE SMOOTH"
);
}
);
};
layerId = "4121B50C-FD42-45C5-8FBE-41E76D98F91E";
paths = (
{
closed = 1;
nodes = (
"233 0 LINE",
"254 131 LINE",
"389 131 LINE SMOOTH",
"587 131 OFFCURVE",
"693 224 OFFCURVE",
"693 397 CURVE SMOOTH",
"693 524 OFFCURVE",
"608 605 OFFCURVE",
"429 605 CURVE SMOOTH",
"329 605 LINE",
"345 705 LINE",
"130 705 LINE",
"18 0 LINE"
);
},
{
closed = 1;
nodes = (
"303 441 LINE",
"399 441 LINE SMOOTH",
"462 441 OFFCURVE",
"489 421 OFFCURVE",
"489 377 CURVE SMOOTH",
"489 323 OFFCURVE",
"458 295 OFFCURVE",
"397 295 CURVE SMOOTH",
"280 295 LINE"
);
}
);
width = 693;
}
);
leftKerningGroup = H;
leftMetricsKey = H;
rightKerningGroup = THORN;
unicode = 00DE;
},
{
color = 3;
glyphname = R;
lastChange = "2019-10-08 11:58:47 +0000";
layers = (
{
anchors = (
{
name = bottom;
position = "{305, 0}";
},
{
name = top;
position = "{402, 705}";
}
);
background = {
anchors = (
{
name = bottom;
position = "{295, 0}";
},
{
name = top;
position = "{407, 705}";
}
);
components = (
{
name = P;
transform = "{1, 0, 0, 1, 2, 15}";
}
);
};
layerId = "F1F93986-3ED8-4AAE-84C4-CA3EEECDDFA0";
paths = (
{
closed = 1;
nodes = (
"206 666 LINE",
"401 666 LINE SMOOTH",
"523 666 OFFCURVE",
"577 616 OFFCURVE",
"577 519 CURVE SMOOTH",
"577 412 OFFCURVE",
"504 351 OFFCURVE",
"383 351 CURVE SMOOTH",
"146 351 LINE",
"140 312 LINE",
"317 312 LINE SMOOTH",
"395 312 OFFCURVE",
"429 288 OFFCURVE",
"455 221 CURVE SMOOTH",
"539 0 LINE",
"580 0 LINE",
"491 234 LINE SMOOTH",
"468 294 OFFCURVE",
"434 327 OFFCURVE",
"381 327 CURVE SMOOTH",
"373 327 LINE",
"373 316 LINE",
"515 312 OFFCURVE",
"621 385 OFFCURVE",
"621 520 CURVE SMOOTH",
"621 634 OFFCURVE",
"549 705 OFFCURVE",
"401 705 CURVE SMOOTH",
"170 705 LINE",
"58 0 LINE",
"100 0 LINE"
);
}
);
width = 654;
},
{
anchors = (
{
name = bottom;
position = "{326, 0}";
},
{
name = top;
position = "{420, 705}";
}
);
background = {
anchors = (
{
name = bottom;
position = "{323, 0}";
},
{
name = top;
position = "{433, 705}";
}
);
paths = (
{
closed = 1;
nodes = (
"319 541 LINE",
"411 541 LINE SMOOTH",
"473 541 OFFCURVE",
"501 521 OFFCURVE",
"501 480 CURVE SMOOTH",
"501 427 OFFCURVE",
"469 402 OFFCURVE",
"408 402 CURVE SMOOTH",
"281 402 LINE",
"257 252 LINE",
"310 252 LINE SMOOTH",
"339 252 OFFCURVE",
"356 240 OFFCURVE",
"367 210 CURVE SMOOTH",
"446 -1 LINE",
"667 0 LINE",
"603 166 LINE SMOOTH",
"578 231 OFFCURVE",
"535 273 OFFCURVE",
"463 273 CURVE SMOOTH",
"419 273 LINE",
"419 254 LINE",
"592 254 OFFCURVE",
"705 337 OFFCURVE",
"705 493 CURVE SMOOTH",
"705 628 OFFCURVE",
"612 705 OFFCURVE",
"449 705 CURVE SMOOTH",
"130 705 LINE",
"18 0 LINE",
"233 0 LINE"
);
}
);
};
layerId = "4121B50C-FD42-45C5-8FBE-41E76D98F91E";
paths = (
{
closed = 1;
nodes = (
"319 541 LINE",
"411 541 LINE SMOOTH",
"473 541 OFFCURVE",
"501 521 OFFCURVE",
"501 480 CURVE SMOOTH",
"501 427 OFFCURVE",
"469 402 OFFCURVE",
"408 402 CURVE SMOOTH",
"281 402 LINE",
"257 252 LINE",
"310 252 LINE SMOOTH",
"339 252 OFFCURVE",
"356 240 OFFCURVE",
"367 210 CURVE SMOOTH",
"446 -1 LINE",
"667 0 LINE",
"603 166 LINE SMOOTH",
"578 231 OFFCURVE",
"535 273 OFFCURVE",
"463 273 CURVE SMOOTH",
"419 273 LINE",
"419 254 LINE",
"584 254 OFFCURVE",
"705 327 OFFCURVE",
"705 500 CURVE SMOOTH",
"705 628 OFFCURVE",
"612 705 OFFCURVE",
"449 705 CURVE SMOOTH",
"130 705 LINE",
"18 0 LINE",
"233 0 LINE"
);
}
);
width = 718;
}
);
leftKerningGroup = H;
leftMetricsKey = H;
rightKerningGroup = R;
unicode = 0052;
userData = {
anchors = (
);
b = {
};
com.typemytype.robofont.guides = (
);
com.typemytype.robofont.layerData = {
b = {
anchors = (
);
components = (
);
contours = (
{
points = (
{
segmentType = curve;
smooth = 1;
x = 267;
y = 0;
},
{
smooth = 0;
x = 311;
y = 0;
},
{
smooth = 0;
x = 356;
y = 27;
},
{
segmentType = curve;
smooth = 1;
x = 356;
y = 84;
},
{
segmentType = line;
smooth = 0;
x = 356;
y = 628;
},
{
segmentType = line;
smooth = 1;
x = 669;
y = 628;
},
{
smooth = 0;
x = 962;
y = 628;
},
{
smooth = 0;
x = 1182;
y = 722;
},
{
segmentType = curve;
smooth = 1;
x = 1182;
y = 1026;
},
{
smooth = 0;
x = 1182;
y = 1324;
},
{
smooth = 0;
x = 993;
y = 1426;
},
{
segmentType = curve;
smooth = 1;
x = 684;
y = 1426;
},
{
segmentType = line;
smooth = 1;
x = 268;
y = 1426;
},
{
smooth = 0;
x = 217;
y = 1426;
},
{
smooth = 0;
x = 178;
y = 1387;
},
{
segmentType = curve;
smooth = 1;
x = 178;
y = 1339;
},
{
segmentType = line;
smooth = 1;
x = 178;
y = 84;
},
{
smooth = 0;
x = 178;
y = 28;
},
{
smooth = 0;
x = 222;
y = 0;
}
);
},
{
points = (
{
segmentType = line;
smooth = 0;
x = 356;
y = 764;
},
{
segmentType = line;
smooth = 0;
x = 356;
y = 1285;
},
{
segmentType = line;
smooth = 1;
x = 684;
y = 1285;
},
{
smooth = 0;
x = 914;
y = 1285;
},
{
smooth = 0;
x = 1008;
y = 1210;
},
{
segmentType = curve;
smooth = 1;
x = 1008;
y = 1026;
},
{
smooth = 0;
x = 1008;
y = 838;
},
{
smooth = 0;
x = 901;
y = 764;
},
{
segmentType = curve;
smooth = 1;
x = 670;
y = 764;
}
);
}
);
lib = {
};
name = R;
unicodes = (
);
width = 1363;
};
};
components = (
);
contours = (
);
lib = {
};
name = R;
unicodes = (
);
width = 1408;
};
},
{
color = 9;
glyphname = S;
lastChange = "2019-10-08 13:03:45 +0000";
layers = (
{
anchors = (
{
name = bottom;
position = "{286, 0}";
},
{
name = top;
position = "{373, 705}";
}
);
background = {
components = (
{
name = C;
transform = "{1, 0, 0, 1, -50, 0}";
}
);
};
layerId = "F1F93986-3ED8-4AAE-84C4-CA3EEECDDFA0";
paths = (
{
closed = 1;
nodes = (
"436 -8 OFFCURVE",
"544 62 OFFCURVE",
"544 186 CURVE SMOOTH",
"544 269 OFFCURVE",
"489 326 OFFCURVE",
"357 356 CURVE SMOOTH",
"258 380 LINE SMOOTH",
"183 398 OFFCURVE",
"144 429 OFFCURVE",
"144 512 CURVE SMOOTH",
"144 609 OFFCURVE",
"233 672 OFFCURVE",
"347 672 CURVE SMOOTH",
"429 672 OFFCURVE",
"505 648 OFFCURVE",
"564 585 CURVE",
"587 620 LINE",
"531 685 OFFCURVE",
"439 713 OFFCURVE",
"349 713 CURVE SMOOTH",
"210 713 OFFCURVE",
"100 632 OFFCURVE",
"100 512 CURVE SMOOTH",
"100 407 OFFCURVE",
"159 361 OFFCURVE",
"249 340 CURVE SMOOTH",
"348 316 LINE SMOOTH",
"463 290 OFFCURVE",
"500 245 OFFCURVE",
"500 182 CURVE SMOOTH",
"500 89 OFFCURVE",
"417 33 OFFCURVE",
"297 33 CURVE SMOOTH",
"197 33 OFFCURVE",
"126 50 OFFCURVE",
"56 112 CURVE",
"33 79 LINE",
"99 15 OFFCURVE",
"192 -8 OFFCURVE",
"295 -8 CURVE SMOOTH"
);
}
);
width = 600;
},
{
anchors = (
{
name = bottom;
position = "{316, 0}";
},
{
name = top;
position = "{396, 705}";
}
);
background = {
components = (
{
name = C;
transform = "{1, 0, 0, 1, -53, 0}";
}
);
};
guideLines = (
{
position = "{361, 163}";
},
{
angle = 90;
position = "{425, 222}";
},
{
angle = 270;
position = "{288, 510}";
}
);
layerId = "4121B50C-FD42-45C5-8FBE-41E76D98F91E";
paths = (
{
closed = 1;
nodes = (
"476 -12 OFFCURVE",
"635 66 OFFCURVE",
"635 235 CURVE SMOOTH",
"635 327 OFFCURVE",
"571 398 OFFCURVE",
"467 422 CURVE SMOOTH",
"348 450 LINE SMOOTH",
"307 460 OFFCURVE",
"288 476 OFFCURVE",
"288 496 CURVE SMOOTH",
"288 522 OFFCURVE",
"323 542 OFFCURVE",
"387 542 CURVE SMOOTH",
"442 542 OFFCURVE",
"519 527 OFFCURVE",
"580 488 CURVE",
"652 641 LINE",
"572 693 OFFCURVE",
"475 717 OFFCURVE",
"388 717 CURVE SMOOTH",
"225 717 OFFCURVE",
"78 631 OFFCURVE",
"78 473 CURVE SMOOTH",
"78 381 OFFCURVE",
"142 310 OFFCURVE",
"246 286 CURVE SMOOTH",
"365 258 LINE SMOOTH",
"405 249 OFFCURVE",
"425 234 OFFCURVE",
"425 210 CURVE SMOOTH",
"425 184 OFFCURVE",
"392 163 OFFCURVE",
"326 163 CURVE SMOOTH",
"258 163 OFFCURVE",
"165 184 OFFCURVE",
"81 232 CURVE",
"13 70 LINE",
"93 16 OFFCURVE",
"201 -12 OFFCURVE",
"305 -12 CURVE SMOOTH"
);
}
);
width = 663;
}
);
leftKerningGroup = S;
rightKerningGroup = S;
unicode = 0053;
userData = {
anchors = (
);
b = {
};
com.typemytype.robofont.layerData = {
b = {
anchors = (
);
components = (
);
contours = (
);
lib = {
};
name = S;
unicodes = (
);
width = 1274;
};
};
components = (
);
contours = (
);
lib = {
};
name = S;
unicodes = (
);
width = 1317;
};
},
{
glyphname = Germandbls;
lastChange = "2019-09-24 06:53:51 +0000";
layers = (
{
background = {
anchors = (
{
name = bottom;
position = "{330, 0}";
},
{
name = top;
position = "{441, 705}";
}
);
paths = (
{
closed = 1;
nodes = (
"377 0 LINE SMOOTH",
"534 0 OFFCURVE",
"619 70 OFFCURVE",
"619 207 CURVE SMOOTH",
"619 290 OFFCURVE",
"563 349 OFFCURVE",
"474 363 CURVE",
"474 349 LINE",
"585 363 OFFCURVE",
"656 434 OFFCURVE",
"656 541 CURVE SMOOTH",
"656 643 OFFCURVE",
"586 705 OFFCURVE",
"448 705 CURVE SMOOTH",
"201 705 LINE",
"89 0 LINE"
);
},
{
closed = 1;
nodes = (
"185 337 LINE",
"410 337 LINE SMOOTH",
"516 337 OFFCURVE",
"575 292 OFFCURVE",
"575 206 CURVE SMOOTH",
"575 96 OFFCURVE",
"510 39 OFFCURVE",
"381 39 CURVE SMOOTH",
"138 39 LINE"
);
},
{
closed = 1;
nodes = (
"237 666 LINE",
"445 666 LINE SMOOTH",
"558 666 OFFCURVE",
"612 622 OFFCURVE",
"612 540 CURVE SMOOTH",
"612 435 OFFCURVE",
"536 376 OFFCURVE",
"418 376 CURVE SMOOTH",
"191 376 LINE"
);
}
);
};
layerId = "F1F93986-3ED8-4AAE-84C4-CA3EEECDDFA0";
paths = (
{
closed = 1;
nodes = (
"533 -8 OFFCURVE",
"618 68 OFFCURVE",
"618 205 CURVE SMOOTH",
"618 288 OFFCURVE",
"562 349 OFFCURVE",
"475 363 CURVE",
"475 349 LINE",
"566 363 OFFCURVE",
"637 431 OFFCURVE",
"637 538 CURVE SMOOTH",
"637 640 OFFCURVE",
"557 713 OFFCURVE",
"419 713 CURVE SMOOTH",
"251 713 OFFCURVE",
"158 634 OFFCURVE",
"133 472 CURVE SMOOTH",
"58 0 LINE",
"100 0 LINE",
"174 467 LINE SMOOTH",
"196 605 OFFCURVE",
"273 672 OFFCURVE",
"416 672 CURVE SMOOTH",
"529 672 OFFCURVE",
"593 619 OFFCURVE",
"593 537 CURVE SMOOTH",
"593 432 OFFCURVE",
"517 374 OFFCURVE",
"409 374 CURVE SMOOTH",
"277 374 LINE",
"270 335 LINE",
"411 335 LINE SMOOTH",
"515 335 OFFCURVE",
"574 290 OFFCURVE",
"574 204 CURVE SMOOTH",
"574 94 OFFCURVE",
"508 33 OFFCURVE",
"381 33 CURVE SMOOTH",
"316 33 OFFCURVE",
"259 54 OFFCURVE",
"209 95 CURVE",
"186 61 LINE",
"226 22 OFFCURVE",
"299 -8 OFFCURVE",
"378 -8 CURVE SMOOTH"
);
}
);
width = 697;
},
{
background = {
anchors = (
{
name = bottom;
position = "{375, 0}";
},
{
name = top;
position = "{486, 705}";
}
);
paths = (
{
closed = 1;
nodes = (
"454 0 LINE SMOOTH",
"618 0 OFFCURVE",
"725 76 OFFCURVE",
"725 212 CURVE SMOOTH",
"725 293 OFFCURVE",
"676 355 OFFCURVE",
"589 372 CURVE",
"589 355 LINE",
"687 373 OFFCURVE",
"756 437 OFFCURVE",
"756 534 CURVE SMOOTH",
"756 628 OFFCURVE",
"693 705 OFFCURVE",
"520 705 CURVE SMOOTH",
"186 705 LINE",
"74 0 LINE"
);
},
{
closed = 1;
nodes = (
"324 280 LINE",
"450 280 LINE SMOOTH",
"497 280 OFFCURVE",
"522 263 OFFCURVE",
"522 227 CURVE SMOOTH",
"522 183 OFFCURVE",
"496 156 OFFCURVE",
"440 156 CURVE SMOOTH",
"304 156 LINE"
);
},
{
closed = 1;
nodes = (
"366 549 LINE",
"483 549 LINE SMOOTH",
"532 549 OFFCURVE",
"552 533 OFFCURVE",
"552 505 CURVE SMOOTH",
"552 458 OFFCURVE",
"524 436 OFFCURVE",
"463 436 CURVE SMOOTH",
"348 436 LINE"
);
}
);
};
guideLines = (
{
position = "{463, 154}";
},
{
angle = 90;
position = "{519, 231}";
},
{
angle = 270;
position = "{717, 253}";
}
);
layerId = "4121B50C-FD42-45C5-8FBE-41E76D98F91E";
paths = (
{
closed = 1;
nodes = (
"632 -12 OFFCURVE",
"720 91 OFFCURVE",
"720 193 CURVE SMOOTH",
"720 274 OFFCURVE",
"671 352 OFFCURVE",
"576 370 CURVE",
"576 353 LINE",
"669 377 OFFCURVE",
"726 451 OFFCURVE",
"726 528 CURVE SMOOTH",
"726 625 OFFCURVE",
"632 717 OFFCURVE",
"448 717 CURVE SMOOTH",
"247 717 OFFCURVE",
"122 653 OFFCURVE",
"89 450 CURVE SMOOTH",
"18 0 LINE",
"233 0 LINE",
"301 430 LINE SMOOTH",
"314 511 OFFCURVE",
"345 548 OFFCURVE",
"430 548 CURVE SMOOTH",
"493 548 OFFCURVE",
"523 522 OFFCURVE",
"523 494 CURVE SMOOTH",
"523 447 OFFCURVE",
"496 432 OFFCURVE",
"444 432 CURVE SMOOTH",
"383 432 LINE",
"358 271 LINE",
"429 271 LINE SMOOTH",
"492 271 OFFCURVE",
"517 242 OFFCURVE",
"517 213 CURVE SMOOTH",
"517 182 OFFCURVE",
"491 154 OFFCURVE",
"457 154 CURVE SMOOTH",
"417 154 OFFCURVE",
"370 165 OFFCURVE",
"344 190 CURVE",
"275 46 LINE",
"336 8 OFFCURVE",
"380 -12 OFFCURVE",
"466 -12 CURVE SMOOTH"
);
}
);
width = 764;
},
{
associatedMasterId = "4121B50C-FD42-45C5-8FBE-41E76D98F91E";
background = {
anchors = (
{
name = bottom;
position = "{375, 0}";
},
{
name = top;
position = "{486, 705}";
}
);
paths = (
{
closed = 1;
nodes = (
"453 0 LINE SMOOTH",
"617 0 OFFCURVE",
"724 76 OFFCURVE",
"724 212 CURVE SMOOTH",
"724 293 OFFCURVE",
"675 355 OFFCURVE",
"588 372 CURVE",
"588 355 LINE",
"686 373 OFFCURVE",
"755 437 OFFCURVE",
"755 534 CURVE SMOOTH",
"755 628 OFFCURVE",
"692 705 OFFCURVE",
"519 705 CURVE SMOOTH",
"186 705 LINE",
"74 0 LINE"
);
},
{
closed = 1;
nodes = (
"324 280 LINE",
"449 280 LINE SMOOTH",
"496 280 OFFCURVE",
"521 263 OFFCURVE",
"521 227 CURVE SMOOTH",
"521 183 OFFCURVE",
"495 156 OFFCURVE",
"439 156 CURVE SMOOTH",
"304 156 LINE"
);
},
{
closed = 1;
nodes = (
"366 549 LINE",
"482 549 LINE SMOOTH",
"531 549 OFFCURVE",
"551 533 OFFCURVE",
"551 505 CURVE SMOOTH",
"551 458 OFFCURVE",
"523 436 OFFCURVE",
"462 436 CURVE SMOOTH",
"348 436 LINE"
);
}
);
};
layerId = "1FDEA5E7-1D95-4918-A0FC-5BD1053E9CA8";
name = "Sep 17 19, 14:24";
paths = (
{
closed = 1;
nodes = (
"233 0 LINE",
"301 430 LINE SMOOTH",
"314 511 OFFCURVE",
"359 548 OFFCURVE",
"444 548 CURVE SMOOTH",
"508 548 OFFCURVE",
"536 529 OFFCURVE",
"529 490 CURVE SMOOTH",
"523 452 OFFCURVE",
"493 432 OFFCURVE",
"441 432 CURVE SMOOTH",
"383 432 LINE",
"358 271 LINE",
"428 271 LINE SMOOTH",
"500 271 OFFCURVE",
"528 253 OFFCURVE",
"521 211 CURVE SMOOTH",
"516 177 OFFCURVE",
"487 154 OFFCURVE",
"449 154 CURVE SMOOTH",
"411 154 OFFCURVE",
"381 164 OFFCURVE",
"344 188 CURVE",
"265 38 LINE",
"317 1 OFFCURVE",
"368 -12 OFFCURVE",
"449 -12 CURVE SMOOTH",
"599 -12 OFFCURVE",
"701 67 OFFCURVE",
"722 195 CURVE SMOOTH",
"737 293 OFFCURVE",
"686 365 OFFCURVE",
"593 375 CURVE",
"590 354 LINE",
"673 384 OFFCURVE",
"725 444 OFFCURVE",
"737 520 CURVE SMOOTH",
"756 641 OFFCURVE",
"659 716 OFFCURVE",
"484 716 CURVE SMOOTH",
"254 716 OFFCURVE",
"115 617 OFFCURVE",
"86 430 CURVE SMOOTH",
"18 0 LINE"
);
}
);
width = 764;
},
{
associatedMasterId = "F1F93986-3ED8-4AAE-84C4-CA3EEECDDFA0";
background = {
anchors = (
{
name = bottom;
position = "{330, 0}";
},
{
name = top;
position = "{441, 705}";
}
);
paths = (
{
closed = 1;
nodes = (
"377 0 LINE SMOOTH",
"534 0 OFFCURVE",
"619 70 OFFCURVE",
"619 207 CURVE SMOOTH",
"619 290 OFFCURVE",
"563 349 OFFCURVE",
"474 363 CURVE",
"474 349 LINE",
"585 363 OFFCURVE",
"656 434 OFFCURVE",
"656 541 CURVE SMOOTH",
"656 643 OFFCURVE",
"586 705 OFFCURVE",
"448 705 CURVE SMOOTH",
"201 705 LINE",
"89 0 LINE"
);
},
{
closed = 1;
nodes = (
"185 337 LINE",
"410 337 LINE SMOOTH",
"516 337 OFFCURVE",
"575 292 OFFCURVE",
"575 206 CURVE SMOOTH",
"575 96 OFFCURVE",
"510 39 OFFCURVE",
"381 39 CURVE SMOOTH",
"138 39 LINE"
);
},
{
closed = 1;
nodes = (
"237 666 LINE",
"445 666 LINE SMOOTH",
"558 666 OFFCURVE",
"612 622 OFFCURVE",
"612 540 CURVE SMOOTH",
"612 435 OFFCURVE",
"536 376 OFFCURVE",
"418 376 CURVE SMOOTH",
"191 376 LINE"
);
}
);
};
layerId = "19E4B293-BB8E-4099-A587-7552E10CE008";
name = "Sep 17 19, 16:50";
paths = (
{
closed = 1;
nodes = (
"507 -7 OFFCURVE",
"597 62 OFFCURVE",
"617 186 CURVE SMOOTH",
"633 290 OFFCURVE",
"577 354 OFFCURVE",
"475 367 CURVE",
"473 353 LINE",
"557 370 OFFCURVE",
"619 440 OFFCURVE",
"633 529 CURVE SMOOTH",
"651 643 OFFCURVE",
"572 713 OFFCURVE",
"432 713 CURVE SMOOTH",
"269 713 OFFCURVE",
"157 630 OFFCURVE",
"132 470 CURVE SMOOTH",
"57 0 LINE",
"99 0 LINE",
"173 467 LINE SMOOTH",
"195 604 OFFCURVE",
"283 673 OFFCURVE",
"427 673 CURVE SMOOTH",
"546 673 OFFCURVE",
"604 621 OFFCURVE",
"588 524 CURVE SMOOTH",
"573 427 OFFCURVE",
"499 374 OFFCURVE",
"396 374 CURVE SMOOTH",
"276 374 LINE",
"269 335 LINE",
"416 335 LINE SMOOTH",
"537 335 OFFCURVE",
"588 281 OFFCURVE",
"573 186 CURVE SMOOTH",
"558 91 OFFCURVE",
"490 33 OFFCURVE",
"380 33 CURVE SMOOTH",
"310 33 OFFCURVE",
"259 50 OFFCURVE",
"215 97 CURVE",
"187 62 LINE",
"226 17 OFFCURVE",
"292 -7 OFFCURVE",
"373 -7 CURVE SMOOTH"
);
}
);
visible = 1;
width = 697;
}
);
leftKerningGroup = H;
leftMetricsKey = H;
rightKerningGroup = Germandbls;
rightMetricsKey = B;
unicode = 1E9E;
},
{
glyphname = Schwa;
lastChange = "2019-10-04 08:49:22 +0000";
layers = (
{
anchors = (
{
name = bottom;
position = "{332, 0}";
},
{
name = top;
position = "{444, 705}";
}
);
background = {
anchors = (
{
name = Qtail;
position = "{347, -8}";
},
{
name = bottom;
position = "{332, 0}";
},
{
name = center;
position = "{393, 353}";
},
{
name = ogonek;
position = "{391, 0}";
},
{
name = top;
position = "{444, 705}";
},
{
name = topleft;
position = "{99, 705}";
},
{
name = topright;
position = "{501, 705}";
}
);
paths = (
{
closed = 1;
nodes = (
"585 -8 OFFCURVE",
"704 179 OFFCURVE",
"704 416 CURVE SMOOTH",
"704 609 OFFCURVE",
"597 713 OFFCURVE",
"429 713 CURVE SMOOTH",
"201 713 OFFCURVE",
"82 526 OFFCURVE",
"82 289 CURVE SMOOTH",
"82 96 OFFCURVE",
"189 -8 OFFCURVE",
"357 -8 CURVE SMOOTH"
);
},
{
closed = 1;
nodes = (
"214 33 OFFCURVE",
"127 116 OFFCURVE",
"127 289 CURVE SMOOTH",
"127 507 OFFCURVE",
"232 672 OFFCURVE",
"426 672 CURVE SMOOTH",
"572 672 OFFCURVE",
"659 589 OFFCURVE",
"659 416 CURVE SMOOTH",
"659 199 OFFCURVE",
"554 33 OFFCURVE",
"359 33 CURVE SMOOTH"
);
}
);
};
guideLines = (
{
position = "{-407, 586}";
}
);
layerId = "F1F93986-3ED8-4AAE-84C4-CA3EEECDDFA0";
paths = (
{
closed = 1;
nodes = (
"573 -8 OFFCURVE",
"704 162 OFFCURVE",
"704 416 CURVE SMOOTH",
"704 587 OFFCURVE",
"586 713 OFFCURVE",
"412 713 CURVE SMOOTH",
"294 713 OFFCURVE",
"202 684 OFFCURVE",
"134 619 CURVE",
"153 583 LINE",
"224 646 OFFCURVE",
"292 672 OFFCURVE",
"405 672 CURVE SMOOTH",
"561 672 OFFCURVE",
"659 570 OFFCURVE",
"659 416 CURVE SMOOTH",
"659 199 OFFCURVE",
"554 33 OFFCURVE",
"358 33 CURVE SMOOTH",
"163 33 OFFCURVE",
"103 178 OFFCURVE",
"127 353 CURVE",
"113 337 LINE",
"656 337 LINE",
"662 376 LINE",
"87 376 LINE",
"83 349 LINE SMOOTH",
"56 170 OFFCURVE",
"135 -8 OFFCURVE",
"352 -8 CURVE SMOOTH"
);
}
);
width = 751;
},
{
anchors = (
{
name = bottom;
position = "{376, 0}";
},
{
name = top;
position = "{487, 705}";
}
);
background = {
paths = (
{
closed = 1;
nodes = (
"635 -12 OFFCURVE",
"796 151 OFFCURVE",
"796 397 CURVE SMOOTH",
"796 597 OFFCURVE",
"658 717 OFFCURVE",
"449 717 CURVE SMOOTH",
"219 717 OFFCURVE",
"58 554 OFFCURVE",
"58 308 CURVE SMOOTH",
"58 108 OFFCURVE",
"196 -12 OFFCURVE",
"404 -12 CURVE SMOOTH"
);
},
{
closed = 1;
nodes = (
"329 167 OFFCURVE",
"281 214 OFFCURVE",
"281 312 CURVE SMOOTH",
"281 448 OFFCURVE",
"343 538 OFFCURVE",
"446 538 CURVE SMOOTH",
"524 538 OFFCURVE",
"573 491 OFFCURVE",
"573 393 CURVE SMOOTH",
"573 257 OFFCURVE",
"510 167 OFFCURVE",
"407 167 CURVE SMOOTH"
);
}
);
};
layerId = "4121B50C-FD42-45C5-8FBE-41E76D98F91E";
paths = (
{
closed = 1;
nodes = (
"679 -12 OFFCURVE",
"795 193 OFFCURVE",
"795 383 CURVE SMOOTH",
"795 592 OFFCURVE",
"644 717 OFFCURVE",
"427 717 CURVE SMOOTH",
"301 717 OFFCURVE",
"192 688 OFFCURVE",
"110 646 CURVE",
"173 482 LINE",
"238 517 OFFCURVE",
"324 538 OFFCURVE",
"396 538 CURVE SMOOTH",
"511 538 OFFCURVE",
"572 487 OFFCURVE",
"572 393 CURVE SMOOTH",
"572 268 OFFCURVE",
"527 158 OFFCURVE",
"406 158 CURVE SMOOTH",
"309 158 OFFCURVE",
"255 218 OFFCURVE",
"277 353 CURVE",
"208 271 LINE",
"615 271 LINE",
"640 432 LINE",
"72 432 LINE",
"65 390 LINE SMOOTH",
"24 147 OFFCURVE",
"172 -12 OFFCURVE",
"399 -12 CURVE SMOOTH"
);
}
);
width = 820;
}
);
leftKerningGroup = O;
leftMetricsKey = O;
rightKerningGroup = O;
rightMetricsKey = O;
unicode = 018F;
},
{
color = 3;
glyphname = T;
lastChange = "2019-10-04 14:51:35 +0000";
layers = (
{
anchors = (
{
name = bottom;
position = "{254, 0}";
},
{
name = center;
position = "{311, 358}";
},
{
name = top;
position = "{366, 705}";
}
);
background = {
anchors = (
{
name = bottom;
position = "{254, 0}";
},
{
name = center;
position = "{311, 358}";
},
{
name = top;
position = "{366, 705}";
}
);
paths = (
{
closed = 1;
nodes = (
"275 0 LINE",
"381 666 LINE",
"650 666 LINE",
"656 705 LINE",
"76 705 LINE",
"70 666 LINE",
"339 666 LINE",
"233 0 LINE"
);
}
);
};
layerId = "F1F93986-3ED8-4AAE-84C4-CA3EEECDDFA0";
paths = (
{
closed = 1;
nodes = (
"275 0 LINE",
"381 666 LINE",
"650 666 LINE",
"656 705 LINE",
"76 705 LINE",
"70 666 LINE",
"339 666 LINE",
"233 0 LINE"
);
}
);
width = 586;
},
{
anchors = (
{
name = bottom;
position = "{291, 0}";
},
{
name = center;
position = "{346, 358}";
},
{
name = top;
position = "{398, 705}";
}
);
background = {
anchors = (
{
name = bottom;
position = "{290, 0}";
},
{
name = center;
position = "{345, 358}";
},
{
name = top;
position = "{400, 705}";
}
);
paths = (
{
closed = 1;
nodes = (
"397 0 LINE",
"481 531 LINE",
"695 531 LINE",
"722 705 LINE",
"79 705 LINE",
"52 531 LINE",
"266 531 LINE",
"182 0 LINE"
);
}
);
};
layerId = "4121B50C-FD42-45C5-8FBE-41E76D98F91E";
paths = (
{
closed = 1;
nodes = (
"397 0 LINE",
"481 531 LINE",
"695 531 LINE",
"723 705 LINE",
"80 705 LINE",
"52 531 LINE",
"266 531 LINE",
"182 0 LINE"
);
}
);
width = 657;
}
);
leftKerningGroup = T;
rightKerningGroup = T;
unicode = 0054;
userData = {
anchors = (
);
b = {
};
com.typemytype.robofont.layerData = {
b = {
anchors = (
);
components = (
);
contours = (
{
points = (
{
segmentType = curve;
smooth = 1;
x = 581;
y = 0;
},
{
segmentType = line;
smooth = 1;
x = 1350;
y = 0;
},
{
smooth = 0;
x = 1399;
y = 0;
},
{
smooth = 0;
x = 1423;
y = 34;
},
{
segmentType = curve;
smooth = 1;
x = 1423;
y = 71;
},
{
smooth = 0;
x = 1423;
y = 107;
},
{
smooth = 0;
x = 1399;
y = 141;
},
{
segmentType = curve;
smooth = 1;
x = 1350;
y = 141;
},
{
segmentType = line;
smooth = 0;
x = 671;
y = 141;
},
{
segmentType = line;
smooth = 0;
x = 671;
y = 665;
},
{
segmentType = line;
smooth = 1;
x = 1290;
y = 665;
},
{
smooth = 0;
x = 1339;
y = 665;
},
{
smooth = 0;
x = 1364;
y = 698;
},
{
segmentType = curve;
smooth = 1;
x = 1364;
y = 734;
},
{
smooth = 0;
x = 1364;
y = 770;
},
{
smooth = 0;
x = 1341;
y = 803;
},
{
segmentType = curve;
smooth = 1;
x = 1290;
y = 803;
},
{
segmentType = line;
smooth = 0;
x = 671;
y = 803;
},
{
segmentType = line;
smooth = 0;
x = 671;
y = 1285;
},
{
segmentType = line;
smooth = 1;
x = 1322;
y = 1285;
},
{
smooth = 0;
x = 1371;
y = 1285;
},
{
smooth = 0;
x = 1395;
y = 1319;
},
{
segmentType = curve;
smooth = 1;
x = 1395;
y = 1356;
},
{
smooth = 0;
x = 1395;
y = 1392;
},
{
smooth = 0;
x = 1371;
y = 1426;
},
{
segmentType = curve;
smooth = 1;
x = 1322;
y = 1426;
},
{
segmentType = line;
smooth = 1;
x = 576;
y = 1426;
},
{
smooth = 0;
x = 528;
y = 1426;
},
{
smooth = 0;
x = 493;
y = 1383;
},
{
segmentType = curve;
smooth = 1;
x = 493;
y = 1340;
},
{
segmentType = line;
smooth = 1;
x = 493;
y = 86;
},
{
smooth = 0;
x = 493;
y = 41;
},
{
smooth = 0;
x = 537;
y = 0;
}
);
}
);
lib = {
};
name = T;
unicodes = (
);
width = 1158;
};
};
components = (
);
contours = (
);
lib = {
};
name = T;
unicodes = (
);
width = 1199;
};
},
{
color = 9;
glyphname = U;
lastChange = "2019-10-08 11:53:45 +0000";
layers = (
{
anchors = (
{
name = bottom;
position = "{322, 0}";
},
{
name = ogonek;
position = "{384, 0}";
},
{
name = top;
position = "{433, 705}";
},
{
name = topright;
position = "{660, 705}";
}
);
background = {
paths = (
{
closed = 0;
nodes = (
"95 266 LINE SMOOTH",
"69 100 OFFCURVE",
"144 -8 OFFCURVE",
"328 -8 CURVE SMOOTH",
"498 -8 OFFCURVE",
"602 78 OFFCURVE",
"632 268 CURVE SMOOTH"
);
},
{
closed = 0;
nodes = (
"590 261 LINE SMOOTH",
"568 107 OFFCURVE",
"483 33 OFFCURVE",
"327 33 CURVE SMOOTH",
"179 33 OFFCURVE",
"115 115 OFFCURVE",
"139 280 CURVE SMOOTH"
);
}
);
};
layerId = "F1F93986-3ED8-4AAE-84C4-CA3EEECDDFA0";
paths = (
{
closed = 1;
nodes = (
"506 -8 OFFCURVE",
"604 81 OFFCURVE",
"632 261 CURVE SMOOTH",
"702 705 LINE",
"660 705 LINE",
"591 270 LINE SMOOTH",
"564 103 OFFCURVE",
"480 33 OFFCURVE",
"330 33 CURVE SMOOTH",
"179 33 OFFCURVE",
"114 114 OFFCURVE",
"140 282 CURVE SMOOTH",
"207 705 LINE",
"165 705 LINE",
"99 288 LINE SMOOTH",
"68 92 OFFCURVE",
"154 -8 OFFCURVE",
"330 -8 CURVE SMOOTH"
);
}
);
width = 720;
},
{
anchors = (
{
name = bottom;
position = "{346, 0}";
},
{
name = ogonek;
position = "{408, 0}";
},
{
name = top;
position = "{448, 705}";
},
{
name = topright;
position = "{620, 705}";
}
);
background = {
anchors = (
{
name = bottom;
position = "{340, 0}";
},
{
name = ogonek;
position = "{398, 0}";
},
{
name = top;
position = "{451, 705}";
},
{
name = topright;
position = "{629, 705}";
}
);
paths = (
{
closed = 1;
nodes = (
"550 -12 OFFCURVE",
"677 93 OFFCURVE",
"711 307 CURVE SMOOTH",
"774 705 LINE",
"563 705 LINE",
"500 303 LINE SMOOTH",
"485 213 OFFCURVE",
"438 167 OFFCURVE",
"366 167 CURVE SMOOTH",
"294 167 OFFCURVE",
"261 213 OFFCURVE",
"276 303 CURVE SMOOTH",
"339 705 LINE",
"124 705 LINE",
"61 307 LINE SMOOTH",
"27 93 OFFCURVE",
"126 -12 OFFCURVE",
"338 -12 CURVE SMOOTH"
);
}
);
};
guideLines = (
{
angle = 81.1065;
position = "{446, 515}";
},
{
position = "{451, 705}";
}
);
layerId = "4121B50C-FD42-45C5-8FBE-41E76D98F91E";
paths = (
{
closed = 1;
nodes = (
"578 -12 OFFCURVE",
"679 99 OFFCURVE",
"710 296 CURVE SMOOTH",
"774 705 LINE",
"563 705 LINE",
"497 284 LINE SMOOTH",
"485 205 OFFCURVE",
"440 166 OFFCURVE",
"372 166 CURVE SMOOTH",
"293 166 OFFCURVE",
"265 224 OFFCURVE",
"279 314 CURVE SMOOTH",
"339 705 LINE",
"124 705 LINE",
"64 325 LINE SMOOTH",
"27 95 OFFCURVE",
"169 -12 OFFCURVE",
"354 -12 CURVE SMOOTH"
);
}
);
width = 754;
}
);
leftKerningGroup = U;
rightKerningGroup = U;
unicode = 0055;
userData = {
anchors = (
);
b = {
};
com.typemytype.robofont.layerData = {
b = {
anchors = (
);
components = (
);
contours = (
);
lib = {
};
name = U;
unicodes = (
);
width = 1490;
};
};
components = (
);
contours = (
);
lib = {
};
name = U;
unicodes = (
);
width = 1513;
};
},
{
color = 9;
glyphname = V;
lastChange = "2019-09-17 10:28:16 +0000";
layers = (
{
anchors = (
{
name = bottom;
position = "{295, 0}";
},
{
name = top;
position = "{406, 705}";
}
);
background = {
anchors = (
{
name = bottom;
position = "{295, 0}";
},
{
name = top;
position = "{406, 705}";
}
);
paths = (
{
closed = 1;
nodes = (
"317 0 LINE",
"732 705 LINE",
"688 705 LINE",
"288 24 LINE",
"311 24 LINE",
"126 705 LINE",
"81 705 LINE",
"272 0 LINE"
);
}
);
};
layerId = "F1F93986-3ED8-4AAE-84C4-CA3EEECDDFA0";
paths = (
{
closed = 1;
nodes = (
"316 0 LINE",
"732 705 LINE",
"684 705 LINE",
"284 24 LINE",
"308 24 LINE",
"124 705 LINE",
"81 705 LINE",
"271 0 LINE"
);
}
);
width = 666;
},
{
anchors = (
{
name = bottom;
position = "{340, 0}";
},
{
name = top;
position = "{450, 705}";
}
);
background = {
anchors = (
{
name = bottom;
position = "{341, 0}";
},
{
name = top;
position = "{451, 705}";
}
);
paths = (
{
closed = 1;
nodes = (
"425 0 LINE",
"861 705 LINE",
"641 705 LINE",
"345 203 LINE",
"408 203 LINE",
"271 705 LINE",
"42 705 LINE",
"256 0 LINE"
);
}
);
};
layerId = "4121B50C-FD42-45C5-8FBE-41E76D98F91E";
paths = (
{
closed = 1;
nodes = (
"425 0 LINE",
"861 705 LINE",
"626 705 LINE",
"330 203 LINE",
"392 203 LINE",
"256 705 LINE",
"42 705 LINE",
"256 0 LINE"
);
}
);
width = 759;
}
);
leftKerningGroup = V;
rightKerningGroup = V;
unicode = 0056;
userData = {
anchors = (
);
b = {
};
com.typemytype.robofont.guides = (
);
com.typemytype.robofont.layerData = {
b = {
anchors = (
);
components = (
);
contours = (
{
points = (
{
segmentType = curve;
smooth = 1;
x = 644;
y = "-5";
},
{
smooth = 0;
x = 712;
y = "-5";
},
{
smooth = 0;
x = 764;
y = 38;
},
{
segmentType = curve;
smooth = 1;
x = 793;
y = 117;
},
{
segmentType = line;
smooth = 1;
x = 1243;
y = 1324;
},
{
smooth = 0;
x = 1247;
y = 1335;
},
{
smooth = 0;
x = 1248;
y = 1342;
},
{
segmentType = curve;
smooth = 1;
x = 1248;
y = 1351;
},
{
smooth = 0;
x = 1248;
y = 1395;
},
{
smooth = 0;
x = 1203;
y = 1427;
},
{
segmentType = curve;
smooth = 1;
x = 1160;
y = 1427;
},
{
smooth = 0;
x = 1125;
y = 1427;
},
{
smooth = 0;
x = 1090;
y = 1408;
},
{
segmentType = curve;
smooth = 1;
x = 1076;
y = 1369;
},
{
segmentType = line;
smooth = 0;
x = 651;
y = 192;
},
{
segmentType = line;
smooth = 0;
x = 650;
y = 190;
},
{
segmentType = line;
smooth = 1;
x = 214;
y = 1370;
},
{
smooth = 0;
x = 200;
y = 1407;
},
{
smooth = 0;
x = 170;
y = 1427;
},
{
segmentType = curve;
smooth = 1;
x = 135;
y = 1427;
},
{
smooth = 0;
x = 90;
y = 1427;
},
{
smooth = 0;
x = 43;
y = 1392;
},
{
segmentType = curve;
smooth = 1;
x = 43;
y = 1344;
},
{
smooth = 0;
x = 43;
y = 1336;
},
{
smooth = 0;
x = 44;
y = 1326;
},
{
segmentType = curve;
smooth = 0;
x = 48;
y = 1318;
},
{
segmentType = line;
smooth = 1;
x = 501;
y = 117;
},
{
smooth = 0;
x = 532;
y = 35;
},
{
smooth = 0;
x = 581;
y = "-5";
}
);
}
);
lib = {
};
name = V;
unicodes = (
);
width = 1289;
};
};
components = (
);
contours = (
);
lib = {
};
name = V;
unicodes = (
);
width = 1365;
};
},
{
color = 9;
glyphname = W;
lastChange = "2019-10-04 14:55:28 +0000";
layers = (
{
anchors = (
{
name = bottom;
position = "{507, 0}";
},
{
name = top;
position = "{618, 705}";
}
);
background = {
anchors = (
{
name = bottom;
position = "{507, 0}";
},
{
name = top;
position = "{618, 705}";
}
);
paths = (
{
closed = 1;
nodes = (
"284 0 LINE",
"623 671 LINE",
"603 671 LINE",
"727 0 LINE",
"770 0 LINE",
"1126 705 LINE",
"1083 705 LINE",
"737 19 LINE",
"765 19 LINE",
"637 705 LINE",
"598 705 LINE",
"252 19 LINE",
"282 19 LINE",
"155 705 LINE",
"111 705 LINE",
"243 0 LINE"
);
}
);
};
layerId = "F1F93986-3ED8-4AAE-84C4-CA3EEECDDFA0";
paths = (
{
closed = 1;
nodes = (
"284 0 LINE",
"622 671 LINE",
"602 671 LINE",
"727 0 LINE",
"770 0 LINE",
"1126 705 LINE",
"1080 705 LINE",
"735 19 LINE",
"762 19 LINE",
"634 705 LINE",
"595 705 LINE",
"249 19 LINE",
"280 19 LINE",
"153 705 LINE",
"111 705 LINE",
"243 0 LINE"
);
}
);
width = 1091;
},
{
anchors = (
{
name = bottom;
position = "{528, 0}";
},
{
name = top;
position = "{635, 705}";
}
);
background = {
anchors = (
{
name = bottom;
position = "{529, 0}";
},
{
name = top;
position = "{641, 705}";
}
);
paths = (
{
closed = 1;
nodes = (
"392 0 LINE",
"609 412 LINE",
"583 412 LINE",
"666 0 LINE",
"836 0 LINE",
"1204 705 LINE",
"998 705 LINE",
"764 234 LINE",
"806 234 LINE",
"723 705 LINE",
"572 705 LINE",
"328 234 LINE",
"378 234 LINE",
"297 705 LINE",
"77 705 LINE",
"221 0 LINE"
);
}
);
};
layerId = "4121B50C-FD42-45C5-8FBE-41E76D98F91E";
paths = (
{
closed = 1;
nodes = (
"392 0 LINE",
"609 411 LINE",
"583 411 LINE",
"666 0 LINE",
"836 0 LINE",
"1204 705 LINE",
"986 705 LINE",
"751 234 LINE",
"796 234 LINE",
"713 705 LINE",
"561 705 LINE",
"317 234 LINE",
"365 234 LINE",
"284 705 LINE",
"77 705 LINE",
"221 0 LINE"
);
}
);
width = 1136;
}
);
leftKerningGroup = V;
rightKerningGroup = V;
unicode = 0057;
userData = {
anchors = (
);
b = {
};
com.typemytype.robofont.layerData = {
b = {
anchors = (
);
components = (
);
contours = (
);
lib = {
};
name = W;
unicodes = (
);
width = 2126;
};
};
components = (
);
contours = (
);
lib = {
};
name = W;
unicodes = (
);
width = 2070;
};
},
{
color = 9;
glyphname = X;
lastChange = "2019-09-17 10:28:16 +0000";
layers = (
{
anchors = (
{
name = bottom;
position = "{278, 0}";
},
{
name = top;
position = "{390, 705}";
}
);
background = {
anchors = (
{
name = bottom;
position = "{277, 0}";
},
{
name = top;
position = "{389, 705}";
}
);
paths = (
{
closed = 1;
nodes = (
"665 705 LINE",
"615 705 LINE",
"334 387 LINE",
"346 387 LINE",
"162 705 LINE",
"112 705 LINE",
"313 357 LINE",
"314 367 LINE",
"-15 0 LINE",
"36 0 LINE",
"342 342 LINE",
"321 342 LINE",
"517 0 LINE",
"568 0 LINE",
"355 367 LINE",
"354 357 LINE"
);
}
);
};
guideLines = (
{
position = "{168, 362}";
}
);
layerId = "F1F93986-3ED8-4AAE-84C4-CA3EEECDDFA0";
paths = (
{
closed = 1;
nodes = (
"39 0 LINE",
"344 342 LINE",
"325 342 LINE",
"523 0 LINE",
"569 0 LINE",
"354 371 LINE",
"354 352 LINE",
"666 705 LINE",
"613 705 LINE",
"333 387 LINE",
"343 387 LINE",
"160 705 LINE",
"114 705 LINE",
"315 357 LINE",
"315 368 LINE",
"-14 0 LINE"
);
}
);
width = 631;
},
{
anchors = (
{
name = bottom;
position = "{316, 0}";
},
{
name = top;
position = "{425, 705}";
}
);
background = {
anchors = (
{
name = bottom;
position = "{319, 0}";
},
{
name = top;
position = "{428, 705}";
}
);
paths = (
{
closed = 1;
nodes = (
"818 705 LINE",
"568 705 LINE",
"355 461 LINE",
"425 461 LINE",
"289 705 LINE",
"40 705 LINE",
"281 305 LINE",
"297 404 LINE",
"-75 0 LINE",
"175 0 LINE",
"390 245 LINE",
"323 245 LINE",
"460 0 LINE",
"710 0 LINE",
"466 404 LINE",
"450 305 LINE"
);
}
);
};
layerId = "4121B50C-FD42-45C5-8FBE-41E76D98F91E";
paths = (
{
closed = 1;
nodes = (
"185 0 LINE",
"381 245 LINE",
"331 245 LINE",
"473 0 LINE",
"710 0 LINE",
"465 404 LINE",
"465 306 LINE",
"819 705 LINE",
"558 705 LINE",
"360 461 LINE",
"411 461 LINE",
"274 705 LINE",
"39 705 LINE",
"281 306 LINE",
"281 404 LINE",
"-75 0 LINE"
);
}
);
width = 713;
}
);
leftKerningGroup = X;
rightKerningGroup = X;
unicode = 0058;
userData = {
anchors = (
);
b = {
};
com.typemytype.robofont.layerData = {
b = {
anchors = (
);
components = (
);
contours = (
{
points = (
{
segmentType = curve;
smooth = 1;
x = 151;
y = 0;
},
{
smooth = 0;
x = 176;
y = 0;
},
{
smooth = 0;
x = 201;
y = 12;
},
{
segmentType = curve;
smooth = 1;
x = 222;
y = 41;
},
{
segmentType = line;
smooth = 0;
x = 641;
y = 616;
},
{
segmentType = line;
smooth = 0;
x = 746;
y = 734;
},
{
segmentType = line;
smooth = 1;
x = 1175;
y = 1310;
},
{
smooth = 0;
x = 1186;
y = 1325;
},
{
smooth = 0;
x = 1190;
y = 1338;
},
{
segmentType = curve;
smooth = 1;
x = 1190;
y = 1353;
},
{
smooth = 0;
x = 1190;
y = 1393;
},
{
smooth = 0;
x = 1153;
y = 1426;
},
{
segmentType = curve;
smooth = 1;
x = 1110;
y = 1426;
},
{
smooth = 0;
x = 1083;
y = 1426;
},
{
smooth = 0;
x = 1058;
y = 1414;
},
{
segmentType = curve;
smooth = 1;
x = 1037;
y = 1385;
},
{
segmentType = line;
smooth = 0;
x = 648;
y = 844;
},
{
segmentType = line;
smooth = 0;
x = 542;
y = 732;
},
{
segmentType = line;
smooth = 1;
x = 84;
y = 121;
},
{
smooth = 0;
x = 73;
y = 106;
},
{
smooth = 0;
x = 68;
y = 91;
},
{
segmentType = curve;
smooth = 1;
x = 68;
y = 76;
},
{
smooth = 0;
x = 68;
y = 35;
},
{
smooth = 0;
x = 108;
y = 0;
}
);
},
{
points = (
{
segmentType = curve;
smooth = 1;
x = 1104;
y = 0;
},
{
smooth = 0;
x = 1151;
y = 0;
},
{
smooth = 0;
x = 1200;
y = 40;
},
{
segmentType = curve;
smooth = 1;
x = 1200;
y = 85;
},
{
smooth = 0;
x = 1200;
y = 98;
},
{
smooth = 0;
x = 1195;
y = 113;
},
{
segmentType = curve;
smooth = 0;
x = 1186;
y = 126;
},
{
segmentType = line;
smooth = 0;
x = 272;
y = 1385;
},
{
smooth = 0;
x = 252;
y = 1414;
},
{
smooth = 0;
x = 225;
y = 1426;
},
{
segmentType = curve;
smooth = 1;
x = 197;
y = 1426;
},
{
smooth = 0;
x = 149;
y = 1426;
},
{
smooth = 0;
x = 100;
y = 1388;
},
{
segmentType = curve;
smooth = 1;
x = 100;
y = 1343;
},
{
smooth = 0;
x = 100;
y = 1328;
},
{
smooth = 0;
x = 105;
y = 1315;
},
{
segmentType = curve;
smooth = 0;
x = 114;
y = 1303;
},
{
segmentType = line;
smooth = 0;
x = 1033;
y = 40;
},
{
smooth = 0;
x = 1052;
y = 13;
},
{
smooth = 0;
x = 1076;
y = 0;
}
);
}
);
lib = {
};
name = X;
unicodes = (
);
width = 1274;
};
};
components = (
);
contours = (
);
lib = {
};
name = X;
unicodes = (
);
width = 1322;
};
},
{
color = 9;
glyphname = Y;
lastChange = "2019-10-08 11:51:30 +0000";
layers = (
{
anchors = (
{
name = bottom;
position = "{249, 0}";
},
{
name = top;
position = "{356, 705}";
},
{
name = topleft;
position = "{90, 705}";
}
);
background = {
anchors = (
{
name = bottom;
position = "{249, 0}";
},
{
name = top;
position = "{361, 705}";
},
{
name = topleft;
position = "{90, 705}";
}
);
paths = (
{
closed = 1;
nodes = (
"270 0 LINE",
"328 367 LINE",
"312 328 LINE",
"651 705 LINE",
"604 705 LINE",
"302 368 LINE",
"317 368 LINE",
"121 705 LINE",
"72 705 LINE",
"291 328 LINE",
"286 367 LINE",
"228 0 LINE"
);
}
);
};
layerId = "F1F93986-3ED8-4AAE-84C4-CA3EEECDDFA0";
paths = (
{
closed = 1;
nodes = (
"270 0 LINE",
"328 367 LINE",
"311 328 LINE",
"651 705 LINE",
"599 705 LINE",
"296 368 LINE",
"312 368 LINE",
"117 705 LINE",
"72 705 LINE",
"290 328 LINE",
"286 367 LINE",
"228 0 LINE"
);
}
);
width = 577;
},
{
anchors = (
{
name = bottom;
position = "{291, 0}";
},
{
name = top;
position = "{385, 705}";
},
{
name = topleft;
position = "{87, 705}";
}
);
background = {
anchors = (
{
name = bottom;
position = "{292, 0}";
},
{
name = top;
position = "{401, 705}";
},
{
name = topleft;
position = "{88, 705}";
}
);
paths = (
{
closed = 1;
nodes = (
"398 0 LINE",
"455 359 LINE",
"393 243 LINE",
"780 705 LINE",
"540 705 LINE",
"347 467 LINE",
"388 467 LINE",
"269 705 LINE",
"22 705 LINE",
"264 243 LINE",
"240 359 LINE",
"183 0 LINE"
);
}
);
};
layerId = "4121B50C-FD42-45C5-8FBE-41E76D98F91E";
paths = (
{
closed = 1;
nodes = (
"398 0 LINE",
"455 359 LINE",
"393 243 LINE",
"780 705 LINE",
"527 705 LINE",
"334 466 LINE",
"374 466 LINE",
"256 705 LINE",
"22 705 LINE",
"265 243 LINE",
"240 359 LINE",
"183 0 LINE"
);
}
);
width = 660;
}
);
leftKerningGroup = Y;
rightKerningGroup = Y;
unicode = 0059;
userData = {
anchors = (
);
b = {
};
com.typemytype.robofont.guides = (
);
com.typemytype.robofont.layerData = {
b = {
anchors = (
);
components = (
);
contours = (
{
points = (
{
segmentType = curve;
smooth = 1;
x = 641;
y = 0;
},
{
smooth = 0;
x = 685;
y = 0;
},
{
smooth = 0;
x = 730;
y = 29;
},
{
segmentType = curve;
smooth = 1;
x = 730;
y = 85;
},
{
segmentType = line;
smooth = 0;
x = 730;
y = 1285;
},
{
segmentType = line;
smooth = 1;
x = 1115;
y = 1285;
},
{
smooth = 0;
x = 1164;
y = 1285;
},
{
smooth = 0;
x = 1190;
y = 1319;
},
{
segmentType = curve;
smooth = 1;
x = 1190;
y = 1355;
},
{
smooth = 0;
x = 1190;
y = 1392;
},
{
smooth = 0;
x = 1166;
y = 1426;
},
{
segmentType = curve;
smooth = 1;
x = 1115;
y = 1426;
},
{
segmentType = line;
smooth = 1;
x = 160;
y = 1426;
},
{
smooth = 0;
x = 111;
y = 1426;
},
{
smooth = 0;
x = 86;
y = 1392;
},
{
segmentType = curve;
smooth = 1;
x = 86;
y = 1355;
},
{
smooth = 0;
x = 86;
y = 1319;
},
{
smooth = 0;
x = 111;
y = 1285;
},
{
segmentType = curve;
smooth = 1;
x = 160;
y = 1285;
},
{
segmentType = line;
smooth = 0;
x = 552;
y = 1285;
},
{
segmentType = line;
smooth = 1;
x = 552;
y = 85;
},
{
smooth = 0;
x = 552;
y = 29;
},
{
smooth = 0;
x = 596;
y = 0;
}
);
}
);
lib = {
};
name = Y;
unicodes = (
);
width = 1278;
};
};
components = (
);
contours = (
);
lib = {
};
name = Y;
unicodes = (
);
width = 1321;
};
},
{
color = 9;
glyphname = Z;
lastChange = "2019-10-08 11:59:26 +0000";
layers = (
{
anchors = (
{
name = bottom;
position = "{273, 0}";
},
{
name = top;
position = "{364, 705}";
}
);
background = {
anchors = (
{
name = bottom;
position = "{262, 0}";
},
{
name = top;
position = "{373, 705}";
}
);
paths = (
{
closed = 1;
nodes = (
"513 0 LINE",
"520 39 LINE",
"56 39 LINE",
"52 16 LINE",
"606 674 LINE",
"611 705 LINE",
"122 705 LINE",
"116 666 LINE",
"566 666 LINE",
"569 689 LINE",
"15 31 LINE",
"10 0 LINE"
);
}
);
};
layerId = "F1F93986-3ED8-4AAE-84C4-CA3EEECDDFA0";
paths = (
{
closed = 1;
nodes = (
"514 0 LINE",
"520 39 LINE",
"56 39 LINE",
"56 16 LINE",
"607 674 LINE",
"612 705 LINE",
"123 705 LINE",
"116 666 LINE",
"566 666 LINE",
"566 689 LINE",
"16 31 LINE",
"11 0 LINE"
);
}
);
width = 575;
},
{
anchors = (
{
name = bottom;
position = "{298, 0}";
},
{
name = top;
position = "{386, 705}";
}
);
background = {
anchors = (
{
name = bottom;
position = "{287, 0}";
},
{
name = top;
position = "{398, 705}";
}
);
paths = (
{
closed = 1;
nodes = (
"577 0 LINE",
"605 176 LINE",
"234 176 LINE",
"224 117 LINE",
"647 547 LINE",
"672 705 LINE",
"116 705 LINE",
"89 529 LINE",
"444 529 LINE",
"453 588 LINE",
"30 158 LINE",
"5 0 LINE"
);
}
);
};
guideLines = (
{
angle = 226.5038;
position = "{414, 301}";
}
);
layerId = "4121B50C-FD42-45C5-8FBE-41E76D98F91E";
paths = (
{
closed = 1;
nodes = (
"577 0 LINE",
"605 176 LINE",
"234 176 LINE",
"240 118 LINE",
"647 547 LINE",
"672 705 LINE",
"116 705 LINE",
"89 529 LINE",
"444 529 LINE",
"440 588 LINE",
"30 158 LINE",
"5 0 LINE"
);
}
);
width = 636;
}
);
leftKerningGroup = Z;
rightKerningGroup = Z;
unicode = 005A;
userData = {
anchors = (
);
b = {
};
com.typemytype.robofont.layerData = {
b = {
anchors = (
);
components = (
);
contours = (
{
points = (
{
segmentType = curve;
smooth = 1;
x = 266;
y = 0;
},
{
segmentType = line;
smooth = 1;
x = 1035;
y = 0;
},
{
smooth = 0;
x = 1084;
y = 0;
},
{
smooth = 0;
x = 1108;
y = 34;
},
{
segmentType = curve;
smooth = 1;
x = 1108;
y = 71;
},
{
smooth = 0;
x = 1108;
y = 107;
},
{
smooth = 0;
x = 1084;
y = 141;
},
{
segmentType = curve;
smooth = 1;
x = 1035;
y = 141;
},
{
segmentType = line;
smooth = 0;
x = 356;
y = 141;
},
{
segmentType = line;
smooth = 0;
x = 356;
y = 665;
},
{
segmentType = line;
smooth = 1;
x = 975;
y = 665;
},
{
smooth = 0;
x = 1024;
y = 665;
},
{
smooth = 0;
x = 1049;
y = 698;
},
{
segmentType = curve;
smooth = 1;
x = 1049;
y = 734;
},
{
smooth = 0;
x = 1049;
y = 770;
},
{
smooth = 0;
x = 1026;
y = 803;
},
{
segmentType = curve;
smooth = 1;
x = 975;
y = 803;
},
{
segmentType = line;
smooth = 0;
x = 356;
y = 803;
},
{
segmentType = line;
smooth = 0;
x = 356;
y = 1285;
},
{
segmentType = line;
smooth = 1;
x = 1007;
y = 1285;
},
{
smooth = 0;
x = 1056;
y = 1285;
},
{
smooth = 0;
x = 1080;
y = 1319;
},
{
segmentType = curve;
smooth = 1;
x = 1080;
y = 1356;
},
{
smooth = 0;
x = 1080;
y = 1392;
},
{
smooth = 0;
x = 1056;
y = 1426;
},
{
segmentType = curve;
smooth = 1;
x = 1007;
y = 1426;
},
{
segmentType = line;
smooth = 1;
x = 261;
y = 1426;
},
{
smooth = 0;
x = 213;
y = 1426;
},
{
smooth = 0;
x = 178;
y = 1383;
},
{
segmentType = curve;
smooth = 1;
x = 178;
y = 1340;
},
{
segmentType = line;
smooth = 1;
x = 178;
y = 86;
},
{
smooth = 0;
x = 178;
y = 41;
},
{
smooth = 0;
x = 222;
y = 0;
}
);
}
);
lib = {
};
name = Z;
unicodes = (
);
width = 1165;
};
};
components = (
);
contours = (
);
lib = {
};
name = Z;
unicodes = (
);
width = 1222;
};
},
{
color = 1;
glyphname = a;
lastChange = "2019-10-08 13:00:36 +0000";
layers = (
{
anchors = (
{
name = bottom;
position = "{228, 0}";
},
{
name = ogonek;
position = "{392, 0}";
},
{
name = top;
position = "{300, 484}";
}
);
background = {
anchors = (
{
name = bottom;
position = "{223, 0}";
},
{
name = ogonek;
position = "{392, 0}";
},
{
name = top;
position = "{303, 484}";
}
);
paths = (
{
closed = 1;
nodes = (
"276 -8 OFFCURVE",
"348 41 OFFCURVE",
"382 121 CURVE",
"371 121 LINE",
"351 0 LINE",
"392 0 LINE",
"442 315 LINE SMOOTH",
"461 436 OFFCURVE",
"418 492 OFFCURVE",
"308 492 CURVE SMOOTH",
"244 492 OFFCURVE",
"171 470 OFFCURVE",
"114 434 CURVE",
"128 398 LINE",
"192 437 OFFCURVE",
"244 453 OFFCURVE",
"304 453 CURVE SMOOTH",
"386 453 OFFCURVE",
"415 411 OFFCURVE",
"400 315 CURVE SMOOTH",
"382 201 LINE SMOOTH",
"367 103 OFFCURVE",
"291 30 OFFCURVE",
"200 30 CURVE SMOOTH",
"124 30 OFFCURVE",
"83 75 OFFCURVE",
"93 139 CURVE SMOOTH",
"106 216 OFFCURVE",
"162 238 OFFCURVE",
"360 238 CURVE SMOOTH",
"399 238 LINE",
"405 275 LINE",
"364 275 LINE SMOOTH",
"138 275 OFFCURVE",
"64 242 OFFCURVE",
"47 135 CURVE SMOOTH",
"34 55 OFFCURVE",
"97 -8 OFFCURVE",
"191 -8 CURVE SMOOTH"
);
}
);
};
guideLines = (
{
angle = 118.4956;
position = "{122, 415}";
}
);
layerId = "F1F93986-3ED8-4AAE-84C4-CA3EEECDDFA0";
paths = (
{
closed = 1;
nodes = (
"277 -8 OFFCURVE",
"354 32 OFFCURVE",
"380 116 CURVE",
"370 116 LINE",
"352 0 LINE",
"393 0 LINE",
"441 302 LINE SMOOTH",
"460 422 OFFCURVE",
"408 492 OFFCURVE",
"291 492 CURVE SMOOTH",
"224 492 OFFCURVE",
"154 470 OFFCURVE",
"108 436 CURVE",
"126 400 LINE",
"177 437 OFFCURVE",
"228 453 OFFCURVE",
"289 453 CURVE SMOOTH",
"382 453 OFFCURVE",
"416 405 OFFCURVE",
"401 315 CURVE SMOOTH",
"381 191 LINE SMOOTH",
"365 89 OFFCURVE",
"288 30 OFFCURVE",
"208 30 CURVE SMOOTH",
"150 30 OFFCURVE",
"96 66 OFFCURVE",
"96 136 CURVE SMOOTH",
"96 212 OFFCURVE",
"154 238 OFFCURVE",
"340 238 CURVE SMOOTH",
"399 238 LINE",
"405 275 LINE",
"324 275 LINE SMOOTH",
"131 275 OFFCURVE",
"49 235 OFFCURVE",
"49 134 CURVE SMOOTH",
"49 48 OFFCURVE",
"124 -8 OFFCURVE",
"205 -8 CURVE SMOOTH"
);
}
);
width = 514;
},
{
anchors = (
{
name = bottom;
position = "{259, -1}";
},
{
name = ogonek;
position = "{469, -1}";
},
{
name = top;
position = "{320, 483}";
}
);
background = {
paths = (
{
closed = 1;
nodes = (
"945 -12 OFFCURVE",
"997 17 OFFCURVE",
"1029 92 CURVE",
"1022 92 LINE",
"1007 0 LINE",
"1199 0 LINE",
"1239 252 LINE SMOOTH",
"1260 385 OFFCURVE",
"1203 506 OFFCURVE",
"1015 506 CURVE SMOOTH",
"917 506 OFFCURVE",
"820 481 OFFCURVE",
"762 446 CURVE",
"801 310 LINE",
"866 344 OFFCURVE",
"925 356 OFFCURVE",
"977 356 CURVE SMOOTH",
"1031 356 OFFCURVE",
"1055 335 OFFCURVE",
"1050 300 CURVE SMOOTH",
"1033 187 LINE SMOOTH",
"1027 149 OFFCURVE",
"1001 126 OFFCURVE",
"953 126 CURVE SMOOTH",
"921 126 OFFCURVE",
"906 142 OFFCURVE",
"906 162 CURVE SMOOTH",
"906 189 OFFCURVE",
"936 204 OFFCURVE",
"980 204 CURVE SMOOTH",
"1047 204 LINE",
"1062 297 LINE",
"984 297 LINE SMOOTH",
"797 297 OFFCURVE",
"709 252 OFFCURVE",
"709 148 CURVE SMOOTH",
"709 66 OFFCURVE",
"782 -12 OFFCURVE",
"881 -12 CURVE SMOOTH"
);
},
{
closed = 1;
nodes = (
"252 -12 OFFCURVE",
"306 27 OFFCURVE",
"325 87 CURVE",
"320 87 LINE",
"306 0 LINE",
"499 0 LINE",
"543 276 LINE SMOOTH",
"568 434 OFFCURVE",
"495 506 OFFCURVE",
"320 506 CURVE SMOOTH",
"242 506 OFFCURVE",
"130 479 OFFCURVE",
"73 444 CURVE",
"102 305 LINE",
"166 337 OFFCURVE",
"234 352 OFFCURVE",
"286 352 CURVE SMOOTH",
"335 352 OFFCURVE",
"357 340 OFFCURVE",
"351 302 CURVE SMOOTH",
"334 194 LINE SMOOTH",
"327 152 OFFCURVE",
"290 125 OFFCURVE",
"251 125 CURVE SMOOTH",
"216 125 OFFCURVE",
"202 142 OFFCURVE",
"206 162 CURVE SMOOTH",
"210 189 OFFCURVE",
"243 201 OFFCURVE",
"295 201 CURVE SMOOTH",
"354 201 LINE",
"370 301 LINE",
"312 301 LINE SMOOTH",
"110 301 OFFCURVE",
"24 261 OFFCURVE",
"7 154 CURVE SMOOTH",
"-8 58 OFFCURVE",
"61 -12 OFFCURVE",
"180 -12 CURVE SMOOTH"
);
}
);
};
layerId = "4121B50C-FD42-45C5-8FBE-41E76D98F91E";
paths = (
{
closed = 1;
nodes = (
"245 -12 OFFCURVE",
"297 17 OFFCURVE",
"329 92 CURVE",
"322 92 LINE",
"307 0 LINE",
"499 0 LINE",
"539 252 LINE SMOOTH",
"560 385 OFFCURVE",
"503 506 OFFCURVE",
"307 506 CURVE SMOOTH",
"217 506 OFFCURVE",
"120 481 OFFCURVE",
"66 446 CURVE",
"103 310 LINE",
"161 341 OFFCURVE",
"219 356 OFFCURVE",
"277 356 CURVE SMOOTH",
"331 356 OFFCURVE",
"357 335 OFFCURVE",
"351 300 CURVE SMOOTH",
"333 187 LINE SMOOTH",
"327 149 OFFCURVE",
"301 121 OFFCURVE",
"256 121 CURVE SMOOTH",
"224 121 OFFCURVE",
"206 137 OFFCURVE",
"206 161 CURVE SMOOTH",
"206 191 OFFCURVE",
"230 206 OFFCURVE",
"280 206 CURVE SMOOTH",
"347 206 LINE",
"362 297 LINE",
"284 297 LINE SMOOTH",
"97 297 OFFCURVE",
"9 252 OFFCURVE",
"9 148 CURVE SMOOTH",
"9 66 OFFCURVE",
"82 -12 OFFCURVE",
"181 -12 CURVE SMOOTH"
);
}
);
width = 580;
}
);
leftKerningGroup = a;
rightKerningGroup = n;
rightMetricsKey = n;
unicode = 0061;
userData = {
anchors = (
);
b = {
};
com.typemytype.robofont.layerData = {
b = {
anchors = (
);
components = (
);
contours = (
);
lib = {
};
name = a;
unicodes = (
);
width = 1040;
};
};
components = (
);
contours = (
);
lib = {
};
name = a;
unicodes = (
);
width = 1101;
};
},
{
glyphname = ae;
lastChange = "2019-10-08 13:09:27 +0000";
layers = (
{
anchors = (
{
name = bottom;
position = "{377, 0}";
},
{
name = top;
position = "{444, 484}";
}
);
background = {
paths = (
{
closed = 1;
nodes = (
"808 237 LINE",
"812 260 LINE SMOOTH",
"834 405 OFFCURVE",
"775 492 OFFCURVE",
"655 492 CURVE SMOOTH",
"559 492 OFFCURVE",
"481 443 OFFCURVE",
"433 354 CURVE",
"453 354 LINE",
"455 444 OFFCURVE",
"411 492 OFFCURVE",
"310 492 CURVE SMOOTH",
"243 492 OFFCURVE",
"171 470 OFFCURVE",
"114 434 CURVE",
"129 399 LINE",
"192 438 OFFCURVE",
"244 453 OFFCURVE",
"306 453 CURVE SMOOTH",
"388 453 OFFCURVE",
"420 411 OFFCURVE",
"405 312 CURVE SMOOTH",
"388 208 LINE SMOOTH",
"372 105 OFFCURVE",
"297 30 OFFCURVE",
"202 30 CURVE SMOOTH",
"124 30 OFFCURVE",
"83 75 OFFCURVE",
"93 139 CURVE SMOOTH",
"106 217 OFFCURVE",
"162 237 OFFCURVE",
"360 237 CURVE SMOOTH",
"403 237 LINE",
"409 274 LINE",
"364 274 LINE SMOOTH",
"141 274 OFFCURVE",
"64 243 OFFCURVE",
"47 135 CURVE SMOOTH",
"34 55 OFFCURVE",
"97 -8 OFFCURVE",
"193 -8 CURVE SMOOTH",
"295 -8 OFFCURVE",
"376 57 OFFCURVE",
"409 160 CURVE",
"391 160 LINE",
"399 50 OFFCURVE",
"468 -8 OFFCURVE",
"584 -8 CURVE SMOOTH",
"649 -8 OFFCURVE",
"724 18 OFFCURVE",
"772 60 CURVE",
"757 94 LINE",
"698 50 OFFCURVE",
"645 31 OFFCURVE",
"586 31 CURVE SMOOTH",
"468 31 OFFCURVE",
"416 109 OFFCURVE",
"437 243 CURVE SMOOTH",
"438 250 LINE SMOOTH",
"457 373 OFFCURVE",
"538 454 OFFCURVE",
"645 454 CURVE SMOOTH",
"749 454 OFFCURVE",
"792 380 OFFCURVE",
"773 263 CURVE",
"791 274 LINE",
"433 274 LINE",
"427 237 LINE"
);
}
);
};
layerId = "F1F93986-3ED8-4AAE-84C4-CA3EEECDDFA0";
paths = (
{
closed = 1;
nodes = (
"300 -8 OFFCURVE",
"384 44 OFFCURVE",
"415 159 CURVE",
"388 159 LINE",
"403 54 OFFCURVE",
"478 -8 OFFCURVE",
"595 -8 CURVE SMOOTH",
"661 -8 OFFCURVE",
"734 15 OFFCURVE",
"777 61 CURVE",
"755 92 LINE",
"709 48 OFFCURVE",
"657 31 OFFCURVE",
"593 31 CURVE SMOOTH",
"472 31 OFFCURVE",
"410 118 OFFCURVE",
"431 246 CURVE SMOOTH",
"434 264 LINE SMOOTH",
"449 355 OFFCURVE",
"507 454 OFFCURVE",
"634 454 CURVE SMOOTH",
"751 454 OFFCURVE",
"788 366 OFFCURVE",
"773 259 CURVE",
"792 274 LINE",
"420 274 LINE",
"414 237 LINE",
"808 237 LINE",
"811 255 LINE SMOOTH",
"831 372 OFFCURVE",
"781 492 OFFCURVE",
"635 492 CURVE SMOOTH",
"532 492 OFFCURVE",
"459 435 OFFCURVE",
"419 354 CURVE",
"449 354 LINE",
"443 443 OFFCURVE",
"388 492 OFFCURVE",
"291 492 CURVE SMOOTH",
"224 492 OFFCURVE",
"154 470 OFFCURVE",
"108 436 CURVE",
"126 400 LINE",
"177 437 OFFCURVE",
"228 453 OFFCURVE",
"289 453 CURVE SMOOTH",
"382 453 OFFCURVE",
"420 405 OFFCURVE",
"404 305 CURVE SMOOTH",
"384 182 LINE SMOOTH",
"367 80 OFFCURVE",
"288 30 OFFCURVE",
"208 30 CURVE SMOOTH",
"150 30 OFFCURVE",
"96 66 OFFCURVE",
"96 136 CURVE SMOOTH",
"96 212 OFFCURVE",
"154 237 OFFCURVE",
"340 237 CURVE SMOOTH",
"399 237 LINE",
"405 274 LINE",
"324 274 LINE SMOOTH",
"131 274 OFFCURVE",
"49 235 OFFCURVE",
"49 134 CURVE SMOOTH",
"49 48 OFFCURVE",
"124 -8 OFFCURVE",
"205 -8 CURVE SMOOTH"
);
}
);
width = 857;
},
{
anchors = (
{
name = bottom;
position = "{375, 0}";
},
{
name = top;
position = "{431, 484}";
}
);
background = {
paths = (
{
closed = 1;
nodes = (
"845 199 LINE",
"853 246 LINE SMOOTH",
"878 404 OFFCURVE",
"795 506 OFFCURVE",
"642 506 CURVE SMOOTH",
"573 506 OFFCURVE",
"512 486 OFFCURVE",
"461 439 CURVE",
"502 439 LINE",
"472 488 OFFCURVE",
"402 506 OFFCURVE",
"320 506 CURVE SMOOTH",
"242 506 OFFCURVE",
"130 479 OFFCURVE",
"73 444 CURVE",
"102 305 LINE",
"166 337 OFFCURVE",
"236 352 OFFCURVE",
"286 352 CURVE SMOOTH",
"335 352 OFFCURVE",
"351 338 OFFCURVE",
"346 304 CURVE SMOOTH",
"328 192 LINE SMOOTH",
"322 152 OFFCURVE",
"293 125 OFFCURVE",
"251 125 CURVE SMOOTH",
"216 125 OFFCURVE",
"202 142 OFFCURVE",
"205 162 CURVE SMOOTH",
"210 189 OFFCURVE",
"243 201 OFFCURVE",
"295 201 CURVE SMOOTH",
"346 201 LINE",
"361 301 LINE",
"316 301 LINE SMOOTH",
"109 301 OFFCURVE",
"24 261 OFFCURVE",
"7 154 CURVE SMOOTH",
"-8 58 OFFCURVE",
"61 -12 OFFCURVE",
"197 -12 CURVE SMOOTH",
"294 -12 OFFCURVE",
"366 26 OFFCURVE",
"406 98 CURVE",
"378 98 LINE",
"409 25 OFFCURVE",
"488 -12 OFFCURVE",
"597 -12 CURVE SMOOTH",
"670 -12 OFFCURVE",
"753 10 OFFCURVE",
"813 45 CURVE",
"784 181 LINE",
"739 155 OFFCURVE",
"678 140 OFFCURVE",
"627 140 CURVE SMOOTH",
"551 140 OFFCURVE",
"522 168 OFFCURVE",
"536 256 CURVE SMOOTH",
"538 266 LINE SMOOTH",
"550 340 OFFCURVE",
"580 370 OFFCURVE",
"628 370 CURVE SMOOTH",
"673 370 OFFCURVE",
"692 342 OFFCURVE",
"685 286 CURVE",
"706 300 LINE",
"533 300 LINE",
"517 199 LINE"
);
}
);
};
color = 11;
layerId = "4121B50C-FD42-45C5-8FBE-41E76D98F91E";
paths = (
{
closed = 1;
nodes = (
"307 -12 OFFCURVE",
"386 22 OFFCURVE",
"415 96 CURVE",
"391 96 LINE",
"427 28 OFFCURVE",
"502 -12 OFFCURVE",
"607 -12 CURVE SMOOTH",
"692 -12 OFFCURVE",
"767 10 OFFCURVE",
"818 45 CURVE",
"778 180 LINE",
"740 155 OFFCURVE",
"688 140 OFFCURVE",
"632 140 CURVE SMOOTH",
"558 140 OFFCURVE",
"523 172 OFFCURVE",
"534 241 CURVE SMOOTH",
"541 285 LINE SMOOTH",
"549 336 OFFCURVE",
"574 370 OFFCURVE",
"621 370 CURVE SMOOTH",
"673 370 OFFCURVE",
"694 334 OFFCURVE",
"686 286 CURVE",
"704 297 LINE",
"518 297 LINE",
"504 206 LINE",
"844 206 LINE",
"849 236 LINE SMOOTH",
"875 391 OFFCURVE",
"793 506 OFFCURVE",
"624 506 CURVE SMOOTH",
"558 506 OFFCURVE",
"497 487 OFFCURVE",
"449 439 CURVE",
"483 439 LINE",
"446 485 OFFCURVE",
"389 506 OFFCURVE",
"307 506 CURVE SMOOTH",
"217 506 OFFCURVE",
"120 481 OFFCURVE",
"66 446 CURVE",
"105 306 LINE",
"158 337 OFFCURVE",
"219 352 OFFCURVE",
"277 352 CURVE SMOOTH",
"332 352 OFFCURVE",
"350 332 OFFCURVE",
"345 300 CURVE SMOOTH",
"327 187 LINE SMOOTH",
"321 149 OFFCURVE",
"301 125 OFFCURVE",
"255 125 CURVE SMOOTH",
"221 125 OFFCURVE",
"206 141 OFFCURVE",
"206 159 CURVE SMOOTH",
"206 188 OFFCURVE",
"232 206 OFFCURVE",
"282 206 CURVE SMOOTH",
"348 206 LINE",
"362 297 LINE",
"284 297 LINE SMOOTH",
"97 297 OFFCURVE",
"9 252 OFFCURVE",
"9 148 CURVE SMOOTH",
"9 36 OFFCURVE",
"113 -12 OFFCURVE",
"224 -12 CURVE SMOOTH"
);
}
);
width = 873;
}
);
leftKerningGroup = a;
leftMetricsKey = a;
rightKerningGroup = e;
rightMetricsKey = e;
unicode = 00E6;
userData = {
com.typemytype.robofont.layerData = {
b = {
anchors = (
);
components = (
);
contours = (
);
lib = {
};
name = ae;
unicodes = (
);
width = 1734;
};
};
};
},
{
color = 3;
glyphname = a.ss01;
lastChange = "2019-10-08 10:44:15 +0000";
layers = (
{
anchors = (
{
name = bottom;
position = "{245, 0}";
},
{
name = ogonek;
position = "{444, 0}";
},
{
name = top;
position = "{318, 484}";
}
);
background = {
anchors = (
{
name = bottom;
position = "{241, 0}";
},
{
name = ogonek;
position = "{444, 0}";
},
{
name = top;
position = "{318, 484}";
}
);
paths = (
{
closed = 1;
nodes = (
"321 -8 OFFCURVE",
"398 44 OFFCURVE",
"433 126 CURVE",
"422 126 LINE",
"402 0 LINE",
"444 0 LINE",
"521 484 LINE",
"479 484 LINE",
"459 358 LINE",
"470 358 LINE",
"461 440 OFFCURVE",
"400 492 OFFCURVE",
"307 492 CURVE SMOOTH",
"175 492 OFFCURVE",
"77 395 OFFCURVE",
"53 242 CURVE SMOOTH",
"28 89 OFFCURVE",
"97 -8 OFFCURVE",
"228 -8 CURVE SMOOTH"
);
},
{
closed = 1;
nodes = (
"129 31 OFFCURVE",
"75 109 OFFCURVE",
"96 242 CURVE SMOOTH",
"117 375 OFFCURVE",
"196 453 OFFCURVE",
"302 453 CURVE SMOOTH",
"408 453 OFFCURVE",
"463 375 OFFCURVE",
"442 242 CURVE SMOOTH",
"421 109 OFFCURVE",
"341 31 OFFCURVE",
"235 31 CURVE SMOOTH"
);
}
);
};
guideLines = (
{
angle = 260.9807;
position = "{437, 431}";
}
);
layerId = "F1F93986-3ED8-4AAE-84C4-CA3EEECDDFA0";
paths = (
{
closed = 1;
nodes = (
"331 -8 OFFCURVE",
"398 39 OFFCURVE",
"432 113 CURVE",
"420 113 LINE",
"402 0 LINE",
"444 0 LINE",
"521 484 LINE",
"479 484 LINE",
"460 362 LINE",
"467 362 LINE",
"444 451 OFFCURVE",
"374 492 OFFCURVE",
"293 492 CURVE SMOOTH",
"135 492 OFFCURVE",
"51 354 OFFCURVE",
"51 198 CURVE SMOOTH",
"51 71 OFFCURVE",
"127 -8 OFFCURVE",
"241 -8 CURVE SMOOTH"
);
},
{
closed = 1;
nodes = (
"151 31 OFFCURVE",
"94 88 OFFCURVE",
"94 198 CURVE SMOOTH",
"94 337 OFFCURVE",
"163 453 OFFCURVE",
"291 453 CURVE SMOOTH",
"387 453 OFFCURVE",
"444 396 OFFCURVE",
"444 286 CURVE SMOOTH",
"444 147 OFFCURVE",
"375 31 OFFCURVE",
"247 31 CURVE SMOOTH"
);
}
);
width = 568;
},
{
anchors = (
{
name = bottom;
position = "{286, 0}";
},
{
name = ogonek;
position = "{519, 0}";
},
{
name = top;
position = "{344, 484}";
}
);
background = {
paths = (
{
closed = 1;
nodes = (
"270 -12 OFFCURVE",
"326 19 OFFCURVE",
"361 77 CURVE",
"356 78 LINE",
"344 0 LINE",
"549 0 LINE",
"627 494 LINE",
"422 494 LINE",
"411 426 LINE",
"428 416 LINE",
"399 476 OFFCURVE",
"347 506 OFFCURVE",
"277 506 CURVE SMOOTH",
"128 506 OFFCURVE",
"24 396 OFFCURVE",
"24 210 CURVE SMOOTH",
"24 83 OFFCURVE",
"94 -12 OFFCURVE",
"204 -12 CURVE SMOOTH"
);
},
{
closed = 1;
nodes = (
"253 140 OFFCURVE",
"232 168 OFFCURVE",
"232 219 CURVE SMOOTH",
"232 301 OFFCURVE",
"262 354 OFFCURVE",
"315 354 CURVE SMOOTH",
"361 354 OFFCURVE",
"382 326 OFFCURVE",
"382 275 CURVE SMOOTH",
"382 193 OFFCURVE",
"352 140 OFFCURVE",
"299 140 CURVE SMOOTH"
);
}
);
};
layerId = "4121B50C-FD42-45C5-8FBE-41E76D98F91E";
paths = (
{
closed = 1;
nodes = (
"268 -12 OFFCURVE",
"326 18 OFFCURVE",
"363 70 CURVE",
"357 70 LINE",
"346 0 LINE",
"549 0 LINE",
"627 494 LINE",
"424 494 LINE",
"413 425 LINE",
"420 422 LINE",
"397 475 OFFCURVE",
"343 506 OFFCURVE",
"275 506 CURVE SMOOTH",
"127 506 OFFCURVE",
"24 381 OFFCURVE",
"24 204 CURVE SMOOTH",
"24 72 OFFCURVE",
"95 -12 OFFCURVE",
"205 -12 CURVE SMOOTH"
);
},
{
closed = 1;
nodes = (
"256 140 OFFCURVE",
"233 168 OFFCURVE",
"233 216 CURVE SMOOTH",
"233 299 OFFCURVE",
"268 354 OFFCURVE",
"322 354 CURVE SMOOTH",
"360 354 OFFCURVE",
"383 326 OFFCURVE",
"383 278 CURVE SMOOTH",
"383 196 OFFCURVE",
"348 140 OFFCURVE",
"294 140 CURVE SMOOTH"
);
}
);
width = 632;
}
);
leftKerningGroup = o;
rightKerningGroup = u;
rightMetricsKey = "=|n";
userData = {
anchors = (
);
b = {
};
com.typemytype.robofont.layerData = {
b = {
anchors = (
);
components = (
);
contours = (
);
lib = {
};
name = p;
unicodes = (
);
width = 1181;
};
};
components = (
);
contours = (
);
lib = {
};
name = p;
unicodes = (
);
width = 1207;
};
},
{
color = 3;
glyphname = b;
lastChange = "2019-09-19 08:32:02 +0000";
layers = (
{
anchors = (
{
name = bottom;
position = "{271, 0}";
},
{
name = top;
position = "{373, 705}";
}
);
background = {
anchors = (
{
name = bottom;
position = "{271, 0}";
},
{
name = top;
position = "{373, 705}";
}
);
paths = (
{
closed = 1;
nodes = (
"237 492 OFFCURVE",
"170 445 OFFCURVE",
"136 371 CURVE",
"148 371 LINE",
"166 484 LINE",
"124 484 LINE",
"12 -221 LINE",
"54 -221 LINE",
"108 122 LINE",
"101 122 LINE",
"124 33 OFFCURVE",
"194 -8 OFFCURVE",
"275 -8 CURVE SMOOTH",
"433 -8 OFFCURVE",
"517 130 OFFCURVE",
"517 286 CURVE SMOOTH",
"517 413 OFFCURVE",
"441 492 OFFCURVE",
"327 492 CURVE SMOOTH"
);
},
{
closed = 1;
nodes = (
"417 453 OFFCURVE",
"474 396 OFFCURVE",
"474 286 CURVE SMOOTH",
"474 147 OFFCURVE",
"405 31 OFFCURVE",
"277 31 CURVE SMOOTH",
"181 31 OFFCURVE",
"124 88 OFFCURVE",
"124 198 CURVE SMOOTH",
"124 337 OFFCURVE",
"193 453 OFFCURVE",
"321 453 CURVE SMOOTH"
);
}
);
};
layerId = "F1F93986-3ED8-4AAE-84C4-CA3EEECDDFA0";
paths = (
{
closed = 1;
nodes = (
"433 -8 OFFCURVE",
"517 130 OFFCURVE",
"517 286 CURVE SMOOTH",
"517 413 OFFCURVE",
"441 492 OFFCURVE",
"327 492 CURVE SMOOTH",
"237 492 OFFCURVE",
"170 445 OFFCURVE",
"136 371 CURVE",
"148 371 LINE",
"201 705 LINE",
"159 705 LINE",
"47 0 LINE",
"89 0 LINE",
"108 122 LINE",
"101 122 LINE",
"124 33 OFFCURVE",
"194 -8 OFFCURVE",
"275 -8 CURVE SMOOTH"
);
},
{
closed = 1;
nodes = (
"417 453 OFFCURVE",
"474 396 OFFCURVE",
"474 286 CURVE SMOOTH",
"474 147 OFFCURVE",
"405 31 OFFCURVE",
"277 31 CURVE SMOOTH",
"181 31 OFFCURVE",
"124 88 OFFCURVE",
"124 198 CURVE SMOOTH",
"124 337 OFFCURVE",
"193 453 OFFCURVE",
"321 453 CURVE SMOOTH"
);
}
);
width = 568;
},
{
anchors = (
{
name = bottom;
position = "{264, 0}";
},
{
name = top;
position = "{398, 705}";
}
);
background = {
anchors = (
{
name = bottom;
position = "{264, 0}";
},
{
name = top;
position = "{398, 705}";
}
);
paths = (
{
closed = 1;
nodes = (
"365 506 OFFCURVE",
"307 476 OFFCURVE",
"270 424 CURVE",
"276 424 LINE",
"287 495 LINE",
"84 495 LINE",
"-28 -210 LINE",
"180 -210 LINE",
"225 72 LINE",
"213 72 LINE",
"236 19 OFFCURVE",
"290 -12 OFFCURVE",
"358 -12 CURVE SMOOTH",
"506 -12 OFFCURVE",
"609 113 OFFCURVE",
"609 290 CURVE SMOOTH",
"609 422 OFFCURVE",
"538 506 OFFCURVE",
"428 506 CURVE SMOOTH"
);
},
{
closed = 1;
nodes = (
"377 354 OFFCURVE",
"400 326 OFFCURVE",
"400 278 CURVE SMOOTH",
"400 195 OFFCURVE",
"365 140 OFFCURVE",
"311 140 CURVE SMOOTH",
"273 140 OFFCURVE",
"250 168 OFFCURVE",
"250 216 CURVE SMOOTH",
"250 298 OFFCURVE",
"285 354 OFFCURVE",
"339 354 CURVE SMOOTH"
);
}
);
};
guideLines = (
{
angle = 81;
position = "{150, 60}";
}
);
layerId = "4121B50C-FD42-45C5-8FBE-41E76D98F91E";
paths = (
{
closed = 1;
nodes = (
"506 -12 OFFCURVE",
"609 113 OFFCURVE",
"609 290 CURVE SMOOTH",
"609 422 OFFCURVE",
"538 506 OFFCURVE",
"428 506 CURVE SMOOTH",
"365 506 OFFCURVE",
"307 476 OFFCURVE",
"269 423 CURVE",
"280 423 LINE",
"325 705 LINE",
"117 705 LINE",
"5 0 LINE",
"210 0 LINE",
"221 72 LINE",
"213 72 LINE",
"236 19 OFFCURVE",
"290 -12 OFFCURVE",
"358 -12 CURVE SMOOTH"
);
},
{
closed = 1;
nodes = (
"377 354 OFFCURVE",
"400 326 OFFCURVE",
"400 278 CURVE SMOOTH",
"400 195 OFFCURVE",
"365 140 OFFCURVE",
"311 140 CURVE SMOOTH",
"273 140 OFFCURVE",
"250 168 OFFCURVE",
"250 216 CURVE SMOOTH",
"250 298 OFFCURVE",
"285 354 OFFCURVE",
"339 354 CURVE SMOOTH"
);
}
);
width = 632;
}
);
leftKerningGroup = h;
leftMetricsKey = n;
rightKerningGroup = o;
unicode = 0062;
userData = {
anchors = (
);
b = {
};
com.typemytype.robofont.layerData = {
b = {
anchors = (
);
components = (
);
contours = (
{
points = (
{
segmentType = curve;
smooth = 1;
x = 238;
y = 1425;
},
{
smooth = 0;
x = 198;
y = 1425;
},
{
smooth = 0;
x = 158;
y = 1400;
},
{
segmentType = curve;
smooth = 1;
x = 158;
y = 1351;
},
{
segmentType = line;
smooth = 1;
x = 158;
y = 76;
},
{
smooth = 0;
x = 158;
y = 27;
},
{
smooth = 0;
x = 197;
y = 3;
},
{
segmentType = curve;
smooth = 1;
x = 237;
y = 3;
},
{
smooth = 0;
x = 297;
y = 3;
},
{
smooth = 0;
x = 318;
y = 38;
},
{
segmentType = curve;
smooth = 1;
x = 318;
y = 76;
},
{
segmentType = line;
smooth = 0;
x = 318;
y = 183;
},
{
smooth = 0;
x = 384;
y = 46;
},
{
smooth = 0;
x = 516;
y = "-20";
},
{
segmentType = curve;
smooth = 1;
x = 666;
y = "-20";
},
{
smooth = 0;
x = 957;
y = "-20";
},
{
smooth = 0;
x = 1095;
y = 225;
},
{
segmentType = curve;
smooth = 1;
x = 1095;
y = 502;
},
{
smooth = 0;
x = 1095;
y = 777;
},
{
smooth = 0;
x = 939;
y = 1013;
},
{
segmentType = curve;
smooth = 1;
x = 650;
y = 1013;
},
{
smooth = 0;
x = 503;
y = 1013;
},
{
smooth = 0;
x = 376;
y = 942;
},
{
segmentType = curve;
smooth = 0;
x = 318;
y = 814;
},
{
segmentType = line;
smooth = 1;
x = 318;
y = 1351;
},
{
smooth = 0;
x = 318;
y = 1400;
},
{
smooth = 0;
x = 278;
y = 1425;
}
);
},
{
points = (
{
segmentType = curve;
smooth = 1;
x = 632;
y = 903;
},
{
smooth = 0;
x = 859;
y = 903;
},
{
smooth = 0;
x = 935;
y = 685;
},
{
segmentType = curve;
smooth = 1;
x = 935;
y = 496;
},
{
smooth = 0;
x = 935;
y = 316;
},
{
smooth = 0;
x = 869;
y = 93;
},
{
segmentType = curve;
smooth = 0;
x = 645;
y = 90;
},
{
smooth = 0;
x = 395;
y = 90;
},
{
smooth = 0;
x = 319;
y = 279;
},
{
segmentType = curve;
smooth = 1;
x = 319;
y = 501;
},
{
smooth = 0;
x = 319;
y = 701;
},
{
smooth = 0;
x = 407;
y = 903;
}
);
}
);
lib = {
};
name = b;
unicodes = (
);
width = 1181;
};
};
components = (
);
contours = (
);
lib = {
};
name = b;
unicodes = (
);
width = 1203;
};
},
{
color = 3;
glyphname = c;
lastChange = "2019-10-08 13:06:43 +0000";
layers = (
{
anchors = (
{
name = bottom;
position = "{234, 0}";
},
{
name = top;
position = "{301, 484}";
}
);
background = {
anchors = (
{
name = bottom;
position = "{234, 0}";
},
{
name = top;
position = "{311, 484}";
}
);
paths = (
{
closed = 1;
nodes = (
"303 -8 OFFCURVE",
"365 15 OFFCURVE",
"404 53 CURVE",
"385 87 LINE",
"344 48 OFFCURVE",
"293 31 OFFCURVE",
"249 31 CURVE SMOOTH",
"139 31 OFFCURVE",
"94 98 OFFCURVE",
"94 202 CURVE SMOOTH",
"94 325 OFFCURVE",
"152 453 OFFCURVE",
"294 453 CURVE SMOOTH",
"352 453 OFFCURVE",
"396 435 OFFCURVE",
"435 394 CURVE",
"456 426 LINE",
"423 466 OFFCURVE",
"360 492 OFFCURVE",
"296 492 CURVE SMOOTH",
"123 492 OFFCURVE",
"51 343 OFFCURVE",
"51 202 CURVE SMOOTH",
"51 78 OFFCURVE",
"113 -8 OFFCURVE",
"247 -8 CURVE SMOOTH"
);
}
);
};
guideLines = (
{
angle = 81;
position = "{426, 349}";
}
);
layerId = "F1F93986-3ED8-4AAE-84C4-CA3EEECDDFA0";
paths = (
{
closed = 1;
nodes = (
"303 -8 OFFCURVE",
"365 15 OFFCURVE",
"404 53 CURVE",
"385 87 LINE",
"344 48 OFFCURVE",
"293 31 OFFCURVE",
"249 31 CURVE SMOOTH",
"139 31 OFFCURVE",
"94 98 OFFCURVE",
"94 202 CURVE SMOOTH",
"94 325 OFFCURVE",
"152 453 OFFCURVE",
"294 453 CURVE SMOOTH",
"352 453 OFFCURVE",
"396 435 OFFCURVE",
"433 396 CURVE",
"454 428 LINE",
"421 466 OFFCURVE",
"360 492 OFFCURVE",
"296 492 CURVE SMOOTH",
"123 492 OFFCURVE",
"51 343 OFFCURVE",
"51 202 CURVE SMOOTH",
"51 78 OFFCURVE",
"113 -8 OFFCURVE",
"247 -8 CURVE SMOOTH"
);
}
);
width = 455;
},
{
anchors = (
{
name = bottom;
position = "{255, 0}";
},
{
name = top;
position = "{318, 484}";
}
);
background = {
paths = (
{
closed = 1;
nodes = (
"467 -12 OFFCURVE",
"592 98 OFFCURVE",
"592 271 CURVE SMOOTH",
"592 411 OFFCURVE",
"496 506 OFFCURVE",
"326 506 CURVE SMOOTH",
"181 506 OFFCURVE",
"24 421 OFFCURVE",
"24 223 CURVE SMOOTH",
"24 83 OFFCURVE",
"120 -12 OFFCURVE",
"291 -12 CURVE SMOOTH"
);
},
{
closed = 1;
nodes = (
"256 140 OFFCURVE",
"233 168 OFFCURVE",
"233 216 CURVE SMOOTH",
"233 299 OFFCURVE",
"268 354 OFFCURVE",
"322 354 CURVE SMOOTH",
"360 354 OFFCURVE",
"383 326 OFFCURVE",
"383 278 CURVE SMOOTH",
"383 195 OFFCURVE",
"348 140 OFFCURVE",
"294 140 CURVE SMOOTH"
);
}
);
};
guideLines = (
{
angle = 81;
position = "{517, 349}";
}
);
layerId = "4121B50C-FD42-45C5-8FBE-41E76D98F91E";
paths = (
{
closed = 1;
nodes = (
"353 -12 OFFCURVE",
"428 2 OFFCURVE",
"466 31 CURVE",
"427 174 LINE",
"397 155 OFFCURVE",
"359 143 OFFCURVE",
"329 143 CURVE SMOOTH",
"263 143 OFFCURVE",
"237 177 OFFCURVE",
"237 226 CURVE SMOOTH",
"237 287 OFFCURVE",
"265 351 OFFCURVE",
"351 351 CURVE SMOOTH",
"386 351 OFFCURVE",
"430 337 OFFCURVE",
"453 319 CURVE",
"510 461 LINE",
"466 489 OFFCURVE",
"399 506 OFFCURVE",
"333 506 CURVE SMOOTH",
"127 506 OFFCURVE",
"24 373 OFFCURVE",
"24 223 CURVE SMOOTH",
"24 81 OFFCURVE",
"117 -12 OFFCURVE",
"295 -12 CURVE SMOOTH"
);
}
);
width = 491;
}
);
leftKerningGroup = o;
rightKerningGroup = c;
unicode = 0063;
userData = {
anchors = (
);
b = {
};
com.typemytype.robofont.layerData = {
b = {
anchors = (
);
components = (
);
contours = (
);
lib = {
};
name = c;
unicodes = (
);
width = 956.14099;
};
};
components = (
);
contours = (
);
lib = {
};
name = c;
unicodes = (
);
width = 992;
};
},
{
color = 3;
glyphname = d;
lastChange = "2019-10-07 14:34:36 +0000";
layers = (
{
anchors = (
{
name = bottom;
position = "{250, 0}";
},
{
name = center;
position = "{289, 245}";
},
{
name = stroke;
position = "{467, 580}";
},
{
name = top;
position = "{327, 484}";
},
{
name = topright;
position = "{607, 705}";
}
);
background = {
paths = (
{
closed = 1;
nodes = (
"1030 -8 OFFCURVE",
"1101 42 OFFCURVE",
"1135 126 CURVE",
"1122 126 LINE",
"1102 0 LINE",
"1144 0 LINE",
"1256 705 LINE",
"1214 705 LINE",
"1160 362 LINE",
"1164 360 LINE",
"1144 451 OFFCURVE",
"1073 492 OFFCURVE",
"994 492 CURVE SMOOTH",
"836 492 OFFCURVE",
"751 355 OFFCURVE",
"751 200 CURVE SMOOTH",
"751 70 OFFCURVE",
"826 -8 OFFCURVE",
"943 -8 CURVE SMOOTH"
);
},
{
closed = 1;
nodes = (
"852 31 OFFCURVE",
"794 88 OFFCURVE",
"794 197 CURVE SMOOTH",
"794 335 OFFCURVE",
"863 453 OFFCURVE",
"992 453 CURVE SMOOTH",
"1086 453 OFFCURVE",
"1144 396 OFFCURVE",
"1144 287 CURVE SMOOTH",
"1144 149 OFFCURVE",
"1075 31 OFFCURVE",
"946 31 CURVE SMOOTH"
);
},
{
closed = 1;
nodes = (
"331 -8 OFFCURVE",
"398 39 OFFCURVE",
"432 113 CURVE",
"420 113 LINE",
"402 0 LINE",
"444 0 LINE",
"556 705 LINE",
"514 705 LINE",
"460 362 LINE",
"467 362 LINE",
"444 451 OFFCURVE",
"374 492 OFFCURVE",
"293 492 CURVE SMOOTH",
"135 492 OFFCURVE",
"51 354 OFFCURVE",
"51 198 CURVE SMOOTH",
"51 71 OFFCURVE",
"127 -8 OFFCURVE",
"241 -8 CURVE SMOOTH"
);
},
{
closed = 1;
nodes = (
"387 453 OFFCURVE",
"444 396 OFFCURVE",
"444 286 CURVE SMOOTH",
"444 147 OFFCURVE",
"375 31 OFFCURVE",
"246 31 CURVE SMOOTH",
"151 31 OFFCURVE",
"94 88 OFFCURVE",
"94 198 CURVE SMOOTH",
"94 337 OFFCURVE",
"163 453 OFFCURVE",
"291 453 CURVE SMOOTH"
);
}
);
};
guideLines = (
{
angle = 260.9935;
position = "{489, 532}";
}
);
layerId = "F1F93986-3ED8-4AAE-84C4-CA3EEECDDFA0";
paths = (
{
closed = 1;
nodes = (
"331 -8 OFFCURVE",
"398 39 OFFCURVE",
"432 113 CURVE",
"420 113 LINE",
"402 0 LINE",
"444 0 LINE",
"556 705 LINE",
"514 705 LINE",
"460 362 LINE",
"467 362 LINE",
"444 451 OFFCURVE",
"374 492 OFFCURVE",
"293 492 CURVE SMOOTH",
"135 492 OFFCURVE",
"51 354 OFFCURVE",
"51 198 CURVE SMOOTH",
"51 71 OFFCURVE",
"127 -8 OFFCURVE",
"241 -8 CURVE SMOOTH"
);
},
{
closed = 1;
nodes = (
"151 31 OFFCURVE",
"94 88 OFFCURVE",
"94 198 CURVE SMOOTH",
"94 337 OFFCURVE",
"163 453 OFFCURVE",
"291 453 CURVE SMOOTH",
"387 453 OFFCURVE",
"444 396 OFFCURVE",
"444 286 CURVE SMOOTH",
"444 147 OFFCURVE",
"375 31 OFFCURVE",
"247 31 CURVE SMOOTH"
);
}
);
width = 568;
},
{
anchors = (
{
name = bottom;
position = "{285, 0}";
},
{
name = center;
position = "{305, 247}";
},
{
name = stroke;
position = "{489, 595}";
},
{
name = top;
position = "{390, 705}";
},
{
name = topright;
position = "{690, 705}";
}
);
background = {
paths = (
{
closed = 1;
nodes = (
"1070 -12 OFFCURVE",
"1126 19 OFFCURVE",
"1161 77 CURVE",
"1156 78 LINE",
"1144 0 LINE",
"1349 0 LINE",
"1461 705 LINE",
"1253 705 LINE",
"1209 427 LINE",
"1228 416 LINE",
"1200 468 OFFCURVE",
"1149 506 OFFCURVE",
"1071 506 CURVE SMOOTH",
"929 506 OFFCURVE",
"824 396 OFFCURVE",
"824 210 CURVE SMOOTH",
"824 83 OFFCURVE",
"894 -12 OFFCURVE",
"1004 -12 CURVE SMOOTH"
);
},
{
closed = 1;
nodes = (
"1053 140 OFFCURVE",
"1032 168 OFFCURVE",
"1032 219 CURVE SMOOTH",
"1032 301 OFFCURVE",
"1062 354 OFFCURVE",
"1115 354 CURVE SMOOTH",
"1161 354 OFFCURVE",
"1182 326 OFFCURVE",
"1182 275 CURVE SMOOTH",
"1182 193 OFFCURVE",
"1152 140 OFFCURVE",
"1099 140 CURVE SMOOTH"
);
},
{
closed = 1;
nodes = (
"269 -11 OFFCURVE",
"328 19 OFFCURVE",
"365 71 CURVE",
"357 71 LINE",
"346 0 LINE",
"549 0 LINE",
"661 705 LINE",
"453 705 LINE",
"408 423 LINE",
"422 423 LINE",
"401 469 OFFCURVE",
"352 507 OFFCURVE",
"276 507 CURVE SMOOTH",
"115 507 OFFCURVE",
"24 367 OFFCURVE",
"24 205 CURVE SMOOTH",
"24 74 OFFCURVE",
"94 -11 OFFCURVE",
"206 -11 CURVE SMOOTH"
);
},
{
closed = 1;
nodes = (
"255 141 OFFCURVE",
"233 170 OFFCURVE",
"233 215 CURVE SMOOTH",
"233 291 OFFCURVE",
"262 355 OFFCURVE",
"323 355 CURVE SMOOTH",
"363 355 OFFCURVE",
"385 326 OFFCURVE",
"385 281 CURVE SMOOTH",
"385 205 OFFCURVE",
"356 141 OFFCURVE",
"295 141 CURVE SMOOTH"
);
}
);
};
guideLines = (
{
angle = 81;
position = "{431, 566}";
}
);
layerId = "4121B50C-FD42-45C5-8FBE-41E76D98F91E";
paths = (
{
closed = 1;
nodes = (
"268 -12 OFFCURVE",
"326 18 OFFCURVE",
"363 70 CURVE",
"357 70 LINE",
"346 0 LINE",
"549 0 LINE",
"661 705 LINE",
"453 705 LINE",
"408 423 LINE",
"420 422 LINE",
"397 475 OFFCURVE",
"343 506 OFFCURVE",
"275 506 CURVE SMOOTH",
"127 506 OFFCURVE",
"24 381 OFFCURVE",
"24 204 CURVE SMOOTH",
"24 72 OFFCURVE",
"95 -12 OFFCURVE",
"205 -12 CURVE SMOOTH"
);
},
{
closed = 1;
nodes = (
"256 140 OFFCURVE",
"233 168 OFFCURVE",
"233 216 CURVE SMOOTH",
"233 299 OFFCURVE",
"268 354 OFFCURVE",
"322 354 CURVE SMOOTH",
"360 354 OFFCURVE",
"383 326 OFFCURVE",
"383 278 CURVE SMOOTH",
"383 196 OFFCURVE",
"348 140 OFFCURVE",
"294 140 CURVE SMOOTH"
);
}
);
width = 632;
}
);
leftKerningGroup = o;
rightKerningGroup = l;
rightMetricsKey = "=|n";
unicode = 0064;
userData = {
anchors = (
);
b = {
};
com.typemytype.robofont.layerData = {
b = {
anchors = (
);
components = (
);
contours = (
);
lib = {
};
name = d;
unicodes = (
);
width = 1181;
};
};
components = (
);
contours = (
);
lib = {
};
name = d;
unicodes = (
);
width = 1207;
};
},
{
color = 9;
glyphname = eth;
lastChange = "2019-10-08 13:21:24 +0000";
layers = (
{
background = {
paths = (
{
closed = 1;
nodes = (
"428 -8 OFFCURVE",
"493 152 OFFCURVE",
"494 312 CURVE SMOOTH",
"495 522 OFFCURVE",
"416 654 OFFCURVE",
"232 710 CURVE",
"218 677 LINE",
"395 627 OFFCURVE",
"466 490 OFFCURVE",
"456 286 CURVE",
"470 286 LINE",
"465 399 OFFCURVE",
"389 454 OFFCURVE",
"292 454 CURVE SMOOTH",
"152 454 OFFCURVE",
"48 343 OFFCURVE",
"48 184 CURVE SMOOTH",
"48 65 OFFCURVE",
"133 -8 OFFCURVE",
"245 -8 CURVE SMOOTH"
);
},
{
closed = 1;
nodes = (
"150 31 OFFCURVE",
"91 87 OFFCURVE",
"91 187 CURVE SMOOTH",
"91 333 OFFCURVE",
"180 415 OFFCURVE",
"289 415 CURVE SMOOTH",
"385 415 OFFCURVE",
"444 359 OFFCURVE",
"444 259 CURVE SMOOTH",
"444 113 OFFCURVE",
"355 31 OFFCURVE",
"246 31 CURVE SMOOTH"
);
},
{
closed = 1;
nodes = (
"511 676 LINE",
"499 710 LINE",
"177 583 LINE",
"188 549 LINE"
);
}
);
};
guideLines = (
{
angle = 270;
position = "{90, 256}";
}
);
layerId = "F1F93986-3ED8-4AAE-84C4-CA3EEECDDFA0";
paths = (
{
closed = 1;
nodes = (
"428 -8 OFFCURVE",
"493 152 OFFCURVE",
"494 312 CURVE SMOOTH",
"495 522 OFFCURVE",
"416 654 OFFCURVE",
"232 710 CURVE",
"218 677 LINE",
"395 627 OFFCURVE",
"466 490 OFFCURVE",
"456 286 CURVE",
"470 286 LINE",
"465 399 OFFCURVE",
"389 454 OFFCURVE",
"292 454 CURVE SMOOTH",
"152 454 OFFCURVE",
"48 343 OFFCURVE",
"48 184 CURVE SMOOTH",
"48 65 OFFCURVE",
"133 -8 OFFCURVE",
"245 -8 CURVE SMOOTH"
);
},
{
closed = 1;
nodes = (
"150 31 OFFCURVE",
"91 87 OFFCURVE",
"91 187 CURVE SMOOTH",
"91 333 OFFCURVE",
"180 415 OFFCURVE",
"289 415 CURVE SMOOTH",
"385 415 OFFCURVE",
"444 359 OFFCURVE",
"444 259 CURVE SMOOTH",
"444 113 OFFCURVE",
"355 31 OFFCURVE",
"246 31 CURVE SMOOTH"
);
},
{
closed = 1;
nodes = (
"496 677 LINE",
"482 710 LINE",
"180 583 LINE",
"194 550 LINE"
);
}
);
width = 541;
},
{
background = {
paths = (
{
closed = 1;
nodes = (
"481 -12 OFFCURVE",
"605 121 OFFCURVE",
"605 321 CURVE SMOOTH",
"605 473 OFFCURVE",
"487 682 OFFCURVE",
"183 719 CURVE",
"141 596 LINE",
"281 588 OFFCURVE",
"436 473 OFFCURVE",
"419 340 CURVE",
"449 341 LINE",
"431 422 OFFCURVE",
"360 445 OFFCURVE",
"279 445 CURVE SMOOTH",
"133 445 OFFCURVE",
"19 346 OFFCURVE",
"19 202 CURVE SMOOTH",
"19 79 OFFCURVE",
"128 -12 OFFCURVE",
"279 -12 CURVE SMOOTH"
);
},
{
closed = 1;
nodes = (
"255 142 OFFCURVE",
"228 169 OFFCURVE",
"228 206 CURVE SMOOTH",
"228 261 OFFCURVE",
"260 296 OFFCURVE",
"309 296 CURVE SMOOTH",
"353 296 OFFCURVE",
"380 270 OFFCURVE",
"380 234 CURVE SMOOTH",
"380 178 OFFCURVE",
"348 142 OFFCURVE",
"299 142 CURVE SMOOTH"
);
},
{
closed = 1;
nodes = (
"598 636 LINE",
"565 719 LINE",
"117 531 LINE",
"151 447 LINE"
);
}
);
};
color = 11;
layerId = "4121B50C-FD42-45C5-8FBE-41E76D98F91E";
paths = (
{
closed = 1;
nodes = (
"481 -12 OFFCURVE",
"605 121 OFFCURVE",
"605 321 CURVE SMOOTH",
"605 473 OFFCURVE",
"487 682 OFFCURVE",
"183 719 CURVE",
"141 596 LINE",
"281 588 OFFCURVE",
"436 473 OFFCURVE",
"419 340 CURVE",
"449 341 LINE",
"431 422 OFFCURVE",
"360 445 OFFCURVE",
"279 445 CURVE SMOOTH",
"133 445 OFFCURVE",
"19 346 OFFCURVE",
"19 202 CURVE SMOOTH",
"19 79 OFFCURVE",
"128 -12 OFFCURVE",
"279 -12 CURVE SMOOTH"
);
},
{
closed = 1;
nodes = (
"255 142 OFFCURVE",
"228 168 OFFCURVE",
"228 204 CURVE SMOOTH",
"228 260 OFFCURVE",
"260 296 OFFCURVE",
"309 296 CURVE SMOOTH",
"353 296 OFFCURVE",
"380 270 OFFCURVE",
"380 234 CURVE SMOOTH",
"380 178 OFFCURVE",
"348 142 OFFCURVE",
"299 142 CURVE SMOOTH"
);
},
{
closed = 1;
nodes = (
"575 638 LINE",
"536 719 LINE",
"120 530 LINE",
"159 449 LINE"
);
}
);
width = 620;
}
);
leftKerningGroup = o;
leftMetricsKey = o;
rightKerningGroup = o;
unicode = 00F0;
userData = {
com.typemytype.robofont.layerData = {
b = {
anchors = (
);
components = (
);
contours = (
);
lib = {
};
name = eth;
unicodes = (
);
width = 1230;
};
};
};
},
{
color = 1;
glyphname = e;
lastChange = "2019-10-08 13:06:47 +0000";
layers = (
{
anchors = (
{
name = bottom;
position = "{245, 0}";
},
{
name = ogonek;
position = "{303, 0}";
},
{
name = top;
position = "{305, 484}";
}
);
background = {
paths = (
{
closed = 1;
nodes = (
"927 -8 OFFCURVE",
"1000 15 OFFCURVE",
"1043 61 CURVE",
"1021 92 LINE",
"975 48 OFFCURVE",
"923 31 OFFCURVE",
"859 31 CURVE SMOOTH",
"738 31 OFFCURVE",
"676 118 OFFCURVE",
"697 246 CURVE SMOOTH",
"700 264 LINE SMOOTH",
"715 355 OFFCURVE",
"775 454 OFFCURVE",
"900 454 CURVE SMOOTH",
"1017 454 OFFCURVE",
"1052 364 OFFCURVE",
"1039 259 CURVE",
"1058 271 LINE",
"686 271 LINE",
"680 234 LINE",
"1074 234 LINE",
"1076 249 LINE SMOOTH",
"1093 378 OFFCURVE",
"1046 492 OFFCURVE",
"900 492 CURVE SMOOTH",
"748 492 OFFCURVE",
"652 363 OFFCURVE",
"652 204 CURVE SMOOTH",
"652 70 OFFCURVE",
"734 -8 OFFCURVE",
"862 -8 CURVE SMOOTH"
);
},
{
closed = 1;
nodes = (
"402 -8 OFFCURVE",
"487 130 OFFCURVE",
"487 284 CURVE SMOOTH",
"487 414 OFFCURVE",
"412 492 OFFCURVE",
"293 492 CURVE SMOOTH",
"136 492 OFFCURVE",
"51 354 OFFCURVE",
"51 200 CURVE SMOOTH",
"51 70 OFFCURVE",
"126 -8 OFFCURVE",
"245 -8 CURVE SMOOTH"
);
},
{
closed = 1;
nodes = (
"151 31 OFFCURVE",
"94 88 OFFCURVE",
"94 198 CURVE SMOOTH",
"94 337 OFFCURVE",
"163 453 OFFCURVE",
"291 453 CURVE SMOOTH",
"387 453 OFFCURVE",
"444 396 OFFCURVE",
"444 286 CURVE SMOOTH",
"444 147 OFFCURVE",
"375 31 OFFCURVE",
"247 31 CURVE SMOOTH"
);
}
);
};
guideLines = (
{
angle = 261.2538;
position = "{441, 252}";
},
{
angle = 118.4956;
position = "{244, 415}";
}
);
layerId = "F1F93986-3ED8-4AAE-84C4-CA3EEECDDFA0";
paths = (
{
closed = 1;
nodes = (
"327 -8 OFFCURVE",
"400 15 OFFCURVE",
"443 61 CURVE",
"421 92 LINE",
"375 48 OFFCURVE",
"323 31 OFFCURVE",
"259 31 CURVE SMOOTH",
"138 31 OFFCURVE",
"76 118 OFFCURVE",
"97 246 CURVE SMOOTH",
"100 264 LINE SMOOTH",
"116 355 OFFCURVE",
"173 454 OFFCURVE",
"300 454 CURVE SMOOTH",
"417 454 OFFCURVE",
"454 366 OFFCURVE",
"439 259 CURVE",
"458 271 LINE",
"86 271 LINE",
"80 234 LINE",
"474 234 LINE",
"477 252 LINE SMOOTH",
"497 372 OFFCURVE",
"447 492 OFFCURVE",
"301 492 CURVE SMOOTH",
"141 492 OFFCURVE",
"51 354 OFFCURVE",
"51 200 CURVE SMOOTH",
"51 70 OFFCURVE",
"130 -8 OFFCURVE",
"261 -8 CURVE SMOOTH"
);
}
);
width = 523;
},
{
anchors = (
{
name = bottom;
position = "{264, 0}";
},
{
name = ogonek;
position = "{372, 0}";
},
{
name = top;
position = "{324, 484}";
}
);
background = {
paths = (
{
closed = 1;
nodes = (
"1084 -12 OFFCURVE",
"1159 10 OFFCURVE",
"1210 45 CURVE",
"1170 180 LINE",
"1132 155 OFFCURVE",
"1080 140 OFFCURVE",
"1029 140 CURVE SMOOTH",
"946 140 OFFCURVE",
"908 162 OFFCURVE",
"920 241 CURVE SMOOTH",
"925 275 LINE SMOOTH",
"934 336 OFFCURVE",
"960 370 OFFCURVE",
"1011 370 CURVE SMOOTH",
"1065 370 OFFCURVE",
"1086 334 OFFCURVE",
"1078 286 CURVE",
"1096 302 LINE",
"908 302 LINE",
"894 201 LINE",
"1236 201 LINE",
"1241 236 LINE SMOOTH",
"1263 391 OFFCURVE",
"1155 506 OFFCURVE",
"1007 506 CURVE SMOOTH",
"866 506 OFFCURVE",
"724 410 OFFCURVE",
"724 218 CURVE SMOOTH",
"724 74 OFFCURVE",
"829 -12 OFFCURVE",
"999 -12 CURVE SMOOTH"
);
},
{
closed = 1;
nodes = (
"467 -12 OFFCURVE",
"592 98 OFFCURVE",
"592 271 CURVE SMOOTH",
"592 411 OFFCURVE",
"496 506 OFFCURVE",
"326 506 CURVE SMOOTH",
"149 506 OFFCURVE",
"24 396 OFFCURVE",
"24 223 CURVE SMOOTH",
"24 83 OFFCURVE",
"120 -12 OFFCURVE",
"291 -12 CURVE SMOOTH"
);
},
{
closed = 1;
nodes = (
"256 140 OFFCURVE",
"233 168 OFFCURVE",
"233 216 CURVE SMOOTH",
"233 299 OFFCURVE",
"268 354 OFFCURVE",
"322 354 CURVE SMOOTH",
"360 354 OFFCURVE",
"383 326 OFFCURVE",
"383 278 CURVE SMOOTH",
"383 195 OFFCURVE",
"348 140 OFFCURVE",
"294 140 CURVE SMOOTH"
);
}
);
};
layerId = "4121B50C-FD42-45C5-8FBE-41E76D98F91E";
paths = (
{
closed = 1;
nodes = (
"383 -12 OFFCURVE",
"458 10 OFFCURVE",
"509 45 CURVE",
"469 180 LINE",
"431 155 OFFCURVE",
"374 140 OFFCURVE",
"323 140 CURVE SMOOTH",
"245 140 OFFCURVE",
"206 173 OFFCURVE",
"217 241 CURVE SMOOTH",
"224 285 LINE SMOOTH",
"232 337 OFFCURVE",
"260 372 OFFCURVE",
"311 372 CURVE SMOOTH",
"364 372 OFFCURVE",
"387 338 OFFCURVE",
"381 286 CURVE",
"395 297 LINE",
"207 297 LINE",
"193 206 LINE",
"535 206 LINE",
"539 232 LINE SMOOTH",
"563 387 OFFCURVE",
"486 506 OFFCURVE",
"313 506 CURVE SMOOTH",
"154 506 OFFCURVE",
"23 396 OFFCURVE",
"23 223 CURVE SMOOTH",
"23 83 OFFCURVE",
"133 -12 OFFCURVE",
"298 -12 CURVE SMOOTH"
);
}
);
width = 563;
}
);
leftKerningGroup = o;
leftMetricsKey = o;
rightKerningGroup = e;
unicode = 0065;
userData = {
anchors = (
);
b = {
};
com.typemytype.robofont.layerData = {
b = {
anchors = (
);
components = (
);
contours = (
);
lib = {
};
name = e;
unicodes = (
);
width = 1132;
};
};
components = (
);
contours = (
);
lib = {
};
name = e;
unicodes = (
);
width = 1132;
};
},
{
color = 3;
glyphname = f;
lastChange = "2019-10-01 09:51:44 +0000";
layers = (
{
anchors = (
{
name = bottom;
position = "{88, 0}";
},
{
name = top;
position = "{200, 705}";
}
);
background = {
anchors = (
{
name = bottom;
position = "{87, 0}";
},
{
name = top;
position = "{199, 705}";
}
);
paths = (
{
closed = 1;
nodes = (
"205 611 OFFCURVE",
"252 661 OFFCURVE",
"337 667 CURVE SMOOTH",
"383 670 LINE",
"384 707 LINE",
"353 705 LINE SMOOTH",
"234 698 OFFCURVE",
"167 636 OFFCURVE",
"148 515 CURVE SMOOTH",
"141 473 LINE",
"153 484 LINE",
"46 484 LINE",
"40 448 LINE",
"137 448 LINE",
"66 0 LINE",
"108 0 LINE",
"179 448 LINE",
"325 448 LINE",
"331 484 LINE",
"185 484 LINE",
"190 515 LINE SMOOTH"
);
}
);
};
layerId = "F1F93986-3ED8-4AAE-84C4-CA3EEECDDFA0";
paths = (
{
closed = 1;
nodes = (
"152 484 LINE",
"48 484 LINE",
"42 448 LINE",
"138 448 LINE",
"67 0 LINE",
"109 0 LINE",
"180 448 LINE",
"327 448 LINE",
"333 484 LINE",
"179 484 LINE",
"184 477 LINE",
"192 528 LINE SMOOTH",
"206 616 OFFCURVE",
"253 661 OFFCURVE",
"339 667 CURVE SMOOTH",
"385 670 LINE",
"383 707 LINE",
"341 705 LINE SMOOTH",
"235 700 OFFCURVE",
"167 637 OFFCURVE",
"151 533 CURVE SMOOTH",
"142 474 LINE"
);
}
);
width = 306;
},
{
anchors = (
{
name = bottom;
position = "{155, 0}";
},
{
name = top;
position = "{266, 705}";
}
);
background = {
paths = (
{
closed = 1;
nodes = (
"259 0 LINE",
"314 342 LINE",
"430 342 LINE",
"454 494 LINE",
"332 494 LINE",
"332 498 LINE SMOOTH",
"332 536 OFFCURVE",
"360 558 OFFCURVE",
"436 562 CURVE SMOOTH",
"492 565 LINE",
"503 712 LINE",
"424 709 LINE SMOOTH",
"217 701 OFFCURVE",
"133 616 OFFCURVE",
"124 461 CURVE SMOOTH",
"122 428 LINE",
"173 494 LINE",
"39 494 LINE",
"15 342 LINE",
"107 342 LINE",
"51 0 LINE"
);
}
);
};
guideLines = (
{
angle = 81;
position = "{79, 171}";
},
{
angle = 81;
position = "{287, 171}";
}
);
layerId = "4121B50C-FD42-45C5-8FBE-41E76D98F91E";
paths = (
{
closed = 1;
nodes = (
"149 494 LINE",
"39 494 LINE",
"15 342 LINE",
"106 342 LINE",
"52 0 LINE",
"260 0 LINE",
"314 342 LINE",
"429 342 LINE",
"453 494 LINE",
"323 494 LINE",
"336 480 LINE",
"339 501 LINE SMOOTH",
"345 543 OFFCURVE",
"370 559 OFFCURVE",
"435 562 CURVE SMOOTH",
"493 565 LINE",
"499 712 LINE",
"423 709 LINE SMOOTH",
"224 701 OFFCURVE",
"151 620 OFFCURVE",
"130 492 CURVE SMOOTH",
"128 477 LINE"
);
}
);
width = 423;
}
);
leftKerningGroup = f;
rightKerningGroup = f;
unicode = 0066;
userData = {
anchors = (
);
b = {
};
com.typemytype.robofont.layerData = {
b = {
anchors = (
);
components = (
);
contours = (
);
lib = {
};
name = f;
unicodes = (
);
width = 696;
};
};
components = (
);
contours = (
);
lib = {
};
name = f;
unicodes = (
);
width = 723;
};
},
{
color = 9;
glyphname = g;
lastChange = "2019-10-07 13:38:47 +0000";
layers = (
{
anchors = (
{
name = top;
position = "{326, 484}";
}
);
background = {
anchors = (
{
name = bottom;
position = "{242, 0}";
},
{
name = ogonek;
position = "{445, 0}";
},
{
name = top;
position = "{326, 484}";
}
);
paths = (
{
closed = 1;
nodes = (
"333 -8 OFFCURVE",
"400 39 OFFCURVE",
"434 113 CURVE",
"422 113 LINE",
"404 0 LINE",
"446 0 LINE",
"523 484 LINE",
"481 484 LINE",
"462 362 LINE",
"469 362 LINE",
"446 451 OFFCURVE",
"376 492 OFFCURVE",
"295 492 CURVE SMOOTH",
"137 492 OFFCURVE",
"53 354 OFFCURVE",
"53 198 CURVE SMOOTH",
"53 71 OFFCURVE",
"129 -8 OFFCURVE",
"243 -8 CURVE SMOOTH"
);
},
{
closed = 1;
nodes = (
"153 31 OFFCURVE",
"96 88 OFFCURVE",
"96 198 CURVE SMOOTH",
"96 337 OFFCURVE",
"165 453 OFFCURVE",
"293 453 CURVE SMOOTH",
"389 453 OFFCURVE",
"446 396 OFFCURVE",
"446 286 CURVE SMOOTH",
"446 147 OFFCURVE",
"377 31 OFFCURVE",
"249 31 CURVE SMOOTH"
);
}
);
};
guideLines = (
{
angle = 61.5044;
position = "{42, -99}";
},
{
angle = 243.435;
position = "{43, -93}";
},
{
angle = 81.0396;
position = "{444, 248}";
}
);
layerId = "F1F93986-3ED8-4AAE-84C4-CA3EEECDDFA0";
paths = (
{
closed = 1;
nodes = (
"358 -188 OFFCURVE",
"425 -128 OFFCURVE",
"446 2 CURVE SMOOTH",
"523 484 LINE",
"481 484 LINE",
"462 362 LINE",
"469 362 LINE",
"446 451 OFFCURVE",
"376 492 OFFCURVE",
"294 492 CURVE SMOOTH",
"135 492 OFFCURVE",
"51 354 OFFCURVE",
"51 208 CURVE SMOOTH",
"51 90 OFFCURVE",
"127 11 OFFCURVE",
"242 11 CURVE SMOOTH",
"333 11 OFFCURVE",
"400 58 OFFCURVE",
"434 132 CURVE",
"426 133 LINE",
"405 0 LINE SMOOTH",
"389 -101 OFFCURVE",
"330 -149 OFFCURVE",
"239 -149 CURVE SMOOTH",
"162 -149 OFFCURVE",
"118 -124 OFFCURVE",
"58 -79 CURVE",
"39 -114 LINE",
"90 -156 OFFCURVE",
"156 -188 OFFCURVE",
"241 -188 CURVE SMOOTH"
);
},
{
closed = 1;
nodes = (
"151 50 OFFCURVE",
"94 107 OFFCURVE",
"94 208 CURVE SMOOTH",
"94 337 OFFCURVE",
"163 453 OFFCURVE",
"292 453 CURVE SMOOTH",
"389 453 OFFCURVE",
"446 396 OFFCURVE",
"446 296 CURVE SMOOTH",
"446 166 OFFCURVE",
"377 50 OFFCURVE",
"248 50 CURVE SMOOTH"
);
}
);
width = 570;
},
{
anchors = (
{
name = top;
position = "{344, 484}";
}
);
background = {
anchors = (
{
name = bottom;
position = "{276, 0}";
},
{
name = ogonek;
position = "{519, 0}";
},
{
name = top;
position = "{352, 484}";
}
);
paths = (
{
closed = 1;
nodes = (
"274 -12 OFFCURVE",
"332 18 OFFCURVE",
"369 70 CURVE",
"363 70 LINE",
"352 0 LINE",
"555 0 LINE",
"633 494 LINE",
"430 494 LINE",
"419 425 LINE",
"426 422 LINE",
"403 475 OFFCURVE",
"349 506 OFFCURVE",
"281 506 CURVE SMOOTH",
"133 506 OFFCURVE",
"30 381 OFFCURVE",
"30 204 CURVE SMOOTH",
"30 72 OFFCURVE",
"101 -12 OFFCURVE",
"211 -12 CURVE SMOOTH"
);
},
{
closed = 1;
nodes = (
"262 140 OFFCURVE",
"239 168 OFFCURVE",
"239 216 CURVE SMOOTH",
"239 299 OFFCURVE",
"274 354 OFFCURVE",
"328 354 CURVE SMOOTH",
"366 354 OFFCURVE",
"389 326 OFFCURVE",
"389 278 CURVE SMOOTH",
"389 196 OFFCURVE",
"354 140 OFFCURVE",
"300 140 CURVE SMOOTH"
);
}
);
};
guideLines = (
{
angle = 260.665;
position = "{415, 405}";
},
{
angle = 270;
position = "{232, 266}";
},
{
position = "{321, 165}";
}
);
layerId = "4121B50C-FD42-45C5-8FBE-41E76D98F91E";
paths = (
{
closed = 1;
nodes = (
"442 -192 OFFCURVE",
"540 -99 OFFCURVE",
"563 49 CURVE SMOOTH",
"633 494 LINE",
"430 494 LINE",
"419 425 LINE",
"426 422 LINE",
"403 475 OFFCURVE",
"349 506 OFFCURVE",
"277 506 CURVE SMOOTH",
"130 506 OFFCURVE",
"23 378 OFFCURVE",
"23 217 CURVE SMOOTH",
"23 85 OFFCURVE",
"103 13 OFFCURVE",
"223 13 CURVE SMOOTH",
"285 13 OFFCURVE",
"348 38 OFFCURVE",
"377 93 CURVE",
"370 94 LINE",
"361 38 LINE SMOOTH",
"351 -21 OFFCURVE",
"306 -40 OFFCURVE",
"237 -40 CURVE SMOOTH",
"178 -40 OFFCURVE",
"111 -20 OFFCURVE",
"56 9 CURVE",
"-2 -129 LINE",
"74 -173 OFFCURVE",
"163 -192 OFFCURVE",
"270 -192 CURVE SMOOTH"
);
},
{
closed = 1;
nodes = (
"255 165 OFFCURVE",
"232 193 OFFCURVE",
"232 231 CURVE SMOOTH",
"232 299 OFFCURVE",
"267 354 OFFCURVE",
"324 354 CURVE SMOOTH",
"366 354 OFFCURVE",
"389 326 OFFCURVE",
"389 287 CURVE SMOOTH",
"389 221 OFFCURVE",
"354 165 OFFCURVE",
"296 165 CURVE SMOOTH"
);
}
);
width = 638;
},
{
anchors = (
{
name = top;
position = "{354, 484}";
}
);
associatedMasterId = "4121B50C-FD42-45C5-8FBE-41E76D98F91E";
background = {
anchors = (
{
name = bottom;
position = "{276, 0}";
},
{
name = ogonek;
position = "{519, 0}";
},
{
name = top;
position = "{352, 484}";
}
);
paths = (
{
closed = 1;
nodes = (
"274 -12 OFFCURVE",
"332 18 OFFCURVE",
"369 70 CURVE",
"363 70 LINE",
"352 0 LINE",
"555 0 LINE",
"633 494 LINE",
"430 494 LINE",
"419 425 LINE",
"426 422 LINE",
"403 475 OFFCURVE",
"349 506 OFFCURVE",
"281 506 CURVE SMOOTH",
"133 506 OFFCURVE",
"30 381 OFFCURVE",
"30 204 CURVE SMOOTH",
"30 72 OFFCURVE",
"101 -12 OFFCURVE",
"211 -12 CURVE SMOOTH"
);
},
{
closed = 1;
nodes = (
"262 140 OFFCURVE",
"239 168 OFFCURVE",
"239 216 CURVE SMOOTH",
"239 299 OFFCURVE",
"274 354 OFFCURVE",
"328 354 CURVE SMOOTH",
"366 354 OFFCURVE",
"389 326 OFFCURVE",
"389 278 CURVE SMOOTH",
"389 196 OFFCURVE",
"354 140 OFFCURVE",
"300 140 CURVE SMOOTH"
);
}
);
};
guideLines = (
{
angle = 260.665;
position = "{415, 405}";
},
{
angle = 270;
position = "{232, 266}";
},
{
position = "{321, 165}";
}
);
layerId = "D0BC84A5-E6D5-4DF0-8C0A-7ED5C6657EA6";
name = "Sep 13 19, 15:11";
paths = (
{
closed = 1;
nodes = (
"432 -192 OFFCURVE",
"539 -105 OFFCURVE",
"562 43 CURVE SMOOTH",
"633 494 LINE",
"430 494 LINE",
"419 425 LINE",
"426 422 LINE",
"403 475 OFFCURVE",
"349 506 OFFCURVE",
"277 506 CURVE SMOOTH",
"130 506 OFFCURVE",
"23 378 OFFCURVE",
"23 217 CURVE SMOOTH",
"23 85 OFFCURVE",
"103 13 OFFCURVE",
"223 13 CURVE SMOOTH",
"285 13 OFFCURVE",
"348 38 OFFCURVE",
"377 93 CURVE",
"370 94 LINE",
"361 38 LINE SMOOTH",
"352 -18 OFFCURVE",
"311 -40 OFFCURVE",
"252 -40 CURVE SMOOTH",
"193 -40 OFFCURVE",
"119 -31 OFFCURVE",
"53 13 CURVE",
"-5 -125 LINE",
"84 -184 OFFCURVE",
"163 -192 OFFCURVE",
"270 -192 CURVE SMOOTH"
);
},
{
closed = 1;
nodes = (
"255 165 OFFCURVE",
"232 193 OFFCURVE",
"232 231 CURVE SMOOTH",
"232 299 OFFCURVE",
"267 354 OFFCURVE",
"324 354 CURVE SMOOTH",
"366 354 OFFCURVE",
"389 326 OFFCURVE",
"389 287 CURVE SMOOTH",
"389 221 OFFCURVE",
"354 165 OFFCURVE",
"296 165 CURVE SMOOTH"
);
}
);
width = 638;
}
);
leftKerningGroup = o;
rightKerningGroup = u;
rightMetricsKey = "=|n";
unicode = 0067;
userData = {
anchors = (
);
b = {
};
com.typemytype.robofont.layerData = {
b = {
anchors = (
);
components = (
);
contours = (
);
lib = {
};
name = g;
unicodes = (
);
width = 1167;
};
};
components = (
);
contours = (
);
lib = {
};
name = g;
unicodes = (
);
width = 1207;
};
},
{
color = 3;
glyphname = h;
lastChange = "2019-10-08 12:00:05 +0000";
layers = (
{
anchors = (
{
name = bottom;
position = "{246, 0}";
},
{
name = center;
position = "{277, 245}";
},
{
name = dot;
position = "{221, 353}";
},
{
name = stroke;
position = "{210, 580}";
},
{
name = top;
position = "{351, 705}";
},
{
name = topright;
position = "{242, 705}";
}
);
background = {
anchors = (
{
name = bottom;
position = "{238, 0}";
},
{
name = center;
position = "{277, 245}";
},
{
name = dot;
position = "{221, 353}";
},
{
name = stroke;
position = "{210, 580}";
},
{
name = top;
position = "{351, 705}";
},
{
name = topright;
position = "{242, 705}";
}
);
paths = (
{
closed = 1;
nodes = (
"251 492 OFFCURVE",
"174 450 OFFCURVE",
"134 366 CURVE",
"146 366 LINE",
"200 705 LINE",
"158 705 LINE",
"46 0 LINE",
"88 0 LINE",
"132 278 LINE SMOOTH",
"149 384 OFFCURVE",
"227 453 OFFCURVE",
"330 453 CURVE SMOOTH",
"422 453 OFFCURVE",
"454 406 OFFCURVE",
"437 304 CURVE SMOOTH",
"389 0 LINE",
"431 0 LINE",
"480 308 LINE SMOOTH",
"499 430 OFFCURVE",
"452 492 OFFCURVE",
"336 492 CURVE SMOOTH"
);
}
);
};
layerId = "F1F93986-3ED8-4AAE-84C4-CA3EEECDDFA0";
paths = (
{
closed = 1;
nodes = (
"89 0 LINE",
"131 264 LINE SMOOTH",
"149 378 OFFCURVE",
"215 453 OFFCURVE",
"330 453 CURVE SMOOTH",
"417 453 OFFCURVE",
"453 402 OFFCURVE",
"436 296 CURVE SMOOTH",
"389 0 LINE",
"431 0 LINE",
"478 295 LINE SMOOTH",
"499 428 OFFCURVE",
"439 492 OFFCURVE",
"331 492 CURVE SMOOTH",
"236 492 OFFCURVE",
"168 444 OFFCURVE",
"135 364 CURVE",
"147 364 LINE",
"201 705 LINE",
"159 705 LINE",
"47 0 LINE"
);
}
);
width = 553;
},
{
anchors = (
{
name = bottom;
position = "{272, 0}";
},
{
name = center;
position = "{311, 250}";
},
{
name = dot;
position = "{418, 350}";
},
{
name = stroke;
position = "{253, 595}";
},
{
name = top;
position = "{379, 705}";
},
{
name = topright;
position = "{342, 705}";
}
);
background = {
anchors = (
{
name = bottom;
position = "{272, 0}";
},
{
name = center;
position = "{311, 250}";
},
{
name = dot;
position = "{418, 350}";
},
{
name = stroke;
position = "{253, 595}";
},
{
name = top;
position = "{382, 705}";
},
{
name = topright;
position = "{342, 705}";
}
);
paths = (
{
closed = 1;
nodes = (
"371 506 OFFCURVE",
"305 472 OFFCURVE",
"262 415 CURVE",
"278 415 LINE",
"324 705 LINE",
"116 705 LINE",
"5 0 LINE",
"213 0 LINE",
"256 272 LINE SMOOTH",
"263 318 OFFCURVE",
"296 348 OFFCURVE",
"338 348 CURVE SMOOTH",
"367 348 OFFCURVE",
"381 330 OFFCURVE",
"373 279 CURVE SMOOTH",
"329 0 LINE",
"537 0 LINE",
"582 287 LINE SMOOTH",
"606 436 OFFCURVE",
"561 506 OFFCURVE",
"444 506 CURVE SMOOTH"
);
}
);
};
layerId = "4121B50C-FD42-45C5-8FBE-41E76D98F91E";
paths = (
{
closed = 1;
nodes = (
"213 0 LINE",
"254 261 LINE SMOOTH",
"263 317 OFFCURVE",
"293 348 OFFCURVE",
"335 348 CURVE SMOOTH",
"371 348 OFFCURVE",
"380 326 OFFCURVE",
"374 286 CURVE SMOOTH",
"329 0 LINE",
"537 0 LINE",
"583 290 LINE SMOOTH",
"607 442 OFFCURVE",
"540 506 OFFCURVE",
"434 506 CURVE SMOOTH",
"361 506 OFFCURVE",
"302 475 OFFCURVE",
"268 416 CURVE",
"279 416 LINE",
"325 705 LINE",
"117 705 LINE",
"5 0 LINE"
);
}
);
width = 618;
}
);
leftKerningGroup = h;
leftMetricsKey = n;
rightKerningGroup = n;
rightMetricsKey = n;
unicode = 0068;
userData = {
anchors = (
);
b = {
};
com.typemytype.robofont.layerData = {
b = {
anchors = (
);
components = (
);
contours = (
);
lib = {
};
name = h;
unicodes = (
);
width = 1148;
};
};
components = (
);
contours = {
};
lib = {
};
name = h;
points = {
};
segmentType = curve;
unicodes = (
);
width = 1195;
x = 137;
y = 113;
};
},
{
color = 3;
glyphname = idotless;
lastChange = "2019-10-07 14:35:06 +0000";
layers = (
{
anchors = (
{
name = bottom;
position = "{68, 0}";
},
{
name = ogonek;
position = "{89, 0}";
},
{
name = top;
position = "{146, 484}";
}
);
background = {
anchors = (
{
name = bottom;
position = "{68, 0}";
},
{
name = ogonek;
position = "{89, 0}";
},
{
name = top;
position = "{145, 484}";
}
);
paths = (
{
closed = 1;
nodes = (
"89 0 LINE",
"166 484 LINE",
"124 484 LINE",
"47 0 LINE"
);
}
);
};
layerId = "F1F93986-3ED8-4AAE-84C4-CA3EEECDDFA0";
paths = (
{
closed = 1;
nodes = (
"89 0 LINE",
"166 484 LINE",
"124 484 LINE",
"47 0 LINE"
);
}
);
width = 212;
},
{
anchors = (
{
name = bottom;
position = "{109, 0}";
},
{
name = ogonek;
position = "{161, 0}";
},
{
name = top;
position = "{185, 484}";
}
);
background = {
anchors = (
{
name = bottom;
position = "{148, 0}";
},
{
name = ogonek;
position = "{200, 0}";
},
{
name = top;
position = "{148, 484}";
}
);
paths = (
{
closed = 1;
nodes = (
"252 0 LINE",
"252 494 LINE",
"44 494 LINE",
"44 0 LINE"
);
}
);
};
layerId = "4121B50C-FD42-45C5-8FBE-41E76D98F91E";
paths = (
{
closed = 1;
nodes = (
"213 0 LINE",
"291 494 LINE",
"83 494 LINE",
"5 0 LINE"
);
}
);
width = 296;
}
);
leftKerningGroup = n;
leftMetricsKey = n;
rightKerningGroup = u;
unicode = 0131;
},
{
color = 3;
glyphname = jdotless;
lastChange = "2019-09-17 10:56:21 +0000";
layers = (
{
anchors = (
{
name = bottom;
position = "{70, 0}";
},
{
name = top;
position = "{148, 484}";
}
);
background = {
anchors = (
{
name = bottom;
position = "{70, 0}";
},
{
name = top;
position = "{147, 484}";
}
);
paths = (
{
closed = 1;
nodes = (
"126 484 LINE",
"46 -22 LINE SMOOTH",
"33 -102 OFFCURVE",
"-11 -147 OFFCURVE",
"-80 -152 CURVE SMOOTH",
"-121 -155 LINE",
"-124 -193 LINE",
"-81 -190 LINE SMOOTH",
"10 -184 OFFCURVE",
"72 -124 OFFCURVE",
"88 -21 CURVE SMOOTH",
"168 484 LINE"
);
}
);
};
layerId = "F1F93986-3ED8-4AAE-84C4-CA3EEECDDFA0";
paths = (
{
closed = 1;
nodes = (
"126 484 LINE",
"46 -22 LINE SMOOTH",
"33 -102 OFFCURVE",
"-10 -147 OFFCURVE",
"-80 -152 CURVE SMOOTH",
"-121 -155 LINE",
"-119 -193 LINE",
"-76 -190 LINE SMOOTH",
"11 -184 OFFCURVE",
"71 -129 OFFCURVE",
"87 -26 CURVE SMOOTH",
"168 484 LINE"
);
}
);
width = 215;
},
{
anchors = (
{
name = bottom;
position = "{114, 0}";
},
{
name = top;
position = "{190, 484}";
}
);
background = {
anchors = (
{
name = bottom;
position = "{153, 0}";
},
{
name = top;
position = "{153, 484}";
}
);
paths = (
{
closed = 1;
nodes = (
"89 494 LINE",
"12 8 LINE SMOOTH",
"7 -24 OFFCURVE",
"-8 -38 OFFCURVE",
"-44 -42 CURVE SMOOTH",
"-95 -48 LINE",
"-104 -193 LINE",
"-60 -190 LINE SMOOTH",
"132 -177 OFFCURVE",
"200 -120 OFFCURVE",
"225 39 CURVE SMOOTH",
"297 494 LINE"
);
}
);
};
layerId = "4121B50C-FD42-45C5-8FBE-41E76D98F91E";
paths = (
{
closed = 1;
nodes = (
"89 494 LINE",
"12 8 LINE SMOOTH",
"7 -24 OFFCURVE",
"-6 -38 OFFCURVE",
"-44 -42 CURVE SMOOTH",
"-97 -48 LINE",
"-83 -193 LINE",
"-36 -190 LINE SMOOTH",
"146 -178 OFFCURVE",
"200 -120 OFFCURVE",
"225 39 CURVE SMOOTH",
"297 494 LINE"
);
}
);
width = 303;
}
);
leftKerningGroup = j;
rightKerningGroup = l;
unicode = 0237;
},
{
color = 3;
glyphname = k;
lastChange = "2019-10-08 11:55:41 +0000";
layers = (
{
anchors = (
{
name = bottom;
position = "{199, 0}";
},
{
name = top;
position = "{307, 705}";
}
);
background = {
anchors = (
{
name = bottom;
position = "{195, 0}";
},
{
name = top;
position = "{307, 705}";
}
);
paths = (
{
closed = 1;
nodes = (
"158 267 LINE",
"152 231 LINE",
"478 484 LINE",
"418 484 LINE",
"132 260 LINE",
"130 260 LINE",
"200 705 LINE",
"158 705 LINE",
"46 0 LINE",
"88 0 LINE",
"126 237 LINE",
"128 237 LINE",
"369 0 LINE",
"428 0 LINE"
);
}
);
};
guideLines = (
{
angle = -44.2838;
position = "{291, 134}";
}
);
layerId = "F1F93986-3ED8-4AAE-84C4-CA3EEECDDFA0";
paths = (
{
closed = 1;
nodes = (
"89 0 LINE",
"127 237 LINE",
"129 237 LINE",
"373 0 LINE",
"429 0 LINE",
"156 264 LINE",
"150 225 LINE",
"476 484 LINE",
"416 484 LINE",
"133 260 LINE",
"131 260 LINE",
"201 705 LINE",
"159 705 LINE",
"47 0 LINE"
);
}
);
width = 468;
},
{
anchors = (
{
name = bottom;
position = "{262, 0}";
},
{
name = top;
position = "{373, 705}";
}
);
background = {
anchors = (
{
name = bottom;
position = "{263, 0}";
},
{
name = top;
position = "{374, 705}";
}
);
paths = (
{
closed = 1;
nodes = (
"441 295 LINE",
"431 227 LINE",
"678 494 LINE",
"436 494 LINE",
"263 302 LINE",
"261 302 LINE",
"324 705 LINE",
"116 705 LINE",
"5 0 LINE",
"213 0 LINE",
"244 198 LINE",
"246 198 LINE",
"355 0 LINE",
"602 0 LINE"
);
}
);
};
guideLines = (
{
angle = -60.1372;
position = "{510, 159}";
}
);
layerId = "4121B50C-FD42-45C5-8FBE-41E76D98F91E";
paths = (
{
closed = 1;
nodes = (
"214 0 LINE",
"247 209 LINE",
"249 209 LINE",
"368 0 LINE",
"602 0 LINE",
"431 296 LINE",
"438 227 LINE",
"672 494 LINE",
"433 494 LINE",
"263 302 LINE",
"261 302 LINE",
"325 705 LINE",
"117 705 LINE",
"6 0 LINE"
);
}
);
width = 605;
}
);
leftKerningGroup = h;
leftMetricsKey = l;
rightKerningGroup = k;
unicode = 006B;
userData = {
com.typemytype.robofont.layerData = {
b = {
anchors = (
);
components = (
);
contours = (
{
points = (
{
segmentType = line;
smooth = 0;
x = 318;
y = 536;
},
{
segmentType = line;
smooth = 1;
x = 793;
y = 27;
},
{
smooth = 0;
x = 809;
y = 9;
},
{
smooth = 0;
x = 828;
y = 1;
},
{
segmentType = curve;
smooth = 1;
x = 845;
y = 1;
},
{
smooth = 0;
x = 883;
y = 1;
},
{
smooth = 0;
x = 922;
y = 33;
},
{
segmentType = curve;
smooth = 1;
x = 922;
y = 71;
},
{
smooth = 0;
x = 922;
y = 84;
},
{
smooth = 0;
x = 918;
y = 99;
},
{
segmentType = curve;
smooth = 1;
x = 906;
y = 112;
},
{
segmentType = line;
smooth = 0;
x = 492;
y = 554;
},
{
segmentType = line;
smooth = 1;
x = 873;
y = 889;
},
{
smooth = 0;
x = 888;
y = 902;
},
{
smooth = 0;
x = 894;
y = 918;
},
{
segmentType = curve;
smooth = 1;
x = 894;
y = 933;
},
{
smooth = 0;
x = 894;
y = 968;
},
{
smooth = 0;
x = 858;
y = 1002;
},
{
segmentType = curve;
smooth = 1;
x = 821;
y = 1002;
},
{
smooth = 0;
x = 802;
y = 1002;
},
{
smooth = 0;
x = 785;
y = 994;
},
{
segmentType = curve;
smooth = 0;
x = 770;
y = 979;
},
{
segmentType = line;
smooth = 0;
x = 318;
y = 574;
}
);
}
);
lib = {
};
name = k;
unicodes = (
);
width = 984;
};
};
};
},
{
color = 3;
glyphname = kgreenlandic;
lastChange = "2019-09-12 08:06:30 +0000";
layers = (
{
anchors = (
{
name = bottom;
position = "{195, 0}";
},
{
name = top;
position = "{272, 484}";
}
);
background = {
anchors = (
{
name = bottom;
position = "{195, 0}";
},
{
name = top;
position = "{272, 484}";
}
);
paths = (
{
closed = 1;
nodes = (
"89 0 LINE",
"127 237 LINE",
"129 237 LINE",
"373 0 LINE",
"429 0 LINE",
"156 264 LINE",
"150 225 LINE",
"476 484 LINE",
"416 484 LINE",
"133 260 LINE",
"131 260 LINE",
"201 705 LINE",
"159 705 LINE",
"47 0 LINE"
);
}
);
};
layerId = "F1F93986-3ED8-4AAE-84C4-CA3EEECDDFA0";
paths = (
{
closed = 1;
nodes = (
"156 264 LINE",
"150 225 LINE",
"476 484 LINE",
"416 484 LINE",
"132 259 LINE",
"130 259 LINE",
"167 492 LINE",
"125 492 LINE",
"47 0 LINE",
"89 0 LINE",
"127 237 LINE",
"129 237 LINE",
"373 0 LINE",
"429 0 LINE"
);
}
);
width = 468;
},
{
anchors = (
{
name = bottom;
position = "{263, 0}";
},
{
name = top;
position = "{339, 484}";
}
);
background = {
anchors = (
{
name = bottom;
position = "{302, 0}";
},
{
name = top;
position = "{302, 484}";
}
);
paths = (
{
closed = 1;
nodes = (
"214 0 LINE",
"247 209 LINE",
"249 209 LINE",
"368 0 LINE",
"602 0 LINE",
"431 296 LINE",
"438 227 LINE",
"672 495 LINE",
"433 495 LINE",
"263 302 LINE",
"261 302 LINE",
"325 705 LINE",
"117 705 LINE",
"6 0 LINE"
);
}
);
};
layerId = "4121B50C-FD42-45C5-8FBE-41E76D98F91E";
paths = (
{
closed = 1;
nodes = (
"431 296 LINE",
"438 227 LINE",
"672 494 LINE",
"433 494 LINE",
"263 302 LINE",
"261 302 LINE",
"291 494 LINE",
"83 494 LINE",
"5 0 LINE",
"213 0 LINE",
"247 209 LINE",
"249 209 LINE",
"368 0 LINE",
"602 0 LINE"
);
}
);
width = 605;
}
);
leftKerningGroup = n;
leftMetricsKey = n;
rightKerningGroup = k;
rightMetricsKey = k;
unicode = 0138;
userData = {
com.typemytype.robofont.layerData = {
b = {
anchors = (
);
components = (
);
contours = (
);
lib = {
};
name = kgreenlandic;
unicodes = (
);
width = 1047;
};
};
};
},
{
color = 3;
glyphname = l;
lastChange = "2019-10-07 14:18:02 +0000";
layers = (
{
anchors = (
{
name = bottom;
position = "{143, 0}";
},
{
name = center;
position = "{125, 357}";
},
{
name = dot;
position = "{251, 353}";
},
{
name = top;
position = "{180, 705}";
},
{
name = topright;
position = "{250, 705}";
}
);
background = {
anchors = (
{
name = bottom;
position = "{142, 0}";
},
{
name = center;
position = "{124, 357}";
},
{
name = dot;
position = "{251, 353}";
},
{
name = top;
position = "{179, 705}";
},
{
name = topright;
position = "{250, 705}";
}
);
paths = (
{
closed = 1;
nodes = (
"191 -8 OFFCURVE",
"207 -6 OFFCURVE",
"226 -2 CURVE",
"235 37 LINE",
"220 33 OFFCURVE",
"204 31 OFFCURVE",
"187 31 CURVE SMOOTH",
"125 31 OFFCURVE",
"100 72 OFFCURVE",
"113 153 CURVE SMOOTH",
"200 705 LINE",
"158 705 LINE",
"69 146 LINE SMOOTH",
"54 48 OFFCURVE",
"93 -8 OFFCURVE",
"177 -8 CURVE SMOOTH"
);
}
);
};
layerId = "F1F93986-3ED8-4AAE-84C4-CA3EEECDDFA0";
paths = (
{
closed = 1;
nodes = (
"191 -8 OFFCURVE",
"211 -6 OFFCURVE",
"226 -1 CURVE",
"235 37 LINE",
"218 33 OFFCURVE",
"202 31 OFFCURVE",
"185 31 CURVE SMOOTH",
"122 31 OFFCURVE",
"98 62 OFFCURVE",
"111 143 CURVE SMOOTH",
"200 705 LINE",
"158 705 LINE",
"69 143 LINE SMOOTH",
"53 43 OFFCURVE",
"94 -8 OFFCURVE",
"177 -8 CURVE SMOOTH"
);
}
);
width = 275;
},
{
anchors = (
{
name = bottom;
position = "{169, 0}";
},
{
name = center;
position = "{165, 357}";
},
{
name = dot;
position = "{418, 350}";
},
{
name = top;
position = "{220, 705}";
},
{
name = topright;
position = "{355, 705}";
}
);
background = {
anchors = (
{
name = bottom;
position = "{164, 0}";
},
{
name = center;
position = "{165, 357}";
},
{
name = dot;
position = "{418, 350}";
},
{
name = top;
position = "{220, 705}";
},
{
name = topright;
position = "{354, 705}";
}
);
paths = (
{
closed = 1;
nodes = (
"247 -12 OFFCURVE",
"278 -8 OFFCURVE",
"309 1 CURVE",
"335 158 LINE",
"322 155 OFFCURVE",
"308 154 OFFCURVE",
"295 154 CURVE SMOOTH",
"255 154 OFFCURVE",
"241 176 OFFCURVE",
"246 212 CURVE SMOOTH",
"324 705 LINE",
"116 705 LINE",
"38 207 LINE SMOOTH",
"14 59 OFFCURVE",
"63 -12 OFFCURVE",
"212 -12 CURVE SMOOTH"
);
}
);
};
layerId = "4121B50C-FD42-45C5-8FBE-41E76D98F91E";
paths = (
{
closed = 1;
nodes = (
"255 -12 OFFCURVE",
"284 -8 OFFCURVE",
"309 -1 CURVE",
"335 155 LINE",
"322 154 OFFCURVE",
"308 153 OFFCURVE",
"296 153 CURVE SMOOTH",
"257 153 OFFCURVE",
"241 173 OFFCURVE",
"247 211 CURVE SMOOTH",
"325 705 LINE",
"117 705 LINE",
"39 208 LINE SMOOTH",
"17 65 OFFCURVE",
"78 -12 OFFCURVE",
"220 -12 CURVE SMOOTH"
);
}
);
width = 364;
}
);
leftKerningGroup = h;
rightKerningGroup = ltail;
unicode = 006C;
userData = {
com.typemytype.robofont.layerData = {
b = {
anchors = (
);
components = (
);
contours = (
);
lib = {
};
name = l;
unicodes = (
);
width = 511;
};
};
};
},
{
color = 3;
glyphname = m;
lastChange = "2019-09-12 08:06:30 +0000";
layers = (
{
anchors = (
{
name = bottom;
position = "{381, 0}";
},
{
name = top;
position = "{458, 484}";
}
);
background = {
anchors = (
{
name = bottom;
position = "{381, 0}";
},
{
name = top;
position = "{458, 484}";
}
);
paths = (
{
closed = 1;
nodes = (
"546 492 OFFCURVE",
"472 442 OFFCURVE",
"439 365 CURVE",
"454 365 LINE",
"453 450 OFFCURVE",
"408 492 OFFCURVE",
"321 492 CURVE SMOOTH",
"240 492 OFFCURVE",
"173 448 OFFCURVE",
"136 366 CURVE",
"147 366 LINE",
"166 484 LINE",
"125 484 LINE",
"48 0 LINE",
"90 0 LINE",
"134 278 LINE SMOOTH",
"151 384 OFFCURVE",
"221 453 OFFCURVE",
"313 453 CURVE SMOOTH",
"398 453 OFFCURVE",
"425 406 OFFCURVE",
"408 304 CURVE SMOOTH",
"360 0 LINE",
"402 0 LINE",
"446 278 LINE SMOOTH",
"463 384 OFFCURVE",
"533 453 OFFCURVE",
"625 453 CURVE SMOOTH",
"710 453 OFFCURVE",
"737 406 OFFCURVE",
"720 304 CURVE SMOOTH",
"672 0 LINE",
"714 0 LINE",
"763 308 LINE SMOOTH",
"783 431 OFFCURVE",
"738 492 OFFCURVE",
"633 492 CURVE SMOOTH"
);
}
);
};
layerId = "F1F93986-3ED8-4AAE-84C4-CA3EEECDDFA0";
paths = (
{
closed = 1;
nodes = (
"91 0 LINE",
"133 264 LINE SMOOTH",
"152 382 OFFCURVE",
"217 453 OFFCURVE",
"312 453 CURVE SMOOTH",
"393 453 OFFCURVE",
"424 403 OFFCURVE",
"408 301 CURVE SMOOTH",
"360 0 LINE",
"402 0 LINE",
"444 264 LINE SMOOTH",
"463 382 OFFCURVE",
"528 453 OFFCURVE",
"623 453 CURVE SMOOTH",
"704 453 OFFCURVE",
"735 403 OFFCURVE",
"719 301 CURVE SMOOTH",
"672 0 LINE",
"714 0 LINE",
"761 295 LINE SMOOTH",
"782 429 OFFCURVE",
"726 492 OFFCURVE",
"625 492 CURVE SMOOTH",
"535 492 OFFCURVE",
"470 443 OFFCURVE",
"440 364 CURVE",
"452 363 LINE",
"445 447 OFFCURVE",
"393 492 OFFCURVE",
"314 492 CURVE SMOOTH",
"233 492 OFFCURVE",
"171 445 OFFCURVE",
"137 364 CURVE",
"147 363 LINE",
"167 484 LINE",
"126 484 LINE",
"49 0 LINE"
);
}
);
width = 838;
},
{
anchors = (
{
name = bottom;
position = "{420, 0}";
},
{
name = top;
position = "{496, 484}";
}
);
background = {
paths = (
{
closed = 1;
nodes = (
"-94 0 LINE",
"-55 244 LINE SMOOTH",
"-43 317 OFFCURVE",
"-25 348 OFFCURVE",
"19 348 CURVE SMOOTH",
"48 348 OFFCURVE",
"59 333 OFFCURVE",
"51 282 CURVE SMOOTH",
"8 0 LINE",
"215 0 LINE",
"256 261 LINE SMOOTH",
"265 317 OFFCURVE",
"290 348 OFFCURVE",
"327 348 CURVE SMOOTH",
"356 348 OFFCURVE",
"367 326 OFFCURVE",
"361 286 CURVE SMOOTH",
"316 0 LINE",
"524 0 LINE",
"570 290 LINE SMOOTH",
"594 442 OFFCURVE",
"527 506 OFFCURVE",
"421 506 CURVE SMOOTH",
"348 506 OFFCURVE",
"286 476 OFFCURVE",
"248 411 CURVE",
"263 400 LINE",
"235 476 OFFCURVE",
"171 506 OFFCURVE",
"121 506 CURVE SMOOTH",
"51 506 OFFCURVE",
"3 480 OFFCURVE",
"-43 410 CURVE",
"-35 406 LINE",
"-21 494 LINE",
"-224 494 LINE",
"-302 0 LINE"
);
}
);
};
layerId = "4121B50C-FD42-45C5-8FBE-41E76D98F91E";
paths = (
{
closed = 1;
nodes = (
"215 0 LINE",
"256 261 LINE SMOOTH",
"265 317 OFFCURVE",
"290 348 OFFCURVE",
"327 348 CURVE SMOOTH",
"356 348 OFFCURVE",
"367 326 OFFCURVE",
"361 286 CURVE SMOOTH",
"316 0 LINE",
"524 0 LINE",
"565 261 LINE SMOOTH",
"574 317 OFFCURVE",
"599 348 OFFCURVE",
"636 348 CURVE SMOOTH",
"665 348 OFFCURVE",
"676 326 OFFCURVE",
"670 286 CURVE SMOOTH",
"625 0 LINE",
"833 0 LINE",
"879 290 LINE SMOOTH",
"903 442 OFFCURVE",
"836 506 OFFCURVE",
"730 506 CURVE SMOOTH",
"657 506 OFFCURVE",
"595 476 OFFCURVE",
"557 411 CURVE",
"572 400 LINE",
"547 471 OFFCURVE",
"500 506 OFFCURVE",
"429 506 CURVE SMOOTH",
"370 506 OFFCURVE",
"305 480 OFFCURVE",
"264 410 CURVE",
"275 410 LINE",
"288 494 LINE",
"85 494 LINE",
"7 0 LINE"
);
}
);
width = 916;
}
);
leftKerningGroup = n;
leftMetricsKey = "=n+2";
rightKerningGroup = n;
rightMetricsKey = "=n+2";
unicode = 006D;
userData = {
anchors = (
);
b = {
};
com.typemytype.robofont.layerData = {
b = {
anchors = (
);
components = (
);
contours = (
);
lib = {
};
name = m;
unicodes = (
);
width = 1838;
};
};
components = (
);
contours = (
);
lib = {
};
name = m;
unicodes = (
);
width = 1877;
};
},
{
color = 3;
glyphname = n;
lastChange = "2019-10-08 12:00:11 +0000";
layers = (
{
anchors = (
{
name = bottom;
position = "{244, 0}";
},
{
name = top;
position = "{316, 484}";
}
);
background = {
anchors = (
{
name = bottom;
position = "{238, 0}";
},
{
name = top;
position = "{315, 484}";
}
);
paths = (
{
closed = 1;
nodes = (
"89 0 LINE",
"131 264 LINE SMOOTH",
"149 378 OFFCURVE",
"215 453 OFFCURVE",
"330 453 CURVE SMOOTH",
"417 453 OFFCURVE",
"453 402 OFFCURVE",
"436 296 CURVE SMOOTH",
"389 0 LINE",
"431 0 LINE",
"478 295 LINE SMOOTH",
"499 428 OFFCURVE",
"439 492 OFFCURVE",
"331 492 CURVE SMOOTH",
"236 492 OFFCURVE",
"168 444 OFFCURVE",
"135 364 CURVE",
"147 364 LINE",
"201 705 LINE",
"159 705 LINE",
"47 0 LINE"
);
}
);
};
layerId = "F1F93986-3ED8-4AAE-84C4-CA3EEECDDFA0";
paths = (
{
closed = 1;
nodes = (
"89 0 LINE",
"131 264 LINE SMOOTH",
"149 378 OFFCURVE",
"215 453 OFFCURVE",
"330 453 CURVE SMOOTH",
"417 453 OFFCURVE",
"453 402 OFFCURVE",
"436 296 CURVE SMOOTH",
"389 0 LINE",
"431 0 LINE",
"478 295 LINE SMOOTH",
"499 428 OFFCURVE",
"439 492 OFFCURVE",
"331 492 CURVE SMOOTH",
"236 492 OFFCURVE",
"168 444 OFFCURVE",
"135 364 CURVE",
"146 364 LINE",
"165 484 LINE",
"124 484 LINE",
"47 0 LINE"
);
}
);
width = 553;
},
{
anchors = (
{
name = bottom;
position = "{272, 0}";
},
{
name = top;
position = "{340, 484}";
}
);
background = {
anchors = (
{
name = bottom;
position = "{272, 0}";
},
{
name = top;
position = "{348, 484}";
}
);
paths = (
{
closed = 1;
nodes = (
"213 0 LINE",
"254 261 LINE SMOOTH",
"263 317 OFFCURVE",
"293 348 OFFCURVE",
"335 348 CURVE SMOOTH",
"371 348 OFFCURVE",
"380 326 OFFCURVE",
"374 286 CURVE SMOOTH",
"329 0 LINE",
"537 0 LINE",
"583 290 LINE SMOOTH",
"607 442 OFFCURVE",
"540 506 OFFCURVE",
"434 506 CURVE SMOOTH",
"361 506 OFFCURVE",
"302 475 OFFCURVE",
"268 416 CURVE",
"279 416 LINE",
"325 705 LINE",
"117 705 LINE",
"5 0 LINE"
);
}
);
};
layerId = "4121B50C-FD42-45C5-8FBE-41E76D98F91E";
paths = (
{
closed = 1;
nodes = (
"213 0 LINE",
"254 261 LINE SMOOTH",
"263 317 OFFCURVE",
"293 348 OFFCURVE",
"335 348 CURVE SMOOTH",
"371 348 OFFCURVE",
"380 326 OFFCURVE",
"374 286 CURVE SMOOTH",
"329 0 LINE",
"537 0 LINE",
"583 290 LINE SMOOTH",
"607 442 OFFCURVE",
"540 506 OFFCURVE",
"434 506 CURVE SMOOTH",
"361 506 OFFCURVE",
"302 475 OFFCURVE",
"268 416 CURVE",
"274 416 LINE",
"286 494 LINE",
"83 494 LINE",
"5 0 LINE"
);
}
);
width = 618;
}
);
leftKerningGroup = n;
rightKerningGroup = n;
unicode = 006E;
userData = {
anchors = (
);
b = {
};
com.typemytype.robofont.layerData = {
b = {
anchors = (
);
components = (
);
contours = (
);
lib = {
};
name = n;
unicodes = (
);
width = 1152;
};
};
components = (
);
contours = {
};
lib = {
};
name = n;
points = {
};
segmentType = curve;
unicodes = (
);
width = 1195;
x = 137;
y = 113;
};
},
{
color = 3;
glyphname = eng;
lastChange = "2019-09-12 08:06:30 +0000";
layers = (
{
background = {
paths = (
{
closed = 1;
nodes = (
"466 484 LINE",
"386 -22 LINE SMOOTH",
"373 -102 OFFCURVE",
"329 -147 OFFCURVE",
"259 -152 CURVE SMOOTH",
"218 -155 LINE",
"220 -193 LINE",
"263 -190 LINE SMOOTH",
"350 -184 OFFCURVE",
"411 -129 OFFCURVE",
"427 -26 CURVE SMOOTH",
"508 484 LINE"
);
}
);
};
layerId = "F1F93986-3ED8-4AAE-84C4-CA3EEECDDFA0";
paths = (
{
closed = 1;
nodes = (
"478 295 LINE SMOOTH",
"499 428 OFFCURVE",
"439 492 OFFCURVE",
"331 492 CURVE SMOOTH",
"236 492 OFFCURVE",
"168 444 OFFCURVE",
"135 364 CURVE",
"146 366 LINE",
"165 484 LINE",
"124 484 LINE",
"47 0 LINE",
"89 0 LINE",
"131 264 LINE SMOOTH",
"149 378 OFFCURVE",
"215 453 OFFCURVE",
"330 453 CURVE SMOOTH",
"417 453 OFFCURVE",
"453 402 OFFCURVE",
"436 296 CURVE SMOOTH",
"386 -22 LINE SMOOTH",
"373 -102 OFFCURVE",
"329 -147 OFFCURVE",
"259 -152 CURVE SMOOTH",
"218 -155 LINE",
"220 -193 LINE",
"263 -190 LINE SMOOTH",
"350 -184 OFFCURVE",
"411 -129 OFFCURVE",
"427 -26 CURVE SMOOTH"
);
}
);
width = 553;
},
{
background = {
paths = (
{
closed = 1;
nodes = (
"407 494 LINE",
"330 8 LINE SMOOTH",
"325 -24 OFFCURVE",
"304 -38 OFFCURVE",
"266 -42 CURVE SMOOTH",
"213 -48 LINE",
"227 -193 LINE",
"274 -190 LINE SMOOTH",
"456 -178 OFFCURVE",
"518 -120 OFFCURVE",
"543 39 CURVE SMOOTH",
"615 494 LINE"
);
}
);
};
layerId = "4121B50C-FD42-45C5-8FBE-41E76D98F91E";
paths = (
{
closed = 1;
nodes = (
"583 290 LINE SMOOTH",
"607 442 OFFCURVE",
"540 506 OFFCURVE",
"434 506 CURVE SMOOTH",
"361 506 OFFCURVE",
"302 475 OFFCURVE",
"268 416 CURVE",
"273 415 LINE",
"286 494 LINE",
"83 494 LINE",
"5 0 LINE",
"213 0 LINE",
"254 261 LINE SMOOTH",
"263 317 OFFCURVE",
"293 348 OFFCURVE",
"335 348 CURVE SMOOTH",
"371 348 OFFCURVE",
"380 326 OFFCURVE",
"374 286 CURVE SMOOTH",
"330 8 LINE SMOOTH",
"325 -24 OFFCURVE",
"304 -38 OFFCURVE",
"266 -42 CURVE SMOOTH",
"213 -48 LINE",
"227 -193 LINE",
"274 -190 LINE SMOOTH",
"456 -178 OFFCURVE",
"518 -120 OFFCURVE",
"543 39 CURVE SMOOTH"
);
}
);
width = 618;
}
);
leftKerningGroup = n;
leftMetricsKey = n;
widthMetricsKey = n;
rightKerningGroup = n;
unicode = 014B;
},
{
color = 3;
glyphname = o;
lastChange = "2019-10-08 11:54:03 +0000";
layers = (
{
anchors = (
{
name = bottom;
position = "{243, 0}";
},
{
name = center;
position = "{272, 242}";
},
{
name = ogonek;
position = "{302, 0}";
},
{
name = top;
position = "{310, 484}";
},
{
name = topright;
position = "{356, 484}";
}
);
background = {
paths = (
{
closed = 1;
nodes = (
"1102 -8 OFFCURVE",
"1187 130 OFFCURVE",
"1187 284 CURVE SMOOTH",
"1187 414 OFFCURVE",
"1112 492 OFFCURVE",
"993 492 CURVE SMOOTH",
"836 492 OFFCURVE",
"751 354 OFFCURVE",
"751 200 CURVE SMOOTH",
"751 70 OFFCURVE",
"826 -8 OFFCURVE",
"945 -8 CURVE SMOOTH"
);
},
{
closed = 1;
nodes = (
"851 31 OFFCURVE",
"794 88 OFFCURVE",
"794 198 CURVE SMOOTH",
"794 337 OFFCURVE",
"863 453 OFFCURVE",
"991 453 CURVE SMOOTH",
"1087 453 OFFCURVE",
"1144 396 OFFCURVE",
"1144 286 CURVE SMOOTH",
"1144 147 OFFCURVE",
"1075 31 OFFCURVE",
"947 31 CURVE SMOOTH"
);
},
{
closed = 1;
nodes = (
"361 -8 OFFCURVE",
"461 90 OFFCURVE",
"485 242 CURVE SMOOTH",
"509 394 OFFCURVE",
"441 492 OFFCURVE",
"309 492 CURVE SMOOTH",
"177 492 OFFCURVE",
"77 394 OFFCURVE",
"53 242 CURVE SMOOTH",
"29 90 OFFCURVE",
"97 -8 OFFCURVE",
"229 -8 CURVE SMOOTH"
);
},
{
closed = 1;
nodes = (
"130 31 OFFCURVE",
"75 109 OFFCURVE",
"96 242 CURVE SMOOTH",
"117 375 OFFCURVE",
"196 453 OFFCURVE",
"302 453 CURVE SMOOTH",
"408 453 OFFCURVE",
"463 375 OFFCURVE",
"442 242 CURVE SMOOTH",
"421 109 OFFCURVE",
"342 31 OFFCURVE",
"236 31 CURVE SMOOTH"
);
}
);
};
layerId = "F1F93986-3ED8-4AAE-84C4-CA3EEECDDFA0";
paths = (
{
closed = 1;
nodes = (
"402 -8 OFFCURVE",
"487 130 OFFCURVE",
"487 284 CURVE SMOOTH",
"487 414 OFFCURVE",
"412 492 OFFCURVE",
"293 492 CURVE SMOOTH",
"136 492 OFFCURVE",
"51 354 OFFCURVE",
"51 200 CURVE SMOOTH",
"51 70 OFFCURVE",
"126 -8 OFFCURVE",
"245 -8 CURVE SMOOTH"
);
},
{
closed = 1;
nodes = (
"151 31 OFFCURVE",
"94 88 OFFCURVE",
"94 198 CURVE SMOOTH",
"94 337 OFFCURVE",
"163 453 OFFCURVE",
"291 453 CURVE SMOOTH",
"387 453 OFFCURVE",
"444 396 OFFCURVE",
"444 286 CURVE SMOOTH",
"444 147 OFFCURVE",
"375 31 OFFCURVE",
"247 31 CURVE SMOOTH"
);
}
);
width = 538;
},
{
anchors = (
{
name = bottom;
position = "{269, 0}";
},
{
name = center;
position = "{308, 247}";
},
{
name = ogonek;
position = "{333, 0}";
},
{
name = top;
position = "{345, 484}";
},
{
name = topright;
position = "{402, 484}";
}
);
background = {
paths = (
{
closed = 1;
nodes = (
"467 -12 OFFCURVE",
"592 98 OFFCURVE",
"592 271 CURVE SMOOTH",
"592 411 OFFCURVE",
"496 506 OFFCURVE",
"326 506 CURVE SMOOTH",
"149 506 OFFCURVE",
"24 396 OFFCURVE",
"24 223 CURVE SMOOTH",
"24 83 OFFCURVE",
"120 -12 OFFCURVE",
"291 -12 CURVE SMOOTH"
);
},
{
closed = 1;
nodes = (
"256 140 OFFCURVE",
"233 168 OFFCURVE",
"233 216 CURVE SMOOTH",
"233 299 OFFCURVE",
"268 354 OFFCURVE",
"322 354 CURVE SMOOTH",
"360 354 OFFCURVE",
"383 326 OFFCURVE",
"383 278 CURVE SMOOTH",
"383 195 OFFCURVE",
"348 140 OFFCURVE",
"294 140 CURVE SMOOTH"
);
}
);
};
layerId = "4121B50C-FD42-45C5-8FBE-41E76D98F91E";
paths = (
{
closed = 1;
nodes = (
"435 -12 OFFCURVE",
"592 73 OFFCURVE",
"592 271 CURVE SMOOTH",
"592 411 OFFCURVE",
"496 506 OFFCURVE",
"326 506 CURVE SMOOTH",
"181 506 OFFCURVE",
"24 421 OFFCURVE",
"24 223 CURVE SMOOTH",
"24 83 OFFCURVE",
"120 -12 OFFCURVE",
"290 -12 CURVE SMOOTH"
);
},
{
closed = 1;
nodes = (
"256 140 OFFCURVE",
"233 168 OFFCURVE",
"233 216 CURVE SMOOTH",
"233 299 OFFCURVE",
"268 354 OFFCURVE",
"322 354 CURVE SMOOTH",
"360 354 OFFCURVE",
"383 326 OFFCURVE",
"383 278 CURVE SMOOTH",
"383 195 OFFCURVE",
"348 140 OFFCURVE",
"294 140 CURVE SMOOTH"
);
}
);
width = 616;
}
);
leftKerningGroup = o;
rightKerningGroup = o;
unicode = 006F;
userData = {
anchors = (
);
b = {
};
com.typemytype.robofont.guides = (
);
com.typemytype.robofont.layerData = {
b = {
anchors = (
);
components = (
);
contours = (
);
lib = {
};
name = o;
unicodes = (
);
width = 1144;
};
};
components = (
);
contours = (
);
lib = {
};
name = o;
unicodes = (
);
width = 1199;
};
},
{
glyphname = oe;
lastChange = "2019-10-04 08:52:42 +0000";
layers = (
{
anchors = (
{
name = bottom;
position = "{425, 0}";
},
{
name = top;
position = "{502, 484}";
}
);
background = {
paths = (
{
closed = 1;
nodes = (
"332 -8 OFFCURVE",
"416 55 OFFCURVE",
"458 160 CURVE",
"440 160 LINE",
"447 50 OFFCURVE",
"517 -8 OFFCURVE",
"633 -8 CURVE SMOOTH",
"701 -8 OFFCURVE",
"774 18 OFFCURVE",
"821 60 CURVE",
"807 96 LINE",
"748 52 OFFCURVE",
"695 33 OFFCURVE",
"636 33 CURVE SMOOTH",
"518 33 OFFCURVE",
"465 109 OFFCURVE",
"485 240 CURVE SMOOTH",
"486 246 LINE SMOOTH",
"506 373 OFFCURVE",
"587 453 OFFCURVE",
"694 453 CURVE SMOOTH",
"798 453 OFFCURVE",
"840 382 OFFCURVE",
"821 262 CURVE",
"840 275 LINE",
"471 275 LINE",
"465 237 LINE",
"857 237 LINE",
"861 263 LINE SMOOTH",
"884 406 OFFCURVE",
"825 492 OFFCURVE",
"704 492 CURVE SMOOTH",
"595 492 OFFCURVE",
"509 429 OFFCURVE",
"466 321 CURVE",
"485 321 LINE",
"477 428 OFFCURVE",
"412 492 OFFCURVE",
"308 492 CURVE SMOOTH",
"176 492 OFFCURVE",
"77 394 OFFCURVE",
"53 242 CURVE SMOOTH",
"29 90 OFFCURVE",
"97 -8 OFFCURVE",
"229 -8 CURVE SMOOTH"
);
},
{
closed = 1;
nodes = (
"129 31 OFFCURVE",
"75 109 OFFCURVE",
"96 242 CURVE SMOOTH",
"117 375 OFFCURVE",
"196 453 OFFCURVE",
"302 453 CURVE SMOOTH",
"408 453 OFFCURVE",
"463 375 OFFCURVE",
"442 242 CURVE SMOOTH",
"421 109 OFFCURVE",
"341 31 OFFCURVE",
"235 31 CURVE SMOOTH"
);
}
);
};
layerId = "F1F93986-3ED8-4AAE-84C4-CA3EEECDDFA0";
paths = (
{
closed = 1;
nodes = (
"357 -8 OFFCURVE",
"430 62 OFFCURVE",
"464 157 CURVE",
"443 157 LINE",
"459 53 OFFCURVE",
"532 -8 OFFCURVE",
"646 -8 CURVE SMOOTH",
"710 -8 OFFCURVE",
"783 15 OFFCURVE",
"826 61 CURVE",
"804 92 LINE",
"758 48 OFFCURVE",
"706 31 OFFCURVE",
"644 31 CURVE SMOOTH",
"525 31 OFFCURVE",
"465 118 OFFCURVE",
"486 246 CURVE SMOOTH",
"489 264 LINE SMOOTH",
"504 355 OFFCURVE",
"560 454 OFFCURVE",
"685 454 CURVE SMOOTH",
"800 454 OFFCURVE",
"837 366 OFFCURVE",
"822 259 CURVE",
"841 271 LINE",
"475 271 LINE",
"469 234 LINE",
"857 234 LINE",
"860 252 LINE SMOOTH",
"880 372 OFFCURVE",
"830 492 OFFCURVE",
"686 492 CURVE SMOOTH",
"572 492 OFFCURVE",
"495 420 OFFCURVE",
"460 322 CURVE",
"482 322 LINE",
"469 429 OFFCURVE",
"400 492 OFFCURVE",
"293 492 CURVE SMOOTH",
"136 492 OFFCURVE",
"51 354 OFFCURVE",
"51 200 CURVE SMOOTH",
"51 70 OFFCURVE",
"126 -8 OFFCURVE",
"245 -8 CURVE SMOOTH"
);
},
{
closed = 1;
nodes = (
"151 31 OFFCURVE",
"94 88 OFFCURVE",
"94 198 CURVE SMOOTH",
"94 337 OFFCURVE",
"163 453 OFFCURVE",
"291 453 CURVE SMOOTH",
"387 453 OFFCURVE",
"444 396 OFFCURVE",
"444 286 CURVE SMOOTH",
"444 147 OFFCURVE",
"375 31 OFFCURVE",
"247 31 CURVE SMOOTH"
);
}
);
width = 906;
},
{
anchors = (
{
name = bottom;
position = "{445, 0}";
},
{
name = top;
position = "{521, 484}";
}
);
background = {
paths = (
{
closed = 1;
nodes = (
"349 -12 OFFCURVE",
"422 18 OFFCURVE",
"478 72 CURVE",
"441 72 LINE",
"481 19 OFFCURVE",
"550 -12 OFFCURVE",
"648 -12 CURVE SMOOTH",
"721 -12 OFFCURVE",
"804 10 OFFCURVE",
"864 45 CURVE",
"835 181 LINE",
"790 155 OFFCURVE",
"729 140 OFFCURVE",
"678 140 CURVE SMOOTH",
"597 140 OFFCURVE",
"573 168 OFFCURVE",
"587 255 CURVE SMOOTH",
"589 264 LINE SMOOTH",
"600 338 OFFCURVE",
"630 370 OFFCURVE",
"679 370 CURVE SMOOTH",
"724 370 OFFCURVE",
"742 342 OFFCURVE",
"736 286 CURVE",
"757 300 LINE",
"574 300 LINE",
"558 199 LINE",
"896 199 LINE",
"904 246 LINE SMOOTH",
"929 404 OFFCURVE",
"846 506 OFFCURVE",
"693 506 CURVE SMOOTH",
"617 506 OFFCURVE",
"551 482 OFFCURVE",
"496 434 CURVE",
"533 434 LINE",
"493 481 OFFCURVE",
"430 506 OFFCURVE",
"342 506 CURVE SMOOTH",
"178 506 OFFCURVE",
"49 408 OFFCURVE",
"24 247 CURVE SMOOTH",
"-2 86 OFFCURVE",
"96 -12 OFFCURVE",
"260 -12 CURVE SMOOTH"
);
},
{
closed = 1;
nodes = (
"248 140 OFFCURVE",
"220 168 OFFCURVE",
"233 247 CURVE SMOOTH",
"245 326 OFFCURVE",
"282 354 OFFCURVE",
"325 354 CURVE SMOOTH",
"368 354 OFFCURVE",
"395 326 OFFCURVE",
"383 247 CURVE SMOOTH",
"370 168 OFFCURVE",
"334 140 OFFCURVE",
"291 140 CURVE SMOOTH"
);
}
);
};
color = 11;
layerId = "4121B50C-FD42-45C5-8FBE-41E76D98F91E";
paths = (
{
closed = 1;
nodes = (
"364 -12 OFFCURVE",
"445 14 OFFCURVE",
"503 71 CURVE",
"448 71 LINE",
"496 19 OFFCURVE",
"571 -12 OFFCURVE",
"663 -12 CURVE SMOOTH",
"748 -12 OFFCURVE",
"818 10 OFFCURVE",
"869 45 CURVE",
"829 180 LINE",
"791 155 OFFCURVE",
"739 140 OFFCURVE",
"683 140 CURVE SMOOTH",
"610 140 OFFCURVE",
"573 172 OFFCURVE",
"585 241 CURVE SMOOTH",
"593 288 LINE SMOOTH",
"602 339 OFFCURVE",
"627 373 OFFCURVE",
"674 373 CURVE SMOOTH",
"729 373 OFFCURVE",
"750 337 OFFCURVE",
"741 286 CURVE",
"755 297 LINE",
"568 297 LINE",
"554 206 LINE",
"895 206 LINE",
"900 236 LINE SMOOTH",
"926 391 OFFCURVE",
"847 506 OFFCURVE",
"676 506 CURVE SMOOTH",
"601 506 OFFCURVE",
"532 480 OFFCURVE",
"480 435 CURVE",
"519 435 LINE",
"475 480 OFFCURVE",
"409 506 OFFCURVE",
"326 506 CURVE SMOOTH",
"181 506 OFFCURVE",
"24 421 OFFCURVE",
"24 223 CURVE SMOOTH",
"24 83 OFFCURVE",
"120 -12 OFFCURVE",
"290 -12 CURVE SMOOTH"
);
},
{
closed = 1;
nodes = (
"254 140 OFFCURVE",
"231 168 OFFCURVE",
"231 216 CURVE SMOOTH",
"231 299 OFFCURVE",
"266 354 OFFCURVE",
"320 354 CURVE SMOOTH",
"358 354 OFFCURVE",
"381 326 OFFCURVE",
"381 278 CURVE SMOOTH",
"381 195 OFFCURVE",
"346 140 OFFCURVE",
"292 140 CURVE SMOOTH"
);
}
);
width = 924;
}
);
leftKerningGroup = o;
leftMetricsKey = o;
rightKerningGroup = e;
rightMetricsKey = e;
unicode = 0153;
},
{
color = 3;
glyphname = p;
lastChange = "2019-09-13 13:23:17 +0000";
layers = (
{
anchors = (
{
name = bottom;
position = "{243, 0}";
},
{
name = top;
position = "{320, 484}";
}
);
background = {
paths = (
{
closed = 1;
nodes = (
"61 -180 LINE",
"109 122 LINE",
"105 124 LINE",
"125 33 OFFCURVE",
"196 -8 OFFCURVE",
"275 -8 CURVE SMOOTH",
"433 -8 OFFCURVE",
"518 129 OFFCURVE",
"518 284 CURVE SMOOTH",
"518 414 OFFCURVE",
"443 492 OFFCURVE",
"326 492 CURVE SMOOTH",
"239 492 OFFCURVE",
"168 442 OFFCURVE",
"134 358 CURVE",
"146 358 LINE",
"166 484 LINE",
"124 484 LINE",
"19 -180 LINE"
);
},
{
closed = 1;
nodes = (
"183 31 OFFCURVE",
"125 88 OFFCURVE",
"125 197 CURVE SMOOTH",
"125 335 OFFCURVE",
"194 453 OFFCURVE",
"323 453 CURVE SMOOTH",
"417 453 OFFCURVE",
"475 396 OFFCURVE",
"475 287 CURVE SMOOTH",
"475 149 OFFCURVE",
"406 31 OFFCURVE",
"277 31 CURVE SMOOTH"
);
}
);
};
layerId = "F1F93986-3ED8-4AAE-84C4-CA3EEECDDFA0";
paths = (
{
closed = 1;
nodes = (
"236 492 OFFCURVE",
"169 445 OFFCURVE",
"135 371 CURVE",
"147 371 LINE",
"165 484 LINE",
"123 484 LINE",
"18 -180 LINE",
"60 -180 LINE",
"108 122 LINE",
"100 122 LINE",
"123 33 OFFCURVE",
"193 -8 OFFCURVE",
"274 -8 CURVE SMOOTH",
"432 -8 OFFCURVE",
"516 130 OFFCURVE",
"516 286 CURVE SMOOTH",
"516 413 OFFCURVE",
"440 492 OFFCURVE",
"326 492 CURVE SMOOTH"
);
},
{
closed = 1;
nodes = (
"416 453 OFFCURVE",
"473 396 OFFCURVE",
"473 286 CURVE SMOOTH",
"473 147 OFFCURVE",
"404 31 OFFCURVE",
"276 31 CURVE SMOOTH",
"180 31 OFFCURVE",
"123 88 OFFCURVE",
"123 198 CURVE SMOOTH",
"123 337 OFFCURVE",
"192 453 OFFCURVE",
"320 453 CURVE SMOOTH"
);
}
);
width = 568;
},
{
anchors = (
{
name = bottom;
position = "{276, 0}";
},
{
name = top;
position = "{352, 484}";
}
);
background = {
components = (
{
name = o;
transform = "{1, 0, 0, 1, 16, 0}";
}
);
};
layerId = "4121B50C-FD42-45C5-8FBE-41E76D98F91E";
paths = (
{
closed = 1;
nodes = (
"364 506 OFFCURVE",
"306 476 OFFCURVE",
"269 424 CURVE",
"275 424 LINE",
"286 494 LINE",
"83 494 LINE",
"-24 -180 LINE",
"184 -180 LINE",
"224 71 LINE",
"212 72 LINE",
"235 19 OFFCURVE",
"289 -12 OFFCURVE",
"357 -12 CURVE SMOOTH",
"505 -12 OFFCURVE",
"608 113 OFFCURVE",
"608 290 CURVE SMOOTH",
"608 422 OFFCURVE",
"537 506 OFFCURVE",
"427 506 CURVE SMOOTH"
);
},
{
closed = 1;
nodes = (
"376 354 OFFCURVE",
"399 326 OFFCURVE",
"399 278 CURVE SMOOTH",
"399 195 OFFCURVE",
"364 140 OFFCURVE",
"310 140 CURVE SMOOTH",
"272 140 OFFCURVE",
"249 168 OFFCURVE",
"249 216 CURVE SMOOTH",
"249 298 OFFCURVE",
"284 354 OFFCURVE",
"338 354 CURVE SMOOTH"
);
}
);
width = 632;
}
);
leftKerningGroup = n;
leftMetricsKey = n;
rightKerningGroup = o;
unicode = 0070;
userData = {
anchors = (
);
b = {
};
com.typemytype.robofont.layerData = {
b = {
anchors = (
);
components = (
);
contours = (
);
lib = {
};
name = p;
unicodes = (
);
width = 1181;
};
};
components = (
);
contours = (
);
lib = {
};
name = p;
unicodes = (
);
width = 1207;
};
},
{
color = 3;
glyphname = thorn;
lastChange = "2019-09-12 08:06:30 +0000";
layers = (
{
anchors = (
{
name = bottom;
position = "{242, 0}";
},
{
name = top;
position = "{319, 484}";
}
);
background = {
anchors = (
{
name = bottom;
position = "{242, 0}";
},
{
name = top;
position = "{319, 484}";
}
);
paths = (
{
closed = 1;
nodes = (
"246 492 OFFCURVE",
"169 440 OFFCURVE",
"134 358 CURVE",
"145 358 LINE",
"200 705 LINE",
"158 705 LINE",
"18 -180 LINE",
"60 -180 LINE",
"108 126 LINE",
"97 126 LINE",
"106 44 OFFCURVE",
"167 -8 OFFCURVE",
"260 -8 CURVE SMOOTH",
"392 -8 OFFCURVE",
"490 89 OFFCURVE",
"515 242 CURVE SMOOTH",
"539 395 OFFCURVE",
"470 492 OFFCURVE",
"339 492 CURVE SMOOTH"
);
},
{
closed = 1;
nodes = (
"438 453 OFFCURVE",
"493 375 OFFCURVE",
"472 242 CURVE SMOOTH",
"451 109 OFFCURVE",
"371 31 OFFCURVE",
"265 31 CURVE SMOOTH",
"159 31 OFFCURVE",
"105 109 OFFCURVE",
"126 242 CURVE SMOOTH",
"147 375 OFFCURVE",
"226 453 OFFCURVE",
"332 453 CURVE SMOOTH"
);
}
);
};
layerId = "F1F93986-3ED8-4AAE-84C4-CA3EEECDDFA0";
paths = (
{
closed = 1;
nodes = (
"236 492 OFFCURVE",
"169 445 OFFCURVE",
"135 371 CURVE",
"147 371 LINE",
"200 705 LINE",
"158 705 LINE",
"18 -180 LINE",
"60 -180 LINE",
"108 122 LINE",
"100 122 LINE",
"123 33 OFFCURVE",
"193 -8 OFFCURVE",
"274 -8 CURVE SMOOTH",
"432 -8 OFFCURVE",
"516 130 OFFCURVE",
"516 286 CURVE SMOOTH",
"516 413 OFFCURVE",
"440 492 OFFCURVE",
"326 492 CURVE SMOOTH"
);
},
{
closed = 1;
nodes = (
"416 453 OFFCURVE",
"473 396 OFFCURVE",
"473 286 CURVE SMOOTH",
"473 147 OFFCURVE",
"404 31 OFFCURVE",
"276 31 CURVE SMOOTH",
"180 31 OFFCURVE",
"123 88 OFFCURVE",
"123 198 CURVE SMOOTH",
"123 337 OFFCURVE",
"192 453 OFFCURVE",
"320 453 CURVE SMOOTH"
);
}
);
width = 568;
},
{
anchors = (
{
name = bottom;
position = "{282, 0}";
},
{
name = top;
position = "{358, 484}";
}
);
background = {
anchors = (
{
name = bottom;
position = "{282, 0}";
},
{
name = top;
position = "{358, 484}";
}
);
paths = (
{
closed = 1;
nodes = (
"363 506 OFFCURVE",
"292 468 OFFCURVE",
"265 413 CURVE",
"279 413 LINE",
"325 705 LINE",
"117 705 LINE",
"-23 -180 LINE",
"185 -180 LINE",
"225 73 LINE",
"213 73 LINE",
"226 24 OFFCURVE",
"284 -12 OFFCURVE",
"353 -12 CURVE SMOOTH",
"479 -12 OFFCURVE",
"583 86 OFFCURVE",
"609 247 CURVE SMOOTH",
"634 408 OFFCURVE",
"560 506 OFFCURVE",
"435 506 CURVE SMOOTH"
);
},
{
closed = 1;
nodes = (
"385 354 OFFCURVE",
"412 326 OFFCURVE",
"400 247 CURVE SMOOTH",
"387 168 OFFCURVE",
"351 140 OFFCURVE",
"308 140 CURVE SMOOTH",
"265 140 OFFCURVE",
"237 168 OFFCURVE",
"250 247 CURVE SMOOTH",
"262 326 OFFCURVE",
"299 354 OFFCURVE",
"342 354 CURVE SMOOTH"
);
}
);
};
layerId = "4121B50C-FD42-45C5-8FBE-41E76D98F91E";
paths = (
{
closed = 1;
nodes = (
"365 506 OFFCURVE",
"307 476 OFFCURVE",
"270 424 CURVE",
"281 424 LINE",
"325 705 LINE",
"117 705 LINE",
"-23 -180 LINE",
"185 -180 LINE",
"225 71 LINE",
"213 72 LINE",
"236 19 OFFCURVE",
"290 -12 OFFCURVE",
"358 -12 CURVE SMOOTH",
"506 -12 OFFCURVE",
"609 113 OFFCURVE",
"609 290 CURVE SMOOTH",
"609 422 OFFCURVE",
"538 506 OFFCURVE",
"428 506 CURVE SMOOTH"
);
},
{
closed = 1;
nodes = (
"377 354 OFFCURVE",
"400 326 OFFCURVE",
"400 278 CURVE SMOOTH",
"400 195 OFFCURVE",
"365 140 OFFCURVE",
"311 140 CURVE SMOOTH",
"273 140 OFFCURVE",
"250 168 OFFCURVE",
"250 216 CURVE SMOOTH",
"250 298 OFFCURVE",
"285 354 OFFCURVE",
"339 354 CURVE SMOOTH"
);
}
);
width = 632;
}
);
leftKerningGroup = h;
leftMetricsKey = n;
rightKerningGroup = o;
unicode = 00FE;
},
{
color = 3;
glyphname = q;
lastChange = "2019-09-12 08:06:30 +0000";
layers = (
{
anchors = (
{
name = bottom;
position = "{243, 0}";
},
{
name = top;
position = "{320, 484}";
}
);
background = {
paths = (
{
closed = 1;
nodes = (
"416 -180 LINE",
"521 484 LINE",
"479 484 LINE",
"460 358 LINE",
"464 360 LINE",
"444 451 OFFCURVE",
"373 492 OFFCURVE",
"294 492 CURVE SMOOTH",
"136 492 OFFCURVE",
"51 355 OFFCURVE",
"51 200 CURVE SMOOTH",
"51 70 OFFCURVE",
"126 -8 OFFCURVE",
"243 -8 CURVE SMOOTH",
"330 -8 OFFCURVE",
"401 42 OFFCURVE",
"435 126 CURVE",
"422 126 LINE",
"374 -180 LINE"
);
},
{
closed = 1;
nodes = (
"152 31 OFFCURVE",
"94 88 OFFCURVE",
"94 197 CURVE SMOOTH",
"94 335 OFFCURVE",
"163 453 OFFCURVE",
"292 453 CURVE SMOOTH",
"386 453 OFFCURVE",
"444 396 OFFCURVE",
"444 287 CURVE SMOOTH",
"444 149 OFFCURVE",
"375 31 OFFCURVE",
"246 31 CURVE SMOOTH"
);
}
);
};
layerId = "F1F93986-3ED8-4AAE-84C4-CA3EEECDDFA0";
paths = (
{
closed = 1;
nodes = (
"416 -180 LINE",
"521 484 LINE",
"479 484 LINE",
"460 362 LINE",
"467 362 LINE",
"444 451 OFFCURVE",
"374 492 OFFCURVE",
"293 492 CURVE SMOOTH",
"135 492 OFFCURVE",
"51 354 OFFCURVE",
"51 198 CURVE SMOOTH",
"51 71 OFFCURVE",
"127 -8 OFFCURVE",
"241 -8 CURVE SMOOTH",
"331 -8 OFFCURVE",
"398 39 OFFCURVE",
"432 113 CURVE",
"420 113 LINE",
"374 -180 LINE"
);
},
{
closed = 1;
nodes = (
"151 31 OFFCURVE",
"94 88 OFFCURVE",
"94 198 CURVE SMOOTH",
"94 337 OFFCURVE",
"163 453 OFFCURVE",
"291 453 CURVE SMOOTH",
"387 453 OFFCURVE",
"444 396 OFFCURVE",
"444 286 CURVE SMOOTH",
"444 147 OFFCURVE",
"375 31 OFFCURVE",
"247 31 CURVE SMOOTH"
);
}
);
width = 568;
},
{
anchors = (
{
name = bottom;
position = "{281, 0}";
},
{
name = top;
position = "{357, 484}";
}
);
background = {
paths = (
{
closed = 1;
nodes = (
"520 -180 LINE",
"627 494 LINE",
"422 494 LINE",
"411 426 LINE",
"428 416 LINE",
"399 476 OFFCURVE",
"347 506 OFFCURVE",
"277 506 CURVE SMOOTH",
"128 506 OFFCURVE",
"24 396 OFFCURVE",
"24 210 CURVE SMOOTH",
"24 83 OFFCURVE",
"94 -12 OFFCURVE",
"204 -12 CURVE SMOOTH",
"276 -12 OFFCURVE",
"332 19 OFFCURVE",
"361 77 CURVE",
"352 77 LINE",
"312 -180 LINE"
);
},
{
closed = 1;
nodes = (
"253 140 OFFCURVE",
"232 168 OFFCURVE",
"232 219 CURVE SMOOTH",
"232 301 OFFCURVE",
"262 354 OFFCURVE",
"315 354 CURVE SMOOTH",
"361 354 OFFCURVE",
"382 326 OFFCURVE",
"382 275 CURVE SMOOTH",
"382 193 OFFCURVE",
"352 140 OFFCURVE",
"299 140 CURVE SMOOTH"
);
}
);
};
layerId = "4121B50C-FD42-45C5-8FBE-41E76D98F91E";
paths = (
{
closed = 1;
nodes = (
"520 -180 LINE",
"627 494 LINE",
"422 494 LINE",
"411 422 LINE",
"419 422 LINE",
"396 475 OFFCURVE",
"342 506 OFFCURVE",
"274 506 CURVE SMOOTH",
"126 506 OFFCURVE",
"23 381 OFFCURVE",
"23 204 CURVE SMOOTH",
"23 72 OFFCURVE",
"94 -12 OFFCURVE",
"204 -12 CURVE SMOOTH",
"267 -12 OFFCURVE",
"325 18 OFFCURVE",
"363 71 CURVE",
"352 71 LINE",
"312 -180 LINE"
);
},
{
closed = 1;
nodes = (
"255 140 OFFCURVE",
"232 168 OFFCURVE",
"232 216 CURVE SMOOTH",
"232 299 OFFCURVE",
"267 354 OFFCURVE",
"321 354 CURVE SMOOTH",
"359 354 OFFCURVE",
"382 326 OFFCURVE",
"382 278 CURVE SMOOTH",
"382 196 OFFCURVE",
"347 140 OFFCURVE",
"293 140 CURVE SMOOTH"
);
}
);
width = 632;
}
);
leftKerningGroup = o;
rightKerningGroup = q;
rightMetricsKey = "=|n";
unicode = 0071;
userData = {
anchors = (
);
b = {
};
com.typemytype.robofont.layerData = {
b = {
anchors = (
);
components = (
);
contours = (
);
lib = {
};
name = p;
unicodes = (
);
width = 1181;
};
};
components = (
);
contours = (
);
lib = {
};
name = p;
unicodes = (
);
width = 1207;
};
},
{
color = 3;
glyphname = r;
lastChange = "2019-09-12 08:06:30 +0000";
layers = (
{
anchors = (
{
name = bottom;
position = "{68, 0}";
},
{
name = top;
position = "{243, 487}";
}
);
background = {
paths = (
{
closed = 1;
nodes = (
"89 0 LINE",
"134 288 LINE SMOOTH",
"148 379 OFFCURVE",
"218 445 OFFCURVE",
"318 454 CURVE SMOOTH",
"352 458 LINE",
"350 496 LINE",
"327 494 LINE SMOOTH",
"233 486 OFFCURVE",
"174 453 OFFCURVE",
"139 373 CURVE",
"147 371 LINE",
"165 484 LINE",
"124 484 LINE",
"47 0 LINE"
);
}
);
};
layerId = "F1F93986-3ED8-4AAE-84C4-CA3EEECDDFA0";
paths = (
{
closed = 1;
nodes = (
"89 0 LINE",
"133 280 LINE SMOOTH",
"149 379 OFFCURVE",
"195 444 OFFCURVE",
"317 455 CURVE SMOOTH",
"350 458 LINE",
"346 496 LINE",
"311 493 LINE SMOOTH",
"217 485 OFFCURVE",
"161 438 OFFCURVE",
"136 370 CURVE",
"147 370 LINE",
"165 484 LINE",
"124 484 LINE",
"47 0 LINE"
);
}
);
width = 327;
},
{
anchors = (
{
name = bottom;
position = "{111, 0}";
},
{
name = top;
position = "{286, 484}";
}
);
background = {
anchors = (
{
name = bottom;
position = "{111, 0}";
},
{
name = top;
position = "{286, 484}";
}
);
paths = (
{
closed = 1;
nodes = (
"217 0 LINE",
"254 235 LINE SMOOTH",
"263 292 OFFCURVE",
"292 317 OFFCURVE",
"357 323 CURVE SMOOTH",
"470 334 LINE",
"486 508 LINE",
"431 504 LINE SMOOTH",
"342 498 OFFCURVE",
"278 451 OFFCURVE",
"257 371 CURVE",
"267 371 LINE",
"286 494 LINE",
"83 494 LINE",
"5 0 LINE"
);
}
);
};
layerId = "4121B50C-FD42-45C5-8FBE-41E76D98F91E";
paths = (
{
closed = 1;
nodes = (
"217 0 LINE",
"253 228 LINE SMOOTH",
"262 292 OFFCURVE",
"284 315 OFFCURVE",
"342 321 CURVE SMOOTH",
"471 334 LINE",
"482 508 LINE",
"430 505 LINE SMOOTH",
"344 500 OFFCURVE",
"281 450 OFFCURVE",
"258 371 CURVE",
"266 371 LINE",
"286 494 LINE",
"83 494 LINE",
"5 0 LINE"
);
}
);
width = 457;
}
);
leftKerningGroup = n;
leftMetricsKey = n;
rightKerningGroup = r;
unicode = 0072;
userData = {
anchors = (
);
b = {
};
com.typemytype.robofont.layerData = {
b = {
anchors = (
);
components = (
);
contours = (
);
lib = {
};
name = r;
unicodes = (
);
width = 715;
};
};
components = (
);
contours = (
);
lib = {
};
name = r;
unicodes = (
);
width = 763;
};
},
